<?xml version="1.0" encoding="utf-8"?>
<!-- Generator: Adobe Illustrator 18.0.0, SVG Export Plug-In . SVG Version: 6.00 Build 0)  -->
<!DOCTYPE svg PUBLIC "-//W3C//DTD SVG 1.1//EN" "http://www.w3.org/Graphics/SVG/1.1/DTD/svg11.dtd">
<svg version="1.1" xmlns="http://www.w3.org/2000/svg" xmlns:xlink="http://www.w3.org/1999/xlink" x="0px" y="0px"
	 viewBox="0 0 396 306" enable-background="new 0 0 396 306" xml:space="preserve">
<g id="wall">
	<path fill="#5C2E50" d="M396,286.2c-48.6,8.4-99.4-7.5-143.3-24.2c-29.1-11.1-58.1-23-89.4-29.2c-30.2-5.9-61.6-6.2-92.6-3.4
		c-23.7,2.1-47.2,5.9-70.6,10.3v39.2c52.1-10.1,105.5-17.8,157.8-10c41.6,6.2,78.7,23.2,117.2,37.1h121V286.2z"/>
	<g>
		<path fill="#480532" d="M309.7,284.2c1,0.7,2,1.4,3,2.1c0.3,0.2,0.6,0.5,1,0.5c0.7,0.2,1.5-0.2,2-0.6c0.6-0.4,1.1-0.9,1.7-1.3
			c-1.5-0.2-2.9-0.6-4.2-1.1c-1-0.4-2.2-1-3.3-0.6c-0.3,0.1-0.7,0.4-0.5,0.7C309.6,284,309.6,284.1,309.7,284.2z"/>
		<path fill="#480532" d="M316.3,289.6c-0.1,1.1,0.1,2.2,0.3,3.2c0.3,1.2,0.6,2.4,1.3,3.4c0.7,1,2,1.8,3.4,1.7
			c1.2-0.1,2.1-0.8,3.2-1.2c1.8-0.7,3.8-0.7,5.6-1.3c1.7-0.6,3.1-1.9,3.8-3.4c-0.8-0.1-1.5-0.7-1.9-1.3c-0.4-0.6-0.6-1.4-1.1-2
			c-0.7-1-1.9-1.6-3.1-2c-2.7-0.9-5.9-1-8.7-0.2c-0.5,0.2-1.1,0.3-1.5,0.6C316.8,287.8,316.4,288.7,316.3,289.6z"/>
		<path fill="#480532" d="M304.3,291.1c-1,2.1-1.7,4.2-2.1,6.4c0.7,0.3,1.5,0.1,2.1-0.3c0.6-0.3,1.2-0.8,1.8-1.1
			c1.3-0.7,2.9-0.8,4.4-0.9c0.6,0,1.3-0.1,1.7-0.6c0.3-0.4,0.3-0.9,0.2-1.4c-0.2-1.6-0.4-3.3-0.6-4.9c-0.1-0.6-0.2-1.3-0.9-1.5
			c-0.4-0.2-1,0-1.4,0.1c-1.3,0.4-2.7,0.9-3.6,1.8C305.1,289.5,304.7,290.3,304.3,291.1z"/>
		<path fill="#480532" d="M335.6,291.3c0.9,0.5,2,0.5,3.1,0.3c1.1-0.2,2-0.6,3-1c0.4-0.2,1-0.5,0.8-0.9c-0.1-0.2-0.3-0.3-0.5-0.4
			c-2.5-1.1-5.4-1.5-8.2-0.9C333.9,289.5,334.5,290.7,335.6,291.3z"/>
		<path fill="#480532" d="M337.6,292.7c-0.1,0-0.3,0.1-0.4,0.1c-0.3,0.2-0.2,0.6-0.1,0.9c0.3,1,0.6,2,1.4,2.7c1,1,2.6,1.3,4.1,1.2
			c1.5-0.1,3-0.6,4.4-1.1c-0.3-0.7-0.8-1.3-1.4-1.8c-0.4-0.3-0.8-0.6-1.3-0.8c-1.1-0.7-2.3-1.3-3.7-1.5
			C339.6,292.3,338.6,292.5,337.6,292.7z"/>
		<path fill="#480532" d="M346.3,291.4c4.2,0.2,8.5-0.4,12.7-1.1c-0.2-0.4-0.4-0.9-0.9-1c-0.2-0.1-0.5-0.1-0.7-0.1
			c-3.3-0.3-6.5-0.6-9.8-0.8c-0.4,0-0.8-0.1-1.1,0.1c-0.5,0.2-0.7,0.8-0.8,1.3c-0.1,0.3-0.1,0.5-0.2,0.8c-0.1,0.2-0.1,0.4,0,0.6
			C345.7,291.3,346,291.3,346.3,291.4z"/>
		<path fill="#480532" d="M274.7,277.3c2.1,0.3,4.2,0,6.4,0c1.8,0,3.7,0.1,5.5,0.5c0.3,0.1,0.7,0.1,1,0c0.3-0.2,0.4-0.7,0.2-1
			c-0.2-0.3-0.5-0.5-0.9-0.7c-1.7-0.9-3.4-1.7-5.2-2.5c-0.7-0.3-1.3-0.6-2-0.9c-0.8-0.4-1.6-0.7-2.5-0.9c-1.5-0.4-3.1-0.3-4.7-0.2
			c-0.9,0.1-2,0.2-2.6,0.9c-0.4,0.5-0.4,1.3-0.2,1.9C270.5,276,272.6,277,274.7,277.3z"/>
		<path fill="#480532" d="M296.5,295.1c-3.2-0.1-6.1-1.5-9.1-2.5c-0.2-0.1-0.3-0.1-0.5-0.1c-0.1,0-0.3,0-0.4,0.1
			c-1.2,0.4-2.2,1.1-2.9,2.1c-0.7,1-1,2.3-0.4,3.3c0.7,1,2.1,1.4,3.4,1.3c1.3,0,2.6-0.4,3.9-0.6c1.7-0.2,3.3-0.1,5-0.1
			c0.9,0,1.9-0.2,2.4-0.9c0.2-0.3,0.3-0.7,0.4-1.1c0.1-0.3,0.1-0.7,0-1C298.1,295.1,297.2,295.1,296.5,295.1z"/>
		<path fill="#480532" d="M251.1,278.8c-0.3,1.1-0.4,2.3-0.6,3.5c-0.1,1.2-0.2,2.6,0.7,3.5c0.9,0.9,2.6,1,3.9,0.7
			c1.4-0.3,2.7-0.9,4.1-1.3c3-0.8,6.2-0.1,9.2,0.4c1.5-1.1,1.5-3.2,0.8-4.7c-0.8-1.5-2.2-2.7-3.3-4.1c-1.1-1.4-1.9-2.9-2.4-4.6
			c-0.2-0.8-0.5-1.7-1.4-1.9c-0.3-0.1-0.7,0-1.1,0C256.5,271.2,252.3,274.7,251.1,278.8z"/>
		<path fill="#480532" d="M285.3,279.7c-1.1-0.5-2.4-0.5-3.7-0.5c-1,0-1.9-0.1-2.9-0.1c-1.6,0-3.4,0-4.6,1c-1.3,1.1-1.2,2.9-1.1,4.5
			c0.1,0.8,0.2,1.7,0.3,2.5c0,0.4,0.1,0.8,0.3,1.1c0.2,0.3,0.6,0.5,1,0.6c1.4,0.6,2.9,1.3,3.2,2.7c0.1,0.7-0.2,1.4-0.3,2.1
			c-0.1,0.7,0.1,1.5,0.8,1.8c0.6,0.3,1.3,0.1,2-0.2c1.2-0.5,2.3-1.1,3.3-1.8c1-0.7,2-1.7,2-2.8c0-1-0.6-1.9-0.2-2.8
			c0.2-0.5,0.8-0.9,1.3-1.4c1-1,1.4-2.4,1.2-3.6C287.6,281.4,286.6,280.3,285.3,279.7z"/>
		<path fill="#480532" d="M287.6,287.5c-0.1,0.2-0.1,0.5-0.1,0.7c0.3,1.7,2.1,2.8,3.8,3.7c1.3,0.7,2.8,1.4,4.3,1.5
			c1.3,0.1,2.5-0.3,3.7-0.7c0.9-0.3,1.8-0.6,2.2-1.3c0.3-0.5,0.3-1,0.4-1.5c0.4-1.3,1.7-2.2,3-2.8c1.1-0.5,2.5-1,2.5-2
			c0-0.4-0.2-0.8-0.4-1.2c-0.7-1.2-1.4-2.5-2.8-3.2c-0.6-0.3-1.3-0.4-1.9-0.6c-3.3-0.7-6.7-1.5-10.1-1.1c-0.3,0-0.7,0.1-1,0.2
			c-0.9,0.5-1,1.6-1.1,2.5c-0.1,1.8-0.4,3.8-1.9,5C288,287.1,287.8,287.2,287.6,287.5z"/>
		<path fill="#480532" d="M383.4,291.2c0.9-0.2,1.8-0.4,2.5-1c0.6-0.4,0.9-1.1,1-1.7c-1.7,0.2-3.5,0.4-5.2,0.6c-0.3,0-0.7,0.1-1,0.2
			c-0.5,0.2-0.7,0.8-0.7,1.2c0,0.5,0.1,0.9,0.3,1.4C381.3,291.7,382.3,291.4,383.4,291.2z"/>
		<path fill="#480532" d="M385.1,291.8c-0.7,0.7-1.1,1.6-1,2.5c0,0.4,0.1,0.7,0.2,1c0.5,1.9,1.1,3.7,2.3,5.3c2.8,0,5.7-0.8,8.1-2.1
			c0.5-0.3,1-0.7,1.1-1.2c0.1-0.6-0.3-1.1-0.7-1.6c-1-1.1-2.1-2.2-3.1-3.3c-0.1-0.1-0.2-0.2-0.4-0.3c-0.2,0-0.4,0.1-0.6,0.2
			c-0.9,0.4-2,0.9-2.8,0.3c-0.2-0.1-0.3-0.4-0.5-0.5C387.1,291.5,385.9,291.4,385.1,291.8z"/>
		<path fill="#480532" d="M395.1,291.4c-0.2,0.3-0.2,0.6-0.1,1c0.1,0.9,0.5,1.8,1,2.6v-4.2C395.6,290.9,395.3,291.1,395.1,291.4z"/>
		<path fill="#480532" d="M390.8,287.7c-0.5,0.1-1,0.2-1.4,0.5c-0.7,0.6-0.6,1.5-0.4,2.3c0,0.2,0.1,0.3,0.2,0.4
			c0.2,0.2,0.6,0.2,1,0.2c2-0.3,4-0.9,5.9-1.6v-3C394.3,286.9,392.5,287.3,390.8,287.7z"/>
		<path fill="#480532" d="M372.7,292.7c-0.6,0.8-0.6,1.8-0.6,2.7c0,0.2,0,0.3,0.1,0.5c0.1,0.2,0.5,0.4,0.7,0.5
			c0.9,0.3,1.8,0.6,2.7,0.7c0.5,0.1,1,0.1,1.5,0.1c1.9,0,3.9-0.1,5.8-0.4c-0.2-0.9-0.4-1.8-0.8-2.7c-0.3-0.8-1-1.8-2-1.7
			c-0.2,0-0.3,0-0.5,0c-0.2,0-0.3-0.1-0.4-0.3c-0.4-0.4-0.6-0.8-0.8-1.3c-0.5-0.2-0.8-0.5-1.2-0.8c-0.4-0.3-1-0.4-1.4-0.2
			c-0.2,0.1-0.3,0.2-0.4,0.3c-0.6,0.5-1.3,1.1-1.9,1.6C373.3,292,373,292.3,372.7,292.7z"/>
		<path fill="#480532" d="M365,291.7c0.5,0.3,1,0.5,1.6,0.7c0.4,0.2,0.8,0.4,1.3,0.4c1.2,0.2,2.5-0.3,3.6-1c0.4-0.9,1.1-1.6,1.9-2.2
			c-2-0.4-4-0.7-6.1-0.7c-0.7,0-1.3,0-1.9,0.2c-0.6,0.2-1.2,0.7-1.2,1.3C364.2,291,364.6,291.4,365,291.7z"/>
		<path fill="#480532" d="M363.5,291.7l0,0.3c0,0.1,0.1,0.1,0.1,0.2C363.6,292,363.6,291.9,363.5,291.7z"/>
		<path fill="#480532" d="M363.5,292L363.5,292c-0.4-0.7-0.9-1.4-1.5-2.1c-0.6,0.1-1.3,0.2-1.9,0.2c0,0.7,0.1,1.4,0.4,2
			C361.4,292.7,362.7,292.6,363.5,292z"/>
		<path fill="#480532" d="M358.6,298.1c-0.1,1.1,0,2.3,0.8,3.1c0.4,0.4,0.8,0.6,1.3,0.8c3.4,1.4,7.6,0.8,10.9-1
			c0.6-0.3,1.2-0.8,1.3-1.4c0-0.3-0.1-0.7-0.3-1c-0.4-0.7-0.9-1.3-1.6-1.8c-0.5-0.4-1-0.7-1.3-1.2c-0.2-0.4-0.3-0.8-0.6-1
			c-0.2-0.1-0.4-0.1-0.6-0.2c-1.1-0.2-2.2-0.3-3.2-0.5c-1.4-0.2-2.7-0.4-4.1-0.2c-0.5,0.1-1,0.2-1.4,0.5c-0.6,0.4-0.7,1.1-0.8,1.8
			C358.7,296.7,358.6,297.4,358.6,298.1z"/>
		<path fill="#480532" d="M349.8,293.5c-0.2,0.2-0.2,0.6-0.2,0.9c0,0.4,0.1,0.9,0.1,1.3c0.1,0.4,0.1,0.7,0.4,1
			c0.4,0.4,1.1,0.4,1.8,0.3c0.5-0.1,1.1-0.1,1.6-0.2c0.8-0.1,1.7-0.1,2.2,0.3c0.3,0.2,0.4,0.5,0.7,0.8c0.3,0.2,0.8,0.3,1,0.1
			c-0.5-1.7,0-3.6,1.2-5c0.4,0,0.7-0.3,0.8-0.7c0.1-0.3,0-0.7-0.1-1c0,0,0-0.1-0.1-0.1c-0.1,0-0.1,0-0.2,0c-2.8,0.5-5.6,1.1-8.3,1.9
			C350.4,293.1,350,293.3,349.8,293.5z"/>
		<path fill="#480532" d="M152.5,245.2c0.2,0.6,0.4,1.2,0.9,1.7c0.8,0.8,2.2,0.9,3.4,0.9c6.1-0.3,12-3.1,18.2-3
			c2.7,0.1,5.5,0.7,8.1-0.2c1-0.3,1.8-0.8,2.7-1.3c1.6-0.7,3.5-1.1,5.3-1.1c-5.4-2.4-12-2.4-17.3-4.9c-1.2-0.6-2.3-1.2-3.6-1.7
			c-2.2-0.8-4.7-0.8-7.1-1.1c-1.8-0.2-3.6-0.6-5.5-0.6c-1.8,0-3.8,0.6-5,1.9c-1.4,1.6-1.3,3.7-0.9,5.6
			C151.8,242.8,152.1,244,152.5,245.2z"/>
		<path fill="#480532" d="M365.6,305.4c-0.7-0.5-1.6-0.9-2.4-1.3c-0.7-0.3-1.4-0.6-2.2-0.6c-1.2-0.1-2.5,0.4-3.5,1.1
			c-0.6,0.4-1.1,0.9-1.6,1.4h10.4C366.1,305.8,365.9,305.6,365.6,305.4z"/>
		<path fill="#480532" d="M355.4,300.3c-0.5-0.7-0.4-1.8-1.3-2.2c-0.4-0.2-0.9-0.2-1.3-0.1c-1.7,0.1-3.5,0.3-5.2,0.6
			c-0.6,0.1-1.2,0.2-1.7,0.5c-0.8,0.5-1.1,1.4-0.9,2.2c0.2,0.8,0.7,1.5,1.3,2.1c0.6,0.6,1.2,1.2,1.7,1.9c0.1,0.1,0.2,0.3,0.3,0.3
			c0.1,0,0.3,0,0.4,0c1-0.1,1.9-0.2,2.9-0.4c0.4-0.1,0.9-0.1,1.3-0.2c0.3-0.1,0.7-0.3,1-0.4c1.4-0.7,2.9-1.4,4.3-2.1
			c-0.6-0.5-1.3-1-1.9-1.4C356,300.9,355.6,300.6,355.4,300.3z"/>
		<path fill="#480532" d="M375.9,303.8c-0.6-0.7-1.8-0.9-2.9-1c-0.6-0.1-1.3-0.1-1.9,0c-1.2,0.3-2,1.3-3.1,2c-0.1,0.4,0,0.8,0.1,1.2
			h8.2C376.4,305.2,376.4,304.4,375.9,303.8z"/>
		<path fill="#480532" d="M342.9,302.2c-1.5-1.3-3.1-2.6-4.6-3.9c-1.3-1.1-2.9-2.3-4.8-2.1c-1.1,0.1-2.1,0.6-3,1.2
			c-1.4,0.9-2.7,1.9-3.9,3c-0.6,0.6-1.2,1.2-1.4,2c-0.2,0.9,0.3,1.8,0.7,2.6c0.2,0.3,0.4,0.7,0.6,1h16.7c0.6-0.3,1.2-0.6,1.8-0.8
			C345,304,343.9,303.1,342.9,302.2z"/>
		<path fill="#480532" d="M388.1,302.9c0,0.8,0.5,1.6,1.3,2.1c0.7,0.5,1.7,0.7,2.6,0.8c1.3,0.1,2.7,0,4-0.1v-4.8
			C393.7,302.1,390.7,302,388.1,302.9z"/>
		<path fill="#480532" d="M382.8,298.2c-0.4-0.2-0.9-0.2-1.3-0.2c-1.7,0-3.4,0.1-5,0.2c-0.6,0-1.2,0.2-1.4,0.6
			c-0.1,0.2-0.1,0.4,0,0.6c0,0.4,0.1,0.7,0.1,1.1c0,0.3,0.1,0.6,0.2,0.9c0.3,0.4,0.9,0.5,1.4,0.6c1.2,0.2,2.5,0.4,3.8,0.4
			c0.8,0,1.6,0,2.4-0.3c0.7-0.3,1.4-0.9,2.1-0.8c-0.4-0.7-0.9-1.4-1.3-2.1C383.5,298.8,383.2,298.4,382.8,298.2z"/>
		<path fill="#480532" d="M386.8,304.3c-0.4-0.7-1.1-1.4-2-1.5c-0.9-0.1-1.9,0.4-2.8,0.4c-0.8,0-1.7-0.4-2.5,0
			c-0.7,0.3-0.9,1.1-0.9,1.8c0,0.4,0,0.8,0,1.1h9.3C387.5,305.5,387.2,304.9,386.8,304.3z"/>
		<path fill="#480532" d="M184.8,252.1c0.2,1.2,0.6,2.4,1.5,3.2c1.2,1,3,1.2,4.7,1.2c3.4,0.1,6.9-0.2,10.3,0.4
			c3.3,0.6,6.6,1.9,9.8,1.2c2.2-0.5,4.1-2,5-3.8c0.1-0.3,0.3-0.6,0.1-0.9c-0.1-0.2-0.3-0.3-0.5-0.5c-1.6-0.9-3.6-1.4-5.6-1.3
			c-2.3,0.1-4.5,1-6.7,0.5c-1.5-0.4-2.7-1.4-3.1-2.7c-0.2-0.6-0.3-1.2-0.7-1.7c-0.3-0.3-0.6-0.5-1-0.7c-2-1.1-4-2.1-6.3-2.4
			c-2.3-0.3-5,0.3-6.4,1.9C184.5,248.1,184.4,250.2,184.8,252.1z"/>
		<path fill="#480532" d="M110.3,235.8c2.8,1.8,5.7,3.7,8.5,5.5c0.7,0.4,1.3,0.8,2.1,1.1c1.1,0.4,2.3,0.4,3.4,0.1
			c0.8-1.1,1.2-2.4,1.2-3.6c0-1-0.2-2-0.1-3c0-1,0.3-2,1.1-2.8c0.4-0.3,0.9-0.6,1.2-0.9c0.4-0.4,0.6-0.9,0.4-1.3
			c-0.3-0.4-0.9-0.5-1.5-0.6c-4.8-0.3-9.6,0.1-14.4,1c-0.8,0.2-1.7,0.4-2.4,0.8c-0.7,0.4-1.2,1.2-1.1,1.9
			C108.9,234.9,109.6,235.4,110.3,235.8z"/>
		<path fill="#480532" d="M75.7,238.1c0.8,0.8,1.5,1.8,2.4,2.5c2.1,1.6,5.5,1.5,7.6-0.2c1-0.8,1.7-1.9,2.8-2.7
			c1.2-0.8,2.7-1.2,3.9-1.8c1.7-0.9,2.9-2.2,4.6-3.1c3-1.5,7.1-1.1,9.4-3.4c0-0.3-0.5-0.3-0.8-0.3c-11.3,1.4-22.5,2.8-33.8,4.2
			C71.7,235.4,74.2,236.6,75.7,238.1z"/>
		<path fill="#480532" d="M196.1,243.4c2.2,1.2,4.2,2.7,5.9,4.4c-0.1,0.7,0,1.3,0.2,2c2.6,0,5.1-0.2,7.6-0.5c0.1-0.6-0.5-1-1.1-1.3
			c-4.2-2.3-8.6-4.2-13.3-5.6C195.2,242.8,195.7,243.2,196.1,243.4z"/>
		<path fill="#480532" d="M51,236.7c1.3,0.2,2.7,0.1,4.1,0.2c5.7,0.4,11,2.5,16.7,2.4c-0.2-0.2-0.3-0.5-0.4-0.8
			c-1.2-0.4-2.4-0.8-3.2-1.7c-0.6-0.7-0.7-1.7-1.3-2.4c-0.9-1.2-2.5-1.7-4.1-1.8c-4.1-0.3-8.1,1.3-11.8,2.8c-0.5,0.2-1,0.6-0.8,1
			C50.4,236.6,50.8,236.7,51,236.7z"/>
		<path fill="#480532" d="M321.7,302.3c0-0.4,0-0.8-0.2-1.1c-0.2-0.3-0.6-0.6-0.9-0.8c-2.1-1.2-4.3-2.1-6.7-2.7
			c-1.9-0.5-4-0.8-5.9-0.2c-2.1,0.8-3.5,2.7-4.1,4.6c-0.4,1.3-0.5,2.7-0.1,4h17.6c0.1-0.4,0.2-0.9,0.2-1.4
			C321.6,303.9,321.7,303.1,321.7,302.3z"/>
		<path fill="#480532" d="M237.7,268.1c2.6,1.6,6.5-0.2,9.5,0.8c1.5,0.5,2.5,1.6,3.7,2.5c0.2,0.2,0.5,0.4,0.8,0.4
			c0.4,0,0.7-0.2,1.1-0.4c2.5-1.5,5.3-2.4,8.2-2.8c-1-1-2-2.1-3-3.1c-0.6-0.7-1.3-1.4-2.2-1.8c-1-0.5-2.2-0.6-3.4-0.8
			c-3.6-0.5-7.1-1.5-10.4-2.8c-1.1-0.4-2.2-0.9-3.4-1c-1.2-0.1-2.5,0.4-3,1.4c-0.3,0.6-0.2,1.2-0.2,1.8
			C235.6,264.5,235.8,266.9,237.7,268.1z"/>
		<path fill="#480532" d="M281.5,299.6c-0.7-0.5-1.3-1-2-1.6c-0.6-0.5-1.3-1-2.1-1.3c-1.7-0.6-3.9,0-4.9,1.3
			c-0.5,0.7-0.7,1.5-0.5,2.3c-1-0.5-1.9-0.9-2.9-1.4c0.3-0.5,0.4-1,0.7-1.4c0.6-1,2-1.5,3.1-2c1.1-0.6,2.2-1.5,2-2.7
			c-0.1-0.4-0.3-0.8-0.6-1.1c-2.4-2.9-6.4-4.7-10.5-4.7c-1.5,0-3.1,0.3-4.2,1.1c-1,0.8-1.6,2-1.8,3.1c-0.1,0.7-0.1,1.4,0,2.1
			c-1.6-0.8-3.2-1.6-4.8-2.4c0,0,0,0,0-0.1c-0.1-0.3-0.4-0.5-0.7-0.7c-0.9-0.7-1.7-1.4-2.6-2.1c-0.3-0.2-0.6-0.5-1-0.6
			c-0.7-0.2-1.4,0-2.1,0.2c-0.8-0.4-1.5-0.8-2.3-1.2c0.7-0.5,1.4-1.1,2-1.8c2.5-3.1,2.5-7.2,1.9-10.9c-0.2-1-0.4-2.2-1.3-2.9
			c-1-0.7-2.4-0.8-3.7-0.8c-2.5,0-5.1,0-7.6,0c-2,0-4.1,0-5.8,0.9c-2.1,1.1-3.3,3.3-3.6,5.4c0,0.3,0,0.6-0.1,0.9
			c-1.6-0.8-3.3-1.6-4.9-2.4c0.1-0.1,0.2-0.1,0.3-0.2c0.6-0.5,1.1-1,1.6-1.6c1.2-1.3,2.8-2.4,4.5-3.2c1.4-0.6,3-1.1,3.9-2.2
			c0.6-0.8,0.7-1.9,0.7-2.9c0.1-1.3,0.1-2.7,0.2-4c0.1-1.8,0.1-3.8-1.5-4.9c-0.8-0.5-1.8-0.7-2.8-0.9c-2.6-0.5-5.3-0.9-8-0.6
			c-0.6,0.1-1.1,0.2-1.6,0.5c-0.4,0.3-0.6,0.6-0.8,1c-1.5,2.4-2.8,4.9-3.9,7.4c-0.8,1.9-1.5,4-1.5,6c0,0.5,0.1,1.1,0.2,1.6
			c-0.9-0.4-1.8-0.8-2.7-1.2c0,0,0,0,0,0c-0.9-1-2.3-1.3-3.6-1.7c-0.2,0-0.3-0.1-0.5-0.1c-2.8-1.2-5.6-2.4-8.5-3.6
			c2.8-1.1,6.2-0.5,9.1,0.6c1.1,0.4,2.3,0.9,3.4,0.6c-0.2-2.6-3.1-4.2-5.7-5.2c-2.1-0.8-4.4-1.6-6.7-1.7c-1.7-0.1-3.4,0.2-5,0.4
			c-2,0.3-4,0.6-6.1,0.9c-1.6-0.6-3.2-1.2-4.8-1.7c0.8-0.7,1.5-1.5,1.9-2.4c0.8-2.2-0.8-4.4-1-6.7c-0.1-0.7,0-1.4-0.6-1.9
			c-0.3-0.3-0.7-0.4-1.1-0.5c-4.5-1-9.5-0.2-13.3,2.3c-0.7,0.4-1.3,0.9-1.7,1.6c-0.3,0.5-0.3,1.1-0.4,1.6c0,0.3-0.1,0.6-0.1,0.9
			c-1.2-0.3-2.4-0.6-3.7-1c-0.1-0.3-0.3-0.6-0.5-0.8c-0.3-0.3-0.7-0.5-1.2-0.6c-1.5-0.5-3.2-0.3-4.8-0.1c-0.1,0-0.1,0-0.2,0
			c-2.8-0.6-5.7-1.2-8.5-1.7c0.3,0,0.6-0.1,0.9-0.1c0.9-0.1,1.8-0.3,2.6-0.8c0.2-1.2,0.4-2.4,0.2-3.6c-0.4-2.6-2.7-5.1-1.6-7.5
			c0.2-0.5,0.6-1,0.6-1.5c-0.1-0.9-1.3-1.4-2.3-1.6c-2.6-0.6-5.3-1-8-1.3c-2.5-0.3-5.3-0.4-7.5,0.9c-1.9,1.1-3,3.2-3.3,5.1
			s0.1,4,0.5,5.9c0.1,0.7,0.3,1.4,0.4,2c-2.1-0.2-4.2-0.4-6.3-0.6c-1.7-1-3.3-2.1-5-3.1c-0.4-0.2-0.8-0.5-1.3-0.4
			c-0.3,0-0.5,0.1-0.8,0.3c-1.6,0.8-3.3,1.6-4.8,2.6c-1.5,0-2.9-0.1-4.4-0.1c0.2-0.1,0.3-0.3,0.4-0.4c2-1.4,4.8-1.9,6.4-3.7
			c-1.5-1.5-3.5-2.6-5.5-3.6c-2-1-4.1-2.1-6.1-3.1c-0.2-0.1-0.4-0.2-0.7-0.2c-0.2,0-0.5,0.1-0.7,0.2c-1.3,0.6-2.7,1.2-4,1.8
			c-2.5,1.1-5.3,2.5-6,5c-0.4,1.4,0.1,2.8,1,4.1c-4.9,0.2-9.9,0.4-14.8,0.8c-0.1-0.3-0.3-0.5-0.5-0.8c-0.3-0.5-0.2-1.2-0.7-1.6
			c-0.2-0.2-0.5-0.3-0.8-0.4c-4.8-1.4-9.9-2.3-15-2.7c-1.2-0.1-2.5-0.1-3.6,0.2c-3,1-4.1,4.5-2.8,7.1c0.1,0.2,0.2,0.3,0.3,0.5
			c-1,0.1-2,0.3-3,0.4c-0.2-0.1-0.4-0.1-0.5-0.1c-0.5,0-1,0.2-1.5,0.4c-2.1,0.3-4.2,0.6-6.2,0.9c0.4-0.5,0.8-1,1.2-1.4
			c1.3-1.5,2.9-2.9,4.7-4c1.8-1.1,4-2.5,3.7-4.3c-2.6-0.4-5.1-1.1-7.5-2c-1.8-0.7-3.5-1.5-5.4-2c-2.1-0.5-4.3-0.4-6.4-0.1
			c-3.7,0.6-7.4,2-9.4,4.8c-2,2.8-1.6,7,1.6,8.5c0.8,0.4,1.6,0.6,2.5,0.8c1.3,0.4,2.5,1.1,3.8,1.6c-1.3,0.2-2.7,0.5-4,0.7
			c-1.7-0.7-3.6-1.3-5.4-1.8c-0.6-0.1-1.2-0.3-1.8-0.1c-0.8,0.2-1.3,0.8-1.7,1.4c-0.5,0.8-1,1.6-1.4,2.4c-1.4,0.3-2.8,0.5-4.2,0.8
			c1.4-2.1,2.4-4.3,3-6.6c0.1-0.5,0.2-1-0.1-1.4c-0.3-0.4-0.8-0.5-1.2-0.6c-1.9-0.5-3.8-1-5.8-1c-2.5,0-5,0.7-7.4,1.4
			c-0.2,0-0.3,0.1-0.5,0.2v31.5V306h275h8.8c-0.5-0.2-0.9-0.4-1.4-0.6c0.2,0,0.4,0.1,0.5,0c0.6-0.1,1.2-0.6,1.4-1.1
			c0.3-0.5,0.3-1.1,0.3-1.7C283.9,301.5,282.7,300.5,281.5,299.6z"/>
		<path fill="#480532" d="M300.4,299.9c-0.3-0.1-0.7-0.1-1-0.1c-2,0.1-3.9,0.3-5.9,0.4c-1.3,0.1-2.7,0.2-3.9,0.6
			c-1.2,0.4-2.4,1.2-2.8,2.4c-0.4,0.9-0.2,1.9,0.3,2.7h15.2c-0.2-1.8-0.2-3.6-1-5.2C301.1,300.5,300.8,300.1,300.4,299.9z"/>
		<path fill="#480532" d="M10.4,243.9c1.4,0.4,2.8,0.9,4.2,0.8c2.7-0.3,4.4-2.8,5.5-5c-0.1-0.5-0.6-0.9-1.2-1c-0.3-0.1-0.7,0-1,0
			c-6,0.8-12,1.7-18,2.6v2.5C3.5,243.2,7.1,243,10.4,243.9z"/>
	</g>
</g>
<g id="couple">
	<path fill="#480532" d="M113.5,166.7c0,0,9,1,10.4,3.1c2.9,4.6,2.1,23.1,2.1,23.1c-2.6,8.4-6.3,14.7-6.3,14.7l-0.1,7.4l-2.2,41.4
		l-1.7-0.3L100.9,230l-0.7-18.4c-0.1-1,1-30.5,1-30.5s-1.6,6.3-2.8,8.5c-1.2,2.2-9.6,12.3-9.6,12.3l-2.2-3.4l8.3-10.7
		c0,0,1.7-13.8,2.1-15.5c0.4-1.6-0.7-3.5,9.6-5.5l-0.4-2.1l7.7-0.1L113.5,166.7z M118.6,200.6c1.3-1.7,3.1-9.2,3.1-9.2
		c0-5.8-2.1-11.1-2.1-11.1L118.6,200.6z"/>
	<path fill="#A43D3B" d="M68,182.5c0,0-4.7-2.8-5-11.8c0-11.9,11.1-17.8,15.9-17.7c4.7,0.1,5.9,3.5,6.2,9c0.3,5.5-1.2,7.9-1.2,7.9
		l-4,0.4c0,0-0.9-1.4-0.5-2.8c0,0,3-1.3,3.2-4.1c0.2-2.7-0.1-4-0.1-4l-8.1,0.1c0,0-0.3,7,2.7,8c0,0,0.3,2.4,0.1,2.9
		c0,0-5.8,0.6-6.7,1.2C68.7,173,68,182.5,68,182.5z"/>
	<path fill="#FFFFFF" d="M103.8,228.8c-7-17.6-18.2-33.5-18.2-33.5s-0.9-3.8-0.4-11.7c0,0,3.9-3.4,1-8c0,0,0-0.5,0.1-1.1
		c0,0-7.8-0.5-10.8,1.7c-2.9,2.2-3.2,7.2-3.2,7.2c0-0.1,0-0.1-0.1-0.1c1.2,2.5,3.4,8.1,2.3,14.2c-1.4,8.3-19,29.9-19,29.9
		s-33.4,44.4-33.4,46.9c0,7.1,76.7,21.1,109-1.6C135.2,269.5,114.6,254.8,103.8,228.8z"/>
	<path fill="#F3CFC9" d="M87.6,196.4c0-0.2-0.1-0.5-0.1-0.8c-0.4-3.2-0.9-8.5-0.6-14.8c-0.6,1.7-1.8,2.7-1.8,2.7
		c-0.5,7.5,0.3,11.3,0.4,11.6c-4.3-0.8-11.3-1.5-12.4-2.6c-1.6-1.6-1.6-10.7-1.6-10.7s0.3,0.5,0.8,1.5c0,0,0.3-5,3.2-7.2
		c2.9-2.2,10.8-1.7,10.8-1.7c0.1-1.6,0.1-4.2-0.6-4.4c-1-0.3-1.8-0.1-1.8-0.1l-0.5,0l-3.5,0.3c0,0-0.9-1.4-0.5-2.8
		c0,0,3-1.3,3.2-4.1c0.2-2.7-0.1-4-0.1-4l-8.1,0.1c0,0-0.3,7,2.7,8c0,0,0.3,2.4,0.1,2.9c0,0-5.8,0.6-6.7,1.2
		c-1.4,1-2.1,7.9-2.3,10.1c0,0,0.2,9.3,2.7,12.7c0,0,2,2.8,15.6,1.9c0.4,0.6,1,1.5,1.7,2.5C88.1,199,87.9,198,87.6,196.4z"/>
	<polygon fill="#FFFFFF" points="107.1,165.2 113.2,165.2 109.9,185.2 	"/>
	<path fill="#E5BAB5" d="M107.6,163.5c-4.3-0.2-4.2-8.7-4.2-8.7s-0.3,0.3-0.4-1c-0.3-2.4,1.4-6.9,6.6-6.9s6.1,2.9,6,8
		c-0.1,5.2-3.3,6.6-3.3,6.6l-0.2,5.6h-3.7C108.4,167.1,108.8,164.1,107.6,163.5z"/>
	<path fill="#480532" d="M109.5,146.9c-5.2,0-6.8,4.5-6.6,6.9c0.1,1.2,0.4,1,0.4,1s3.3,0.2,7.9-2.7c0,0,0.7,2.3,1.9,2.6
		c0,0,0.3,2.8-0.4,4c-0.7,1.2-2.4,2-3,2.3s-1,0.2-2-0.4c-1.4-0.8-2.9,0-2.9,0l-0.6,0.6c0,0.2,0.4,0.7,0.7,0.5c0,0,1.6-0.9,0.9-0.5
		c-0.8,0.3,1.3-0.3,1.3,0c0,0.1-0.1,0.6-1,0.7c-0.9,0.1-1-0.4-1.2-0.2c-0.3,0.3,0.3,1.4,0.3,1.5c0.5,0.4,1.2,0.7,2,0.6
		c1.8-0.1,6.9-3.5,6.9-3.5l-0.1-4.3c0-0.1,0-0.4,0-1c0-1.9,1.4,0,1.4,0C115.6,149.8,114.6,146.9,109.5,146.9z"/>
	<g>
		<polygon fill="#480532" points="107.9,166.1 107.9,168 110.1,167.1 		"/>
		<polyline fill="#480532" points="110.1,167.1 112.5,166.1 112.5,168 		"/>
	</g>
	<circle fill="#480532" cx="110.1" cy="168.8" r="0.3"/>
	<circle fill="#480532" cx="110.1" cy="171.3" r="0.3"/>
	<circle fill="#480532" cx="110.1" cy="173.7" r="0.3"/>
	<circle fill="#480532" cx="110.1" cy="176.1" r="0.3"/>
	<path opacity="0.37" fill="#FFFFFF" d="M71.5,155.6l0.2,25.6c0,0,8.4,12.2,0.2,23.5c0,4.4,0.6,82.5,0.6,82.5s-53.8-3.2-53.3-13.3
		c0.5-10.2,26-75.7,45-112.7C64.2,161.2,67.2,155.7,71.5,155.6z"/>
</g>
</svg>
