<?xml version="1.0" encoding="utf-8"?>
<!-- Generator: Adobe Illustrator 18.0.0, SVG Export Plug-In . SVG Version: 6.00 Build 0)  -->
<!DOCTYPE svg PUBLIC "-//W3C//DTD SVG 1.1//EN" "http://www.w3.org/Graphics/SVG/1.1/DTD/svg11.dtd">
<svg version="1.1" id="city" xmlns="http://www.w3.org/2000/svg" xmlns:xlink="http://www.w3.org/1999/xlink" x="0px" y="0px"
	 viewBox="0 0 396 306" enable-background="new 0 0 396 306" xml:space="preserve">
<linearGradient id="SVGID_1_" gradientUnits="userSpaceOnUse" x1="42.1662" y1="114.428" x2="42.1538" y2="121.9701">
	<stop  offset="0" style="stop-color:#D56859"/>
	<stop  offset="3.038681e-02" style="stop-color:#D76E60"/>
	<stop  offset="0.2552" style="stop-color:#E3948D"/>
	<stop  offset="0.4709" style="stop-color:#EDB3B1"/>
	<stop  offset="0.6726" style="stop-color:#F3C8CA"/>
	<stop  offset="0.8546" style="stop-color:#F8D5DA"/>
	<stop  offset="1" style="stop-color:#F9DADF"/>
</linearGradient>
<path fill="url(#SVGID_1_)" d="M42.2,116.8c0,0.4,0,0.8,0,1.3c0,0.1,0,0.3,0,0.4c0,0.7,0,1.4,0,2"/>
<g>
	<linearGradient id="SVGID_2_" gradientUnits="userSpaceOnUse" x1="39.7677" y1="0.2525" x2="39.2677" y2="304.7525">
		<stop  offset="0" style="stop-color:#D56859"/>
		<stop  offset="1.039600e-02" style="stop-color:#D66B5C"/>
		<stop  offset="0.1603" style="stop-color:#E18D84"/>
		<stop  offset="0.315" style="stop-color:#E9A9A5"/>
		<stop  offset="0.4731" style="stop-color:#F0BEBE"/>
		<stop  offset="0.6362" style="stop-color:#F5CED1"/>
		<stop  offset="0.8074" style="stop-color:#F8D7DB"/>
		<stop  offset="1" style="stop-color:#F9DADF"/>
	</linearGradient>
	<path opacity="0.83" fill="url(#SVGID_2_)" d="M37.9,116.7c-0.3,0-0.6,0.1-0.9,0.2v18l5.2-0.1c0,0,0-0.3,0-0.8c0-1.1,0-3.3,0-6
		c0-0.3,0-0.5,0-0.8c0-0.8,0-1.6,0-2.5c0-1.4,0-2.8,0-4.2c0-0.7,0-1.4,0-2c0-0.1,0-0.3,0-0.4c0-0.4,0-0.8,0-1.3c0-0.1,0-0.1,0-0.2
		H37.9z"/>
	<linearGradient id="SVGID_3_" gradientUnits="userSpaceOnUse" x1="79.5741" y1="0.3179" x2="79.0741" y2="304.8178">
		<stop  offset="0" style="stop-color:#D56859"/>
		<stop  offset="1.039600e-02" style="stop-color:#D66B5C"/>
		<stop  offset="0.1603" style="stop-color:#E18D84"/>
		<stop  offset="0.315" style="stop-color:#E9A9A5"/>
		<stop  offset="0.4731" style="stop-color:#F0BEBE"/>
		<stop  offset="0.6362" style="stop-color:#F5CED1"/>
		<stop  offset="0.8074" style="stop-color:#F8D7DB"/>
		<stop  offset="1" style="stop-color:#F9DADF"/>
	</linearGradient>
	<polygon opacity="0.83" fill="url(#SVGID_3_)" points="75.2,112.2 75.2,134.4 78,134.4 78,126 80.4,126 80.4,124.3 83.5,124.3 
		83.5,112.2 	"/>
	<linearGradient id="SVGID_4_" gradientUnits="userSpaceOnUse" x1="16.1701" y1="0.2137" x2="15.6701" y2="304.7137">
		<stop  offset="0" style="stop-color:#D56859"/>
		<stop  offset="1.039600e-02" style="stop-color:#D66B5C"/>
		<stop  offset="0.1603" style="stop-color:#E18D84"/>
		<stop  offset="0.315" style="stop-color:#E9A9A5"/>
		<stop  offset="0.4731" style="stop-color:#F0BEBE"/>
		<stop  offset="0.6362" style="stop-color:#F5CED1"/>
		<stop  offset="0.8074" style="stop-color:#F8D7DB"/>
		<stop  offset="1" style="stop-color:#F9DADF"/>
	</linearGradient>
	<path opacity="0.83" fill="url(#SVGID_4_)" d="M18.7,107.5h-5.4v19.8h2.9c0.4,0,0.8,0.3,0.8,0.8v7l1.8,0V107.5z"/>
	<linearGradient id="SVGID_5_" gradientUnits="userSpaceOnUse" x1="4.7252" y1="0.195" x2="4.2252" y2="304.6949">
		<stop  offset="0" style="stop-color:#D56859"/>
		<stop  offset="1.039600e-02" style="stop-color:#D66B5C"/>
		<stop  offset="0.1603" style="stop-color:#E18D84"/>
		<stop  offset="0.315" style="stop-color:#E9A9A5"/>
		<stop  offset="0.4731" style="stop-color:#F0BEBE"/>
		<stop  offset="0.6362" style="stop-color:#F5CED1"/>
		<stop  offset="0.8074" style="stop-color:#F8D7DB"/>
		<stop  offset="1" style="stop-color:#F9DADF"/>
	</linearGradient>
	<polygon opacity="0.83" fill="url(#SVGID_5_)" points="4.7,135.3 4.7,129.8 7.2,129.8 7.2,135.3 9,135.3 9,120.2 0,120.2 0,135.3 	
		"/>
	<linearGradient id="SVGID_6_" gradientUnits="userSpaceOnUse" x1="56.6299" y1="0.2802" x2="56.1299" y2="304.7802">
		<stop  offset="0" style="stop-color:#D56859"/>
		<stop  offset="1.039600e-02" style="stop-color:#D66B5C"/>
		<stop  offset="0.1603" style="stop-color:#E18D84"/>
		<stop  offset="0.315" style="stop-color:#E9A9A5"/>
		<stop  offset="0.4731" style="stop-color:#F0BEBE"/>
		<stop  offset="0.6362" style="stop-color:#F5CED1"/>
		<stop  offset="0.8074" style="stop-color:#F8D7DB"/>
		<stop  offset="1" style="stop-color:#F9DADF"/>
	</linearGradient>
	<path opacity="0.83" fill="url(#SVGID_6_)" d="M54.6,124c0,0.1,0,0.2,0,0.3c0,0.3,0,0.6,0,0.9c0,0,0,0.1,0,0.1c0,1,0,2,0,2.9
		c0,0.1,0,0.3,0,0.4c0,0.2,0,0.4,0,0.6c0,0.5,0,0.9,0,1.3c0,0.1,0,0.2,0,0.3c0,0.1,0,0.2,0,0.3c0,0.4,0,0.7,0,1.1c0,0.7,0,1.3,0,1.7
		c0,0.2,0,0.3,0,0.4c0,0,0,0,0,0c0,0.2,0,0.2,0,0.2l3.5,0V123h-3.6C54.6,123.3,54.6,123.6,54.6,124z"/>
	<linearGradient id="SVGID_7_" gradientUnits="userSpaceOnUse" x1="69.403" y1="0.3012" x2="68.903" y2="304.8011">
		<stop  offset="0" style="stop-color:#D56859"/>
		<stop  offset="1.039600e-02" style="stop-color:#D66B5C"/>
		<stop  offset="0.1603" style="stop-color:#E18D84"/>
		<stop  offset="0.315" style="stop-color:#E9A9A5"/>
		<stop  offset="0.4731" style="stop-color:#F0BEBE"/>
		<stop  offset="0.6362" style="stop-color:#F5CED1"/>
		<stop  offset="0.8074" style="stop-color:#F8D7DB"/>
		<stop  offset="1" style="stop-color:#F9DADF"/>
	</linearGradient>
	<path opacity="0.83" fill="url(#SVGID_7_)" d="M70,123h-3.8v11.6l4.5-0.1v-9.8h1.5C71.9,123.7,71,123,70,123z"/>
	<linearGradient id="SVGID_8_" gradientUnits="userSpaceOnUse" x1="89.3674" y1="0.3339" x2="88.8674" y2="304.8339">
		<stop  offset="0" style="stop-color:#D56859"/>
		<stop  offset="1.039600e-02" style="stop-color:#D66B5C"/>
		<stop  offset="0.1603" style="stop-color:#E18D84"/>
		<stop  offset="0.315" style="stop-color:#E9A9A5"/>
		<stop  offset="0.4731" style="stop-color:#F0BEBE"/>
		<stop  offset="0.6362" style="stop-color:#F5CED1"/>
		<stop  offset="0.8074" style="stop-color:#F8D7DB"/>
		<stop  offset="1" style="stop-color:#F9DADF"/>
	</linearGradient>
	<polygon opacity="0.83" fill="url(#SVGID_8_)" points="86.2,124.3 86.8,124.3 86.8,126 90.3,126 90.3,134.2 92.1,134.2 92.1,120.7 
		86.2,120.7 	"/>
	<linearGradient id="SVGID_9_" gradientUnits="userSpaceOnUse" x1="102.5254" y1="0.3555" x2="102.0254" y2="304.8555">
		<stop  offset="0" style="stop-color:#D56859"/>
		<stop  offset="1.039600e-02" style="stop-color:#D66B5C"/>
		<stop  offset="0.1603" style="stop-color:#E18D84"/>
		<stop  offset="0.315" style="stop-color:#E9A9A5"/>
		<stop  offset="0.4731" style="stop-color:#F0BEBE"/>
		<stop  offset="0.6362" style="stop-color:#F5CED1"/>
		<stop  offset="0.8074" style="stop-color:#F8D7DB"/>
		<stop  offset="1" style="stop-color:#F9DADF"/>
	</linearGradient>
	<polygon opacity="0.83" fill="url(#SVGID_9_)" points="98.7,122.4 98.8,133.7 104.2,133.7 102.7,126.1 106,126.1 106,122.4 	"/>
	<linearGradient id="SVGID_10_" gradientUnits="userSpaceOnUse" x1="111.4965" y1="0.3703" x2="110.9965" y2="304.8703">
		<stop  offset="0" style="stop-color:#D56859"/>
		<stop  offset="1.039600e-02" style="stop-color:#D66B5C"/>
		<stop  offset="0.1603" style="stop-color:#E18D84"/>
		<stop  offset="0.315" style="stop-color:#E9A9A5"/>
		<stop  offset="0.4731" style="stop-color:#F0BEBE"/>
		<stop  offset="0.6362" style="stop-color:#F5CED1"/>
		<stop  offset="0.8074" style="stop-color:#F8D7DB"/>
		<stop  offset="1" style="stop-color:#F9DADF"/>
	</linearGradient>
	<rect x="109.2" y="119.6" opacity="0.83" fill="url(#SVGID_10_)" width="4.3" height="6.5"/>
</g>
<g>
	<linearGradient id="SVGID_11_" gradientUnits="userSpaceOnUse" x1="256.7677" y1="0.2525" x2="256.2677" y2="304.7525">
		<stop  offset="0" style="stop-color:#D56859"/>
		<stop  offset="1.039600e-02" style="stop-color:#D66B5C"/>
		<stop  offset="0.1603" style="stop-color:#E18D84"/>
		<stop  offset="0.315" style="stop-color:#E9A9A5"/>
		<stop  offset="0.4731" style="stop-color:#F0BEBE"/>
		<stop  offset="0.6362" style="stop-color:#F5CED1"/>
		<stop  offset="0.8074" style="stop-color:#F8D7DB"/>
		<stop  offset="1" style="stop-color:#F9DADF"/>
	</linearGradient>
	<path opacity="0.83" fill="url(#SVGID_11_)" d="M254.9,116.7c-0.3,0-0.6,0.1-0.9,0.2v18l5.2-0.1c0,0,0-0.3,0-0.8c0-1.1,0-3.3,0-6
		c0-0.3,0-0.5,0-0.8c0-0.8,0-1.6,0-2.5c0-1.4,0-2.8,0-4.2c0-0.7,0-1.4,0-2c0-0.1,0-0.3,0-0.4c0-0.4,0-0.8,0-1.3c0-0.1,0-0.1,0-0.2
		H254.9z"/>
	
		<linearGradient id="SVGID_12_" gradientUnits="userSpaceOnUse" x1="301.5741" y1="0.3179" x2="301.0741" y2="304.8179" gradientTransform="matrix(-1 0 0 1 602.761 0)">
		<stop  offset="0" style="stop-color:#D56859"/>
		<stop  offset="1.039600e-02" style="stop-color:#D66B5C"/>
		<stop  offset="0.1603" style="stop-color:#E18D84"/>
		<stop  offset="0.315" style="stop-color:#E9A9A5"/>
		<stop  offset="0.4731" style="stop-color:#F0BEBE"/>
		<stop  offset="0.6362" style="stop-color:#F5CED1"/>
		<stop  offset="0.8074" style="stop-color:#F8D7DB"/>
		<stop  offset="1" style="stop-color:#F9DADF"/>
	</linearGradient>
	<polygon opacity="0.83" fill="url(#SVGID_12_)" points="305.5,112.2 305.5,134.4 302.8,134.4 302.8,126 300.4,126 300.4,124.3 
		297.2,124.3 297.2,112.2 	"/>
	<linearGradient id="SVGID_13_" gradientUnits="userSpaceOnUse" x1="238.1701" y1="0.2137" x2="237.6701" y2="304.7137">
		<stop  offset="0" style="stop-color:#D56859"/>
		<stop  offset="1.039600e-02" style="stop-color:#D66B5C"/>
		<stop  offset="0.1603" style="stop-color:#E18D84"/>
		<stop  offset="0.315" style="stop-color:#E9A9A5"/>
		<stop  offset="0.4731" style="stop-color:#F0BEBE"/>
		<stop  offset="0.6362" style="stop-color:#F5CED1"/>
		<stop  offset="0.8074" style="stop-color:#F8D7DB"/>
		<stop  offset="1" style="stop-color:#F9DADF"/>
	</linearGradient>
	<path opacity="0.83" fill="url(#SVGID_13_)" d="M240.7,107.5h-5.4v19.8h2.9c0.4,0,0.8,0.3,0.8,0.8v7l1.8,0V107.5z"/>
	<linearGradient id="SVGID_14_" gradientUnits="userSpaceOnUse" x1="226.7252" y1="0.195" x2="226.2252" y2="304.6949">
		<stop  offset="0" style="stop-color:#D56859"/>
		<stop  offset="1.039600e-02" style="stop-color:#D66B5C"/>
		<stop  offset="0.1603" style="stop-color:#E18D84"/>
		<stop  offset="0.315" style="stop-color:#E9A9A5"/>
		<stop  offset="0.4731" style="stop-color:#F0BEBE"/>
		<stop  offset="0.6362" style="stop-color:#F5CED1"/>
		<stop  offset="0.8074" style="stop-color:#F8D7DB"/>
		<stop  offset="1" style="stop-color:#F9DADF"/>
	</linearGradient>
	<polygon opacity="0.83" fill="url(#SVGID_14_)" points="226.7,135.3 226.7,129.8 229.2,129.8 229.2,135.3 231,135.3 231,120.2 
		222,120.2 222,135.3 	"/>
	<linearGradient id="SVGID_15_" gradientUnits="userSpaceOnUse" x1="278.6299" y1="0.2802" x2="278.1299" y2="304.7802">
		<stop  offset="0" style="stop-color:#D56859"/>
		<stop  offset="1.039600e-02" style="stop-color:#D66B5C"/>
		<stop  offset="0.1603" style="stop-color:#E18D84"/>
		<stop  offset="0.315" style="stop-color:#E9A9A5"/>
		<stop  offset="0.4731" style="stop-color:#F0BEBE"/>
		<stop  offset="0.6362" style="stop-color:#F5CED1"/>
		<stop  offset="0.8074" style="stop-color:#F8D7DB"/>
		<stop  offset="1" style="stop-color:#F9DADF"/>
	</linearGradient>
	<path opacity="0.83" fill="url(#SVGID_15_)" d="M276.6,124c0,0.1,0,0.2,0,0.3c0,0.3,0,0.6,0,0.9c0,0,0,0.1,0,0.1c0,1,0,2,0,2.9
		c0,0.1,0,0.3,0,0.4c0,0.2,0,0.4,0,0.6c0,0.5,0,0.9,0,1.3c0,0.1,0,0.2,0,0.3c0,0.1,0,0.2,0,0.3c0,0.4,0,0.7,0,1.1c0,0.7,0,1.3,0,1.7
		c0,0.2,0,0.3,0,0.4c0,0,0,0,0,0c0,0.2,0,0.2,0,0.2l3.5,0V123h-3.6C276.6,123.3,276.6,123.6,276.6,124z"/>
	<linearGradient id="SVGID_16_" gradientUnits="userSpaceOnUse" x1="291.403" y1="0.3012" x2="290.903" y2="304.8011">
		<stop  offset="0" style="stop-color:#D56859"/>
		<stop  offset="1.039600e-02" style="stop-color:#D66B5C"/>
		<stop  offset="0.1603" style="stop-color:#E18D84"/>
		<stop  offset="0.315" style="stop-color:#E9A9A5"/>
		<stop  offset="0.4731" style="stop-color:#F0BEBE"/>
		<stop  offset="0.6362" style="stop-color:#F5CED1"/>
		<stop  offset="0.8074" style="stop-color:#F8D7DB"/>
		<stop  offset="1" style="stop-color:#F9DADF"/>
	</linearGradient>
	<path opacity="0.83" fill="url(#SVGID_16_)" d="M292,123h-3.8v11.6l4.5-0.1v-9.8h1.5C293.9,123.7,293,123,292,123z"/>
	<linearGradient id="SVGID_17_" gradientUnits="userSpaceOnUse" x1="311.3674" y1="0.3339" x2="310.8674" y2="304.8339">
		<stop  offset="0" style="stop-color:#D56859"/>
		<stop  offset="1.039600e-02" style="stop-color:#D66B5C"/>
		<stop  offset="0.1603" style="stop-color:#E18D84"/>
		<stop  offset="0.315" style="stop-color:#E9A9A5"/>
		<stop  offset="0.4731" style="stop-color:#F0BEBE"/>
		<stop  offset="0.6362" style="stop-color:#F5CED1"/>
		<stop  offset="0.8074" style="stop-color:#F8D7DB"/>
		<stop  offset="1" style="stop-color:#F9DADF"/>
	</linearGradient>
	<polygon opacity="0.83" fill="url(#SVGID_17_)" points="308.2,124.3 308.8,124.3 308.8,126 312.3,126 312.3,134.2 314.1,134.2 
		314.1,120.7 308.2,120.7 	"/>
	<linearGradient id="SVGID_18_" gradientUnits="userSpaceOnUse" x1="324.5254" y1="0.3555" x2="324.0254" y2="304.8555">
		<stop  offset="0" style="stop-color:#D56859"/>
		<stop  offset="1.039600e-02" style="stop-color:#D66B5C"/>
		<stop  offset="0.1603" style="stop-color:#E18D84"/>
		<stop  offset="0.315" style="stop-color:#E9A9A5"/>
		<stop  offset="0.4731" style="stop-color:#F0BEBE"/>
		<stop  offset="0.6362" style="stop-color:#F5CED1"/>
		<stop  offset="0.8074" style="stop-color:#F8D7DB"/>
		<stop  offset="1" style="stop-color:#F9DADF"/>
	</linearGradient>
	<polygon opacity="0.83" fill="url(#SVGID_18_)" points="320.7,122.4 320.8,133.7 326.2,133.7 324.7,126.1 328,126.1 328,122.4 	"/>
	<linearGradient id="SVGID_19_" gradientUnits="userSpaceOnUse" x1="333.4965" y1="0.3703" x2="332.9965" y2="304.8703">
		<stop  offset="0" style="stop-color:#D56859"/>
		<stop  offset="1.039600e-02" style="stop-color:#D66B5C"/>
		<stop  offset="0.1603" style="stop-color:#E18D84"/>
		<stop  offset="0.315" style="stop-color:#E9A9A5"/>
		<stop  offset="0.4731" style="stop-color:#F0BEBE"/>
		<stop  offset="0.6362" style="stop-color:#F5CED1"/>
		<stop  offset="0.8074" style="stop-color:#F8D7DB"/>
		<stop  offset="1" style="stop-color:#F9DADF"/>
	</linearGradient>
	<rect x="331.2" y="119.6" opacity="0.83" fill="url(#SVGID_19_)" width="4.3" height="6.5"/>
</g>
<linearGradient id="SVGID_20_" gradientUnits="userSpaceOnUse" x1="198.4239" y1="-37.4754" x2="197.7284" y2="386.0859">
	<stop  offset="0.2918" style="stop-color:#D56859"/>
	<stop  offset="0.3095" style="stop-color:#D97569"/>
	<stop  offset="0.3515" style="stop-color:#E29088"/>
	<stop  offset="0.3991" style="stop-color:#E9A7A3"/>
	<stop  offset="0.4529" style="stop-color:#EFBABA"/>
	<stop  offset="0.5157" style="stop-color:#F3C9CA"/>
	<stop  offset="0.5932" style="stop-color:#F7D3D6"/>
	<stop  offset="0.7017" style="stop-color:#F8D8DD"/>
	<stop  offset="1" style="stop-color:#F9DADF"/>
</linearGradient>
<path fill="url(#SVGID_20_)" d="M54.7,134.7l3.5,0V123v-5.7h8v5.7v11.6l4.5-0.1v-9.8h1.5h0.7v9.8l2.3,0l2.7,0V126h2.4v-1.8h3.2h2.6
	h0.7v1.8h3.5v8.2l1.8,0v-13.5v-3.2h6.5l0.2,16.1h5.4l-1.5-7.6h3.3h3.2h4.3h8l-7.1,7.6l9.6,0.2v-4.9h8.9v4.8l71.4,0v-6h20.3v6l4.3,0
	v-22.5h6.8v22.5l8.5,0v-22.5h6.8v22.5l8.4,0v-13.2h15.6v13.2l7.7,0v-9.4H302v9.4l5.2,0v-13.2h10.4v13.2l1.4,0v-17.6h10.4v17.6l3.4,0
	v-10.4h32.1v10.4l31.2,0V306H0V135.3l4.7,0v-5.5h2.5v5.5l1.8,0l0.2,0v-7.1c0-0.4,0.3-0.8,0.8-0.8h3.2h2.9c0.4,0,0.8,0.3,0.8,0.8v7
	l7.6-0.1v-30H37v11.8v18l5.2-0.1l0-24.9c-0.1-4.2-0.1-10.6,5.9-9.4v-3.2c3.7-0.1,6.6,2.5,6.6,6C54.7,104.9,54.7,134.7,54.7,134.7z"
	/>
</svg>
