<?xml version="1.0" encoding="utf-8"?>
<!-- Generator: Adobe Illustrator 18.0.0, SVG Export Plug-In . SVG Version: 6.00 Build 0)  -->
<!DOCTYPE svg PUBLIC "-//W3C//DTD SVG 1.1//EN" "http://www.w3.org/Graphics/SVG/1.1/DTD/svg11.dtd">
<svg version="1.1" id="Layer_1" xmlns="http://www.w3.org/2000/svg" xmlns:xlink="http://www.w3.org/1999/xlink" x="0px" y="0px"
	 viewBox="0 101 960 359" enable-background="new 0 101 960 359" xml:space="preserve">
<path fill="#FFE9DF" d="M917.8,364.3H747.6c3.2-9.7,4.9-19.5,4.9-30.8c0-51.9-34.1-95.7-82.7-110.3
	c-21.1-64.9-84.3-113.5-157.3-113.5c-81.1,0-149.2,58.4-162.2,136.2c-19.5-16.2-43.8-24.3-71.4-24.3c-63.2,0-115.1,51.9-115.1,115.1
	c0,9.7,1.6,21.1,4.9,30.8H42.2C19.5,367.6,0,387,0,409.7s19.5,40.5,42.2,40.5h875.7c22.7,0,42.2-19.5,42.2-42.2
	S942.2,364.3,917.8,364.3z"/>
</svg>
