<?xml version="1.0" encoding="utf-8"?>
<!-- Generator: Adobe Illustrator 18.0.0, SVG Export Plug-In . SVG Version: 6.00 Build 0)  -->
<!DOCTYPE svg PUBLIC "-//W3C//DTD SVG 1.1//EN" "http://www.w3.org/Graphics/SVG/1.1/DTD/svg11.dtd">
<svg version="1.1" id="Arrow_1_" xmlns="http://www.w3.org/2000/svg" xmlns:xlink="http://www.w3.org/1999/xlink" x="0px" y="0px"
	 viewBox="121 0 260 500" enable-background="new 121 0 260 500" xml:space="preserve">
<g>
	<path fill="#5C2E50" d="M230.7,166.6c16,9.4,29.1,22.6,38.9,38.9c12.4,20.8,16.4,41.6,17.6,51c0.3-1.2,0.8-2.5,1.2-4
		c3.1-18.1,4.2-35.9,3-53.4c-0.9-12.3-2.8-24.7-5.7-36.7c-0.8-1.5-10.2-20.7-28.7-38.4c-17.4-16.7-46.6-35.2-87.1-30.2
		c-2.7,17.6-7.6,33.6-12.1,54.4C186.2,148.7,210.7,154.8,230.7,166.6z"/>
	<path fill="#5C2E50" d="M258.3,122.8c12.4,11.9,20.9,24.5,25.3,32.1C277.3,133,267.4,111.5,254,91c-1.8-2.9-3.8-5.7-5.7-8.4
		c-1.6-1.7-39.4-40.3-77.1-35.9c1.5,18.1,0.8,32.2-1.1,45.4C211,87.1,240.5,106,258.3,122.8z"/>
	<path fill="#5C2E50" d="M287.4,162.1c3,12.1,5,24.4,5.8,37c1,13.8,0.5,27.8-1.2,42c2.3-6.8,5.1-14.7,8.5-22.7
		c12.2-28.4,25.5-45.2,39.8-50c-6.2-16.5-14.7-34.2-26.2-52.8c-4.6-7.5-9.5-14.5-14.5-21.1C281.3,104.2,287.2,160.6,287.4,162.1z"/>
	<path fill="#5C2E50" d="M290.2,253c-4.1,23.1-11.7,46.7-22.8,70.5c5.1-7.5,12-17.1,20.2-26.9c28-33.5,50-44.5,64-47.8
		c2.7-22.7,0-49.1-10.6-78.8C314.3,178.8,296.3,231.7,290.2,253z"/>
	<path fill="#5C2E50" d="M164.5,2.6c3.2,16.3,5.3,30.1,6.4,42.2c29.1-3.5,58,18.1,71.1,29.5C211.1,34,174.9,9.3,164.5,2.6z"/>
	<path fill="#5C2E50" d="M249.7,81.6c1.9,2.7,3.8,5.5,5.7,8.3c13.2,20.1,22.9,41,29.3,62.5c-1-17.2-0.9-51.3,13.7-59.5
		c-17.2-22.2-36.2-39.4-54.4-52.7C240.5,49,249.1,79.3,249.7,81.6z"/>
	<path fill="#5C2E50" d="M259.7,338.9C259.7,338.9,259.6,338.9,259.7,338.9c-1.3,2.4-2.6,4.8-3.9,7.1c5.3-0.2,10.5-0.9,15.6-1.9
		c35.1-7.2,72.7-40,79.9-93.3C305,262,260.1,338.1,259.7,338.9z"/>
	<path fill="#5C2E50" d="M242.7,278.1c-18.2-24-50.1-38.3-95-42.5c0,78.3,62.6,101.2,91.7,107.7c-64.1,92.6-20,156.7-20,156.7
		s18.9,1.7,23.1-17.5c-43.5-45.6-1.3-117.5,11.4-136.8h0.1c0.1-0.2,3.7-6.7,4.1-7.6C258.4,335.5,263,305,242.7,278.1z"/>
	<path fill="#5C2E50" d="M244.1,276.9c16.7,21.9,17,46.2,16.2,56.5c11.9-23.2,20.4-46.4,25.6-69.2l-0.1-2.5c0-0.3-1.4-28-17.9-55.4
		c-9.6-16.1-22.5-29-38.3-38.3c-19.7-11.6-43.9-17.6-72.1-17.9v-1.5c-4.1,18.7-7.9,41.3-9.7,72.7c-0.2,4.2-0.3,8.3-0.3,12.2
		C193.2,238,225.6,252.5,244.1,276.9z"/>
	<path fill="#5C2E50" d="M246.7,77.3c-2.5-9.6-7.4-30.6-4.2-37.8l1.2,0.5C201.6,9.5,164.1,0,164.1,0v0.1
		C172.3,5.2,213.2,31.9,246.7,77.3z"/>
</g>
</svg>
