<?xml version="1.0" encoding="utf-8"?>
<!-- Generator: Adobe Illustrator 18.0.0, SVG Export Plug-In . SVG Version: 6.00 Build 0)  -->
<!DOCTYPE svg PUBLIC "-//W3C//DTD SVG 1.1//EN" "http://www.w3.org/Graphics/SVG/1.1/DTD/svg11.dtd">
<svg version="1.1" id="mountain1" xmlns="http://www.w3.org/2000/svg" xmlns:xlink="http://www.w3.org/1999/xlink" x="0px" y="0px"
	 viewBox="0 0 396 306" enable-background="new 0 0 396 306" xml:space="preserve">
<linearGradient id="SVGID_1_" gradientUnits="userSpaceOnUse" x1="198.3698" y1="0.5129" x2="197.8698" y2="305.0129">
	<stop  offset="7.714844e-02" style="stop-color:#D56859"/>
	<stop  offset="0.4244" style="stop-color:#E49790"/>
	<stop  offset="0.8125" style="stop-color:#F3C7C9"/>
	<stop  offset="1" style="stop-color:#F9DADF"/>
</linearGradient>
<path fill="url(#SVGID_1_)" d="M396,305.5v-161l-16.3,0.3l-33.2-13.1l-8.5,7.2l-41.5-29.9l-30.6,28.2l-5.8-4.3l-30,13.3L203.5,130
	l-6.6,8.1l-5.3-1.6l-9.4,8.4l-7.8-4.2l-6.4,3.8l-10,5.9l-6.8-4.2l-10,4.9l-10-4.4l-2.5,1.1l-7.6-6.6l-7.7,5l-8,2.4l-11.9-9.5
	l-12.2,7.1l-7.4-7l-8.5,7.3l-2.6-1.2l-6.7,4.6l-7.6-12.6l-7.5,6l-2.2-0.6l-13.4,9.7L8.7,139.6l-7.4,5.8c0,0-0.5,0.2-1.3,0.6v159.5
	H396z"/>
</svg>
