<?xml version="1.0" encoding="utf-8"?>
<!-- Generator: Adobe Illustrator 18.0.0, SVG Export Plug-In . SVG Version: 6.00 Build 0)  -->
<!DOCTYPE svg PUBLIC "-//W3C//DTD SVG 1.1//EN" "http://www.w3.org/Graphics/SVG/1.1/DTD/svg11.dtd">
<svg version="1.1" id="clouds" xmlns="http://www.w3.org/2000/svg" xmlns:xlink="http://www.w3.org/1999/xlink" x="0px" y="0px"
	 viewBox="0 0 396 306" enable-background="new 0 0 396 306" xml:space="preserve">
<g>
	<radialGradient id="SVGID_1_" cx="158.6751" cy="136.322" r="19.7493" gradientUnits="userSpaceOnUse">
		<stop  offset="0.2156" style="stop-color:#FFCBB7;stop-opacity:0"/>
		<stop  offset="0.363" style="stop-color:#FFD9CA;stop-opacity:0.3234"/>
		<stop  offset="0.5158" style="stop-color:#FFE1D5;stop-opacity:0.6586"/>
		<stop  offset="0.6714" style="stop-color:#FFE4D9"/>
	</radialGradient>
	<path fill="url(#SVGID_1_)" d="M147.5,133.7c0-6.4,5.2-11.5,11.5-11.5s11.5,5.2,11.5,11.5H147.5z"/>
</g>
<g opacity="0.4">
	<g>
		<g>
			<g>
				<g>
					<path fill="#FFFFFF" d="M185.8,133.6C185.8,133.7,185.8,133.6,185.8,133.6C185.9,133.5,185.8,133.6,185.8,133.6z"/>
					<polygon fill="#FFFFFF" points="185.9,131.5 185.9,131.6 185.8,131.3 					"/>
					<path fill="#FFFFFF" d="M185.8,129.6c-0.2,0.2,0.1,0.7,0,1l0,0.1l0.1,0.1C185.9,130.5,185.8,129.9,185.8,129.6z"/>
					<path fill="#FFFFFF" d="M186.1,128.5c-0.1,0.1-0.1-0.2,0,0.2c0,0,0,0,0,0C186.1,128.7,186.1,128.6,186.1,128.5z"/>
					<path fill="#FFFFFF" d="M186.1,128.7C186.1,128.9,186.2,128.6,186.1,128.7L186.1,128.7z"/>
					<path fill="#FFFFFF" d="M186,127.8l0.1,0.3c0-0.1,0-0.3,0.1-0.2C186.1,127.5,186.1,127.6,186,127.8z"/>
					<path fill="#FFFFFF" d="M185.8,127.6l0,0.1C185.9,127.7,185.9,127.6,185.8,127.6z"/>
					<path fill="#FFFFFF" d="M185.9,128l-0.1-0.3c0,0-0.1,0.1,0,0.1C185.8,127.8,185.9,127.9,185.9,128z"/>
					<path fill="#FFFFFF" d="M185.9,128.2c0,0.2,0,0.4-0.1,0.1C185.9,128.8,186,128.7,185.9,128.2z"/>
					<path fill="#FFFFFF" d="M185.6,129.6l0,0.2l0.1,0.2C185.6,129.8,185.7,129.5,185.6,129.6z"/>
					<path fill="#FFFFFF" d="M185.9,126.1c-0.1,0-0.1,0.1-0.2,0.2l0.1,0.2C185.8,126.3,185.8,126.1,185.9,126.1z"/>
					<path fill="#FFFFFF" d="M185.7,126.2l-0.1-0.3C185.6,126.2,185.6,126.3,185.7,126.2z"/>
					<polygon fill="#FFFFFF" points="185.6,127.6 185.8,128 185.5,127.5 					"/>
					<polygon fill="#FFFFFF" points="185.7,124.9 185.9,125.1 185.6,124.8 					"/>
					<path fill="#FFFFFF" d="M185.5,124.2c0.1,0.1,0.2-0.2,0.3-0.1c-0.1-0.2-0.2-0.3-0.3-0.5C185.5,123.7,185.5,123.9,185.5,124.2z"
						/>
					<path fill="#FFFFFF" d="M185.2,123.4c0.1,0.1,0.1,0.1,0.2,0.2C185.3,123.5,185.3,123.4,185.2,123.4z"/>
					<path fill="#FFFFFF" d="M185.5,125.5c0,0,0.1-0.1,0.1-0.3l-0.1,0.2C185.5,125.4,185.5,125.4,185.5,125.5z"/>
					<path fill="#FFFFFF" d="M185.5,125.4L185.5,125.4c0-0.1,0-0.2-0.1-0.3C185.4,125.1,185.4,125.2,185.5,125.4z"/>
					<path fill="#FFFFFF" d="M185.5,125.5L185.5,125.5C185.5,125.5,185.5,125.5,185.5,125.5z"/>
					<path fill="#FFFFFF" d="M185.5,126.8c-0.1-0.2-0.3-0.5-0.3-0.1C185.3,126.8,185.4,126.6,185.5,126.8z"/>
					<path fill="#FFFFFF" d="M185.3,125.7l0,0.3c0,0,0.1-0.1,0.1,0L185.3,125.7z"/>
					<polygon fill="#FFFFFF" points="185.2,125.6 185.3,125.7 185.3,125.6 					"/>
					<path fill="#FFFFFF" d="M185.2,124c-0.1-0.1-0.2-0.2-0.2-0.4c0,0.2,0,0.4,0.1,0.6C185.1,124.1,185.2,124.2,185.2,124z"/>
					<path fill="#FFFFFF" d="M185.3,124.7L185.3,124.7C185.3,124.6,185.3,124.7,185.3,124.7z"/>
					<polygon fill="#FFFFFF" points="184.4,122 184.4,122 184.4,122 					"/>
					<path fill="#FFFFFF" d="M185,124.2c0,0.1,0.1,0.2,0.1,0.3C185.1,124.3,185.1,124.2,185,124.2C185,124.1,185,124.1,185,124.2z"
						/>
					<path fill="#FFFFFF" d="M185,123c0,0.1,0,0.2,0,0.3C185,123.1,185,123,185,123z"/>
					<path fill="#FFFFFF" d="M185.3,124.6L185.3,124.6C185.3,124.5,185.3,124.5,185.3,124.6z"/>
					<path fill="#FFFFFF" d="M185.3,124.6c0-0.1-0.1-0.1-0.2-0.1C185.2,124.5,185.2,124.6,185.3,124.6
						C185.3,124.6,185.3,124.6,185.3,124.6z"/>
					<path fill="#FFFFFF" d="M183.1,122c0,0,0.4,0.2,0.3,0.6c0.2,0.2,0.8-0.2,1-0.6c-0.1,0-0.2,0.1-0.4-0.2c-0.1,0.2,0,0.8-0.2,0.6
						c-0.2-0.3-0.1-0.3,0-0.6c-0.1,0.1-0.2,0.1-0.4,0c-0.1,0-0.2-0.1-0.2-0.1c0,0-0.1,0-0.1,0c0,0,0,0,0,0
						C183,121.7,183.1,122,183.1,122C183.1,122.1,183.1,121.9,183.1,122z"/>
					<path fill="#FFFFFF" d="M184.6,122.6l0.1,0.1c0-0.2,0-0.3,0.1-0.5c-0.2-0.2-0.2-0.2-0.3-0.2L184.6,122.6L184.6,122.6z"/>
					<path fill="#FFFFFF" d="M184.8,123.3c-0.2,0-0.4-0.3-0.5,0c0.1,0.3,0.3,0.2,0.4,0.4C184.4,123,184.8,123.7,184.8,123.3
						c0.1,0.1,0.1,0.2,0.1,0.3c0-0.1,0-0.2,0-0.3l0,0l0,0l0,0C184.9,123.3,184.9,123.3,184.8,123.3L184.8,123.3
						C184.9,123.3,184.8,123.3,184.8,123.3C184.8,123.1,184.9,123.2,184.8,123.3c0.1,0,0.1,0,0.1,0l0,0l-0.3-0.5
						C184.6,122.8,184.7,123,184.8,123.3z"/>
					<path fill="#FFFFFF" d="M184.8,126.5C184.8,126.4,184.8,126.4,184.8,126.5C184.8,126.4,184.8,126.4,184.8,126.5z"/>
					<path fill="#FFFFFF" d="M184.8,126.2c0,0,0.1,0.1,0.1,0.2c0,0.1-0.1,0-0.1,0c0.1,0.1,0.2,0.3,0.2,0l0,0c0-0.2,0.1-0.6,0.2-0.6
						C185,125.9,184.9,126,184.8,126.2z"/>
					<path fill="#FFFFFF" d="M184.8,124.7l-0.2-0.5l-0.1,0.3l0.1,0C184.6,124.8,184.7,124.7,184.8,124.7z"/>
					<polygon fill="#FFFFFF" points="184.5,121.9 184.7,121.8 184.3,121.7 					"/>
					<polygon fill="#FFFFFF" points="184.2,121.2 184.4,121.2 184.2,121.1 					"/>
					<path fill="#FFFFFF" d="M152.7,108.4l-0.1,0.1C152.6,108.4,152.6,108.4,152.7,108.4z"/>
					<path fill="#FFFFFF" d="M153.7,108.1L153.7,108.1C153.7,108.1,153.6,108.1,153.7,108.1z"/>
					<path fill="#FFFFFF" d="M173.4,108.8c0-0.4,0-0.9-0.2-0.6l-0.1,0.4C173.3,108.5,173.3,108.6,173.4,108.8z"/>
					<path fill="#FFFFFF" d="M162.2,107.3L162.2,107.3l0.1,0c0,0,0.1-0.1,0.1-0.2C162.3,107.3,162.2,107.4,162.2,107.3z"/>
					<path fill="#FFFFFF" d="M162,107.5l-0.3-0.1C161.8,107.5,161.9,107.5,162,107.5z"/>
					<path fill="#FFFFFF" d="M147.4,110.5l-0.1,0.1C147.5,110.5,147.4,110.5,147.4,110.5z"/>
					<path fill="#FFFFFF" d="M180.7,115.3c0-0.2-0.1-0.4-0.2-0.5C180.5,115.1,180.4,115.4,180.7,115.3z"/>
					<path fill="#FFFFFF" d="M152.5,106.1c-0.1,0.1-0.1,0.2-0.1,0.3C152.5,106.3,152.6,106.2,152.5,106.1z"/>
					<path fill="#FFFFFF" d="M180.1,114.4c0,0,0,0.1,0,0.1c0.1,0.1,0.2,0.2,0.3,0.3C180.5,114.6,180.4,114.4,180.1,114.4z"/>
					<path fill="#FFFFFF" d="M134.7,126C134.7,126,134.7,126,134.7,126C134.7,126,134.7,126,134.7,126z"/>
					<path fill="#FFFFFF" d="M133.2,131.9c0-0.1,0-0.2,0-0.3C133.2,131.7,133.2,131.8,133.2,131.9z"/>
					<path fill="#FFFFFF" d="M183.1,118.7C183.2,118.9,183.2,118.7,183.1,118.7L183.1,118.7z"/>
					<path fill="#FFFFFF" d="M182.6,119.8c0,0-0.1,0-0.1,0C182.5,119.8,182.6,119.8,182.6,119.8z"/>
					<path fill="#FFFFFF" d="M177.8,114.7L177.8,114.7C177.8,114.7,177.8,114.7,177.8,114.7z"/>
					<path fill="#FFFFFF" d="M183.1,119c0-0.1,0-0.1,0-0.2C183.1,118.8,183.1,118.9,183.1,119z"/>
					<path fill="#FFFFFF" d="M183.2,118.9c0,0,0,0.1,0,0.1C183.3,119,183.3,119,183.2,118.9z"/>
					<path fill="#FFFFFF" d="M183,118.6c0,0.1,0.1,0.1,0.1,0.2c0,0,0-0.1,0,0C183.1,118.7,183.1,118.6,183,118.6z"/>
					<path fill="#FFFFFF" d="M139.9,116.3C139.9,116.3,139.9,116.3,139.9,116.3C139.8,116.5,139.8,116.4,139.9,116.3z"/>
					<polygon fill="#FFFFFF" points="169.1,109.2 169.1,109.2 169.1,109.2 					"/>
					<path fill="#FFFFFF" d="M168.7,109.1c0.2,0,0.3,0.1,0.5,0.1L169,109L168.7,109.1z"/>
					<path fill="#FFFFFF" d="M150.3,109.2l0.3-0.1c-0.4,0.2-0.6,0.3-0.3,0.2c0-0.2,1.2-0.4,1.2-0.6l0.2,0c-0.1,0-0.1,0-0.1,0
						c0.4-0.1,0.3-0.2,0.8-0.3c0.2,0,0.3-0.1,0.2,0c0,0,0.4-0.2,0.4-0.2c0.1,0,0.1,0,0,0l0.6-0.1l0,0c0.1,0,0.3-0.1,0.4-0.2
						c0.2,0-0.1,0,0,0l0.4-0.1c0.2,0-0.1,0.1-0.4,0.1c0.4,0.1,0.3-0.1,1-0.2l-0.3,0.1c0.2,0,0.5-0.1,0.9-0.1c-0.1,0-0.8,0-0.4-0.1
						c0.1,0,0.3,0,0.5-0.1c0,0,0.2,0,0.5,0l0,0.1c0.3-0.1,0.3-0.1,0.4-0.1c0.3,0,0.4,0,0.5,0c0.5,0-0.4,0,0.2-0.1
						c0.4,0,0.7-0.1,1.2-0.1c0.3,0-0.1,0,0.1,0.1l0.3-0.1c0.1,0,0,0,0,0c0.2,0,0-0.1,0.4-0.1c0.1-0.1,0.7,0.1,1.1,0
						c0.1,0-0.1,0,0,0.1c0.6,0,0.5,0,1,0l0.4,0.1c-0.3-0.1,0.1-0.1,0.4-0.1c-0.1,0-0.1-0.2-0.1-0.2c0-0.1-0.1-0.2-0.1-0.2l0.6-0.3
						c0.1,0.1,0,0.3-0.1,0.5c0,0,0.1-0.1,0.1-0.1c0,0.1,0.1,0.1,0.1,0.2c0,0.1,0,0.2,0,0.1c0,0-0.1,0-0.2,0c-0.1,0-0.1,0-0.2-0.1
						c-0.1,0-0.3,0.1-0.2,0.1c0,0,0.1,0,0.2,0c0,0-0.1,0,0,0c0,0,0.1,0,0.2,0l0.1,0.1l0,0c0,0,0.7,0.1,0.7,0.1c0.5,0,1,0,1.8,0.1
						c-0.2,0-0.1,0.1-0.1,0.1c-0.2-0.1-0.6-0.1-1-0.2c0.2,0,0.2,0.1,0.1,0.1l0.7,0.1c0,0,0.1,0.1,0.3,0.1c-0.1-0.1,0.6,0,0.9,0.1
						c0,0-0.1,0-0.4,0c0.4,0.2,0.5,0,0.9,0.2c-0.1,0-0.1,0-0.2,0c0.2,0,0.7,0.2,0.6,0.2l-0.1,0c0.6,0.2,1.8,0.5,1.9,0.5
						c0,0-0.1,0.1-0.1,0.1c0,0,0.3,0,0.5,0.1c0.1,0,0.1,0,0.2,0c0.1-0.1,0.2-0.2,0.3-0.3c0.2-0.2,0.3-0.3,0.3-0.3
						c-0.1,0.1-0.2,0.3-0.2,0.6l-0.1,0.2l0,0c0,0,0,0,0,0c0,0.1-0.1,0.1-0.3,0c0.1,0.1,0.3,0.1,0.6,0.2c-0.1,0-0.2-0.2-0.1-0.1
						c0.3,0.2,0.2,0.1,0.6,0.4c-0.1-0.1,0.1-0.1,0.3,0c0,0,0,0.1-0.1,0.1l0.6,0.2c-0.1,0-0.1,0.1,0,0.2c0,0,0.4,0.2,0.6,0.3
						l-0.2-0.1c0.6,0.3,0.6,0.1,1.2,0.5c-0.1,0-0.2,0,0,0.2c0.1,0,0.3,0,0.5,0.1l0,0c0,0,0.1,0,0.1-0.1l0.2-0.1
						c0.1-0.1,0.2-0.2,0.4-0.2c0.2-0.1,0.5-0.2,0.6-0.2l0,0.3l0.5,0c-0.2,0.1-0.4,0.2-0.6,0.4c-0.1,0.1-0.2,0.1-0.4,0.2
						c-0.1,0-0.1,0.1-0.2,0.1l-0.1,0c-0.3-0.1-0.6-0.2-0.8-0.3c0.2,0.1,0,0.1,0.4,0.2c0.1,0.1-0.2-0.1-0.3-0.1l0.7,0.4
						c0-0.1,0.6,0.3,0.6,0.3c0,0-0.8-0.5-0.8-0.5c0-0.1,0.6,0.1,1,0.5c0.1,0.1-0.2,0-0.2,0.1c0.1,0,0.5,0.3,0.5,0.3l-0.2-0.1
						c0.3,0.2,0.5,0.2,0.8,0.5c0.1,0.1,0.3,0.3,0.3,0.3c-0.1-0.1-0.1-0.2,0-0.3l0,0l0.1-0.1c0.1-0.1,0.2-0.2,0.3-0.3
						c0.2-0.2,0.3-0.3,0.4-0.4c0,0.1,0.2,0.9,0.2,1.3c0,0.1,0,0.1-0.1,0.2c0,0,0,0,0,0c0,0-0.1,0-0.1,0c-0.1,0-0.2-0.1-0.1,0
						c0,0,0.1,0.1,0.2,0.1c0.1,0.1-0.1,0,0.2,0.2c0.1,0,0.5,0.4,0.1,0.1c0.2,0.2,0.2,0.2,0.5,0.5c0-0.1,0.1,0,0.2,0
						c0.1,0.1,0.4,0,0.6,0.1c-0.1,0.1-0.2,0.3-0.2,0.3c0.5,0.5,0.7,0.7,1.1,1.2c0,0.1,0.2,0.3,0.1,0.2c0.1,0.1,0.1,0.1,0.3,0.2
						c0.2,0.3-0.3-0.3-0.1-0.1c0,0,0.3,0.3,0.5,0.5c0-0.1-0.4-0.5-0.6-0.6c-0.1,0.1,0.8-0.1,1.4,0.2c0.4,0.3-0.2,0.4,0,0.4
						c0.5,0.8,1.2,0.1,1.4,1c-0.1,0.5-0.5,0.4-0.7,0.6c-0.3-0.3-0.2-0.6-0.4-0.8l0.1,0.4c-0.2,0-0.4-0.2-0.4-0.4
						c0,0.1,0,0.2,0.1,0.4c0.1,0.1,0.2,0.3,0.4,0.5c0.3,0.4,0.5,0.8,0.7,1.1c0.1,0.1,0.2,0.3,0.2,0.1l-0.2-0.2
						c0.1-0.3,0.5,0.2,0.5-0.1c0.3,0.2,0.7,0.3,0.8,0.8l-0.3,0.2c0.1-0.1,0.1-0.4-0.1-0.4c0.2,0.1-0.1,0.8,0.4,0.8l0.1-0.4
						c0.3,0.2,0.8,0.4,0.8,0.8c0.2-0.3-0.1-0.1,0.2-0.5c-0.3,0.4-0.4-0.9-0.7-0.3c0.3-0.5,0-0.6,0.1-1.1c-0.1,0.1-0.1,0.2-0.2-0.1
						c0,0-0.1,0-0.1,0c0,0,0,0,0,0l0,0c0,0,0,0,0,0c0,0.1,0,0.2-0.1,0.2c-0.3,0-0.6-0.5-0.8-0.5c-0.1-0.2,0.2,0,0.2-0.2l-0.3-0.1
						c0.2-0.2,0.1-0.7,0.5-0.4l-0.2-0.4c0-0.3-0.1-0.6-0.4-0.7c-0.1-0.2-0.5-0.2-0.3-0.2l-0.5-0.4l0.1-0.1c-0.3-0.6-1.2-0.7-1.2-1.7
						c-0.2-0.1-0.4-0.2-0.6-0.6l0.1-0.2c-0.3-0.1-0.4-0.8-0.7-0.7c0.2-0.4-0.1-0.7-0.3-0.9c-0.3-0.2-0.7-0.4-0.8-0.6l-0.3,0.3
						c-0.2-0.3-0.6-0.4-1-0.6l-0.2,0.3c-0.5,0-0.6-0.8-1.1-1.1c0.1-0.1,0.2,0,0.2,0.2c-0.1-0.5-0.4-0.7-0.8-0.7
						c-0.4,0-0.8-0.1-0.9-0.5c-0.2,0-0.3-0.1-0.3-0.2c0,0,0,0,0,0c0,0,0,0-0.1,0c0-0.1-0.1-0.2-0.1-0.3c0,0.1,0,0.2,0.1,0.3
						c-0.1-0.1-0.3-0.1-0.5-0.1l0.1-0.4c0,0,0,0,0,0c-0.1-0.2-0.2,0.1-0.3,0.4c-0.1,0-0.2,0-0.3,0.1c0.2-0.6-0.5,0-0.4-0.7
						c-0.3,0.2-0.9-0.2-1.3,0.4c0-0.1,0-0.2,0.1-0.1c-0.1-0.2-0.3-0.3-0.5-0.2l0.1-0.5l-0.7,0.5c-0.1-0.4-0.2-0.6,0.2-0.9
						c-0.8,0.3-0.6,0-1.3,0.4l0.1-0.3c-0.2-0.1-0.6,0.3-0.6,0c-0.1-0.4-0.6-0.6-1.2-0.7c-0.6-0.2-1.3-0.4-1.7-0.8
						c0,1.1-0.4-0.6-0.6,0.2c0-0.3-0.1-0.4,0.1-0.6c-0.6,0.1-0.8-0.6-1.3,0c0-0.3,0.2-0.3,0.1-0.5c-0.1,0-0.2,0.2-0.3,0
						c0-0.2,0.1-0.2,0.2-0.3c-0.6-0.1-0.8,0.7-0.9,1.4c-0.2-0.4-0.4-0.3-0.7,0.1c-0.1-0.2-0.2-0.5,0.1-0.6c-0.2-0.1-1.2-0.4-1.3,0.1
						c-0.1-0.2-0.3-0.1-0.3,0c-0.4,0-0.5-0.1-0.9,0l0.1,0.1c-0.2,0.7-0.4,0.2-0.7,0.2l0-0.1c-0.8-0.5-0.3,0.2-1.2-0.3l0.1,0.4
						c0,0.9-0.7-0.5-1.2-0.1l0.2,0.2c-0.2,0.3-0.8-1.2-1.1-1.2c-0.1-0.1,0.1-0.1,0.1-0.2c-0.8-0.5,0,0.6-0.5,0.8
						c-0.1-0.3,0-0.8-0.3-0.8c-0.2-0.2-0.8,1.2-1.4,0.7c0.2,0.2,0.3,0.4,0.1,0.6c-0.3,0.2-1.2-0.6-1.3,0.1c-0.1-0.1-0.1-0.1-0.1-0.2
						c-0.2,0.3-0.8,0.6-0.8,1c-0.7-1.3-1.4,1.2-1.8-0.1l-0.8,0.4l0-0.1c-0.5,0.1-0.6,0.5-0.6,0.9c-0.1,0-0.1-0.2-0.1-0.2
						c-0.8,0.1-0.9,0.2-1.2,1.1l-0.3-0.3c0,0.3-1.3,0-1.7,0.8c0,0,0-0.1,0-0.2c-0.5,0.9-2.3,0.3-1.8,1.7c0,0-0.2,0.6-0.2,0.6
						c0.6-0.4,0.3,0.6,0.7,0.6c-0.2,0.2-0.8,0.1-0.6-0.1l0.1,0c-0.3-0.7-0.8,0.4-1.1,0c-0.5,0.5-1.1,0.9-1.7,1.4
						c-0.5,0.5-1.1,0.9-1.5,1.4l0.5,0.2l-0.3,0.4c-0.2,0-0.4-0.1-0.2-0.4c-0.3,0-0.2,0.6-0.1,0.7c-0.6,0.4-0.3-0.6-0.4-0.4l-0.1,0.2
						l0.1,0c0,0.3,0.2,0.5-0.1,0.8c-0.2,0.1-0.3-0.1-0.4,0c0,0-0.1,0-0.1,0.1c0,0-0.4,0.5-0.4,0.5l0.4,0c0,0.3-0.3,0.5,0.2,0.5
						c-0.7,0-1.3,1.7-1.6,1.8c0.1,0.5-0.1,0.8-0.3,1.2c0.1-0.1,0.5,0,0.2,0.4c-0.6-0.5-0.6,0.5-1.2,0.5c0.2-0.1,0.1,0.2,0,0.5
						c-0.1,0.3-0.1,0.5,0.2,0.4c-0.2,0.3-0.2-0.1-0.5,0.1c0,0.8-0.7,1.5-0.9,2.5c0.1,0,0.2-0.1,0.3,0.1l-0.5,0.4
						c0,0.2,0.3,0.3,0,0.5c0.1,0,0.2-0.1,0.2,0c-0.4,0.9-0.4,1.8-0.5,2.7c-0.1,0.9-0.2,1.6-0.3,2.8c0-0.2,0.1-0.1,0.1,0.1
						c0-0.1,0.1,0,0.1,0c0,0,0,0.2,0,0.4c0,0.2,0,0.4,0,0.4c0.1,0.1,0.1,0.8,0.1,0.9l0-0.2c0.1,0.3,0.1-0.4,0.2-0.4
						c0-0.4,0.1-0.9,0.1-1.5c0-0.1,0,0.1,0,0c0-0.2,0-0.3,0-0.7l0,0c0.1-0.9,0.2-1.3,0.4-2.4l0,0.1c0-0.2,0.1-0.3,0.1-0.4
						c0-0.3-0.1,0.6-0.1,0.4c0.1-0.3,0.4-1.6,0.5-1.7c0.1-0.3-0.1,0.1,0-0.2l0-0.1l0-0.1c0.1-0.2,0.1-0.3,0.1-0.3
						c0,0.1,0,0.2-0.1,0.2c0.1-0.3,0.2-0.8,0.3-0.9l-0.1,0.3c0.3-0.9,0.8-2,1.1-2.8l0,0.1c0.2-0.7,0.3-0.5,0.6-1.2l0,0
						c0.1-0.1,0.1-0.3,0.2-0.5c-0.1,0.2,0.2-0.3,0.1-0.1c0.3-0.7,0.2-0.3,0.3-0.8l0.1-0.1c0.1-0.2,0.1-0.2,0.3-0.5
						c-0.2,0.3,0.2-0.2,0,0.1c0.5-0.6,0.6-1,0.9-1.3c0.1-0.4-0.4,0.6-0.3,0.4c-0.1,0.1,0.1-0.3,0.3-0.5c0.1-0.2,0.3-0.3,0.7-0.8
						c0,0,0,0.1-0.1,0.1c0.2-0.2,0.3-0.4,0.5-0.6c0.1-0.2,0.2-0.3,0.2-0.4l-0.4,0.5c0.2-0.3,0.3-0.6,0.7-1c0,0-0.1,0.2-0.2,0.3
						c0.1-0.1,0.2-0.3,0.3-0.4c0,0.1-0.4,0.6-0.6,0.9c0.1-0.1,0.4-0.6,0.3-0.4c0.1-0.3,0.4-0.5,0.7-0.8l0,0c0-0.1,0.1-0.2,0.2-0.3
						l-0.1,0.2c0.2-0.3,0.5-0.5,0.7-0.7c-0.5,0.5-0.1,0.1-0.4,0.3c0.6-0.7,0.4-0.3,1.1-1c-0.1,0.1-0.4,0.3-0.2,0.2
						c0.1-0.1,0.3-0.3,0.4-0.3c0.5-0.4-0.1,0,0.1-0.2c0.2-0.1,0.2-0.2,0.4-0.4l0,0c0.6-0.4,0.1-0.2,0.6-0.6l-0.2,0.2l0.3-0.2l0,0.1
						c0.3-0.3,0.4-0.4,0.7-0.5c-0.1,0,0-0.1,0.3-0.3c0.2-0.1-0.1,0.1,0.3-0.2c-0.1,0.1-0.1,0.2-0.3,0.3c0,0-0.1,0.1-0.1,0.1
						c0.2-0.1,0.5-0.3,0.6-0.4c-0.1,0-0.1,0.1-0.2,0.1l0.5-0.4c0.1,0,0,0,0,0.1c0.1-0.1,0.2-0.2,0.3-0.3c0,0.1,0,0.1-0.2,0.3
						l0.5-0.4c0,0,0.3-0.1,0.2-0.1c0.3-0.1,0.7-0.5,1.2-0.7c0,0,0.1,0,0.1-0.1c0.4-0.2,0.6-0.3,1.2-0.6l0.3-0.1
						c0.4-0.2-0.4,0.1,0.2-0.2c0.4-0.2,0.2,0,0.4-0.1c0.2-0.1,0.6-0.4,1-0.5C150.6,109.1,150.4,109.1,150.3,109.2z M155.2,107.8
						c-0.1,0-0.3,0.1-0.4,0.1C154.9,107.8,155,107.8,155.2,107.8z M162.9,107.5c-0.1,0-0.2,0-0.3,0
						C162.7,107.5,162.8,107.5,162.9,107.5z M182.2,117.5L182.2,117.5C182.1,117.2,182.1,117.3,182.2,117.5z M182.3,118
						c0.1,0,0.1,0,0.1,0c-0.1,0-0.1-0.1-0.2-0.2C182.2,117.8,182.2,117.9,182.3,118z M137.9,116.6l0.1,0
						C138,116.8,137.9,116.7,137.9,116.6z"/>
					<path fill="#FFFFFF" d="M162,107.5C162,107.5,162,107.5,162,107.5C162,107.5,161.9,107.5,162,107.5z"/>
					<path fill="#FFFFFF" d="M147.5,110.5L147.5,110.5C147.4,110.5,147.4,110.5,147.5,110.5L147.5,110.5z"/>
					<path fill="#FFFFFF" d="M176.4,113.6c-0.1-0.1-0.1-0.1-0.1-0.1C176.2,113.4,176.3,113.5,176.4,113.6z"/>
					<path fill="#FFFFFF" d="M183.9,120l-0.2-0.3c0.1,0.1,0,0.2,0,0.3C183.8,120,183.9,119.9,183.9,120z"/>
					<path fill="#FFFFFF" d="M183.6,123.1c0,0,0,0.1,0.1,0.1l0.1-0.1C183.7,123,183.5,122.9,183.6,123.1z"/>
					<path fill="#FFFFFF" d="M183.2,120.7c-0.2,0.1,0,0.3,0.1,0.4c0,0,0,0,0,0C183.6,121,183.4,120.8,183.2,120.7z"/>
					<path fill="#FFFFFF" d="M183.4,121.2c0,0.1,0.1,0.1,0.1,0.2C183.6,121.3,183.4,121.3,183.4,121.2z"/>
					<path fill="#FFFFFF" d="M182.7,118.4c0,0.1,0.3-0.1,0.2,0C183.3,118.4,182.3,118,182.7,118.4z"/>
					<polygon fill="#FFFFFF" points="182.7,121.2 182.9,121 182.6,121 					"/>
					<path fill="#FFFFFF" d="M182.1,119.6l0.1,0.3c0,0,0.1,0,0.1,0C182.2,119.8,182.1,119.6,182.1,119.6z"/>
					<path fill="#FFFFFF" d="M182.3,120c0.1,0.1,0.1,0.2,0.2,0.2C182.4,120.2,182.4,120.1,182.3,120z"/>
					<polygon fill="#FFFFFF" points="182.5,120.8 182.4,120.7 182.3,120.5 					"/>
					<path fill="#FFFFFF" d="M180.1,116.7l-0.3-0.2c-0.1,0-0.1,0.2,0,0.2C179.9,116.7,180.1,116.8,180.1,116.7z"/>
					<path fill="#FFFFFF" d="M180.5,117.8c-0.1-0.1,0-0.1-0.1-0.1l0,0L180.5,117.8z"/>
					<path fill="#FFFFFF" d="M179.8,116.9C179.8,116.9,179.4,116.6,179.8,116.9C179.8,116.9,180,117.2,179.8,116.9z"/>
					<path fill="#FFFFFF" d="M176,113.1L176,113.1c0.1,0,0,0.1,0.2-0.1c0.1-0.2,0.2-0.3,0.2-0.3s-0.1,0.1-0.3,0.3
						C176,113.1,176.1,113.1,176,113.1z"/>
					<path fill="#FFFFFF" d="M172,110.6c0.4,0.2,0.1,0,0.4,0.2c0.1,0-0.3-0.2-0.2-0.1C172,110.6,171.9,110.5,172,110.6z"/>
					<path fill="#FFFFFF" d="M172.2,110.7c0,0,0.1,0,0.1,0.1C172.3,110.7,172.3,110.7,172.2,110.7z"/>
					<polygon fill="#FFFFFF" points="133.2,132.9 133.3,133.2 133.3,133 					"/>
					<path fill="#FFFFFF" d="M133.4,133.4L133.4,133.4l0,0.2C133.4,133.6,133.3,133.5,133.4,133.4z"/>
					<path fill="#FFFFFF" d="M156,107.8L156,107.8c0,0-0.1,0-0.2,0L156,107.8z"/>
					<polygon fill="#FFFFFF" points="152.4,108.5 152.4,108.5 152.3,108.5 					"/>
					<path fill="#FFFFFF" d="M149.5,109.6c0.1-0.1,0.3-0.1,0.4-0.2C149.6,109.6,149.4,109.6,149.5,109.6z"/>
				</g>
			</g>
		</g>
	</g>
	<g>
		<g>
			<g>
				<g>
					<path fill="#FFFFFF" d="M118.6,133.5c0,0.2,0,0.1,0,0.2C118.6,133.3,118.6,133.5,118.6,133.5z"/>
					<polygon fill="#FFFFFF" points="118.8,130.4 118.8,130.4 118.8,130 					"/>
					<path fill="#FFFFFF" d="M119.2,127.5c-0.2,0.3-0.2,1.1-0.3,1.6l0,0.1l0.1,0.2C119.1,128.7,119.1,127.9,119.2,127.5z"/>
					<path fill="#FFFFFF" d="M120,126c-0.1,0.1,0-0.3-0.1,0.3c0,0,0,0,0-0.1C119.9,126.2,119.9,126.1,120,126z"/>
					<path fill="#FFFFFF" d="M119.9,126.3C119.8,126.6,120,126.1,119.9,126.3L119.9,126.3z"/>
					<path fill="#FFFFFF" d="M120.2,124.9l0,0.4c0.1-0.1,0.2-0.4,0.2-0.3C120.4,124.6,120.4,124.7,120.2,124.9z"/>
					<path fill="#FFFFFF" d="M120.2,124.5l0,0.2C120.2,124.7,120.2,124.6,120.2,124.5z"/>
					<path fill="#FFFFFF" d="M120.1,125.2l0-0.4c0,0-0.1,0,0,0.2C120.1,124.9,120.1,125,120.1,125.2z"/>
					<path fill="#FFFFFF" d="M120,125.4c-0.1,0.2-0.2,0.5-0.2,0.1C119.7,126.2,119.8,126.2,120,125.4z"/>
					<path fill="#FFFFFF" d="M119.1,127.3l-0.1,0.3l0,0.3C119,127.7,119.2,127.3,119.1,127.3z"/>
					<path fill="#FFFFFF" d="M121.1,122.6c0,0-0.2,0.1-0.3,0.1l0,0.3C120.9,122.8,121,122.6,121.1,122.6z"/>
					<path fill="#FFFFFF" d="M120.8,122.7c0,0,0-0.1,0-0.2c0-0.1,0-0.2,0-0.2C120.7,122.6,120.8,122.7,120.8,122.7z"/>
					<path fill="#FFFFFF" d="M119.9,124.4l0,0.7c0,0,0-0.2,0-0.4c0-0.2,0-0.4,0-0.4L119.9,124.4z"/>
					<polygon fill="#FFFFFF" points="121.7,121 121.8,121.3 121.7,120.8 					"/>
					<path fill="#FFFFFF" d="M122.1,120c0,0.2,0.3-0.2,0.3,0c0.1-0.3,0.1-0.6,0.1-0.8C122.5,119.5,122.4,119.7,122.1,120z"/>
					<path fill="#FFFFFF" d="M122.6,118.8c0,0.1,0,0.3,0,0.4C122.6,119.1,122.6,118.9,122.6,118.8z"/>
					<path fill="#FFFFFF" d="M121.2,121.5c0,0,0.2-0.1,0.3-0.3l-0.2,0.1C121.2,121.4,121.2,121.5,121.2,121.5z"/>
					<path fill="#FFFFFF" d="M121.2,121.4L121.2,121.4c0.1-0.2,0.1-0.3,0.1-0.4C121.4,121,121.3,121.2,121.2,121.4z"/>
					<path fill="#FFFFFF" d="M121.2,121.6L121.2,121.6C121.2,121.5,121.2,121.5,121.2,121.6z"/>
					<path fill="#FFFFFF" d="M120.4,123.3c0-0.3,0.1-0.8-0.2-0.3C120.2,123.2,120.4,122.9,120.4,123.3z"/>
					<path fill="#FFFFFF" d="M120.9,121.7l-0.2,0.4c0,0,0.1-0.1,0.1,0.1L120.9,121.7z"/>
					<polygon fill="#FFFFFF" points="120.9,121.5 120.9,121.7 121,121.5 					"/>
					<path fill="#FFFFFF" d="M122.1,119.5c0-0.2,0.1-0.4,0.2-0.7c-0.1,0.2-0.3,0.5-0.4,0.7C121.9,119.6,122,119.7,122.1,119.5z"/>
					<path fill="#FFFFFF" d="M121.6,120.4L121.6,120.4C121.6,120.3,121.6,120.4,121.6,120.4z"/>
					<polygon fill="#FFFFFF" points="123.3,116.6 123.3,116.6 123.3,116.6 					"/>
					<path fill="#FFFFFF" d="M121.8,119.6c-0.1,0.2-0.1,0.3-0.1,0.4C121.8,119.8,121.8,119.7,121.8,119.6
						C121.9,119.5,121.8,119.5,121.8,119.6z"/>
					<path fill="#FFFFFF" d="M122.8,118.1c-0.1,0.1-0.2,0.2-0.2,0.3C122.6,118.3,122.8,118.2,122.8,118.1z"/>
					<path fill="#FFFFFF" d="M121.7,120.3L121.7,120.3C121.8,120.3,121.8,120.3,121.7,120.3z"/>
					<path fill="#FFFFFF" d="M121.7,120.3c0-0.1,0-0.2,0-0.3C121.7,120.1,121.7,120.2,121.7,120.3
						C121.7,120.3,121.7,120.3,121.7,120.3z"/>
					<path fill="#FFFFFF" d="M122.5,115.4c0,0,0,0.6-0.4,1c-0.1,0.5,0.6,0.5,1.1,0.3c-0.1,0-0.1-0.1-0.1-0.6
						c-0.2,0.1-0.7,0.8-0.7,0.4c0.2-0.6,0.3-0.4,0.5-0.7c-0.2,0.1-0.2-0.2-0.2-0.4c0-0.1,0-0.2,0-0.3c0,0,0-0.1-0.1-0.1c0,0,0,0,0,0
						C122.8,114.9,122.5,115.4,122.5,115.4C122.5,115.4,122.6,115.3,122.5,115.4z"/>
					<path fill="#FFFFFF" d="M122.9,117.4l-0.1,0.2c0.1-0.2,0.3-0.3,0.5-0.5c0.1-0.3,0-0.4,0-0.5L122.9,117.4L122.9,117.4z"/>
					<path fill="#FFFFFF" d="M122.4,118.3c-0.1-0.2,0-0.7-0.3-0.5c-0.2,0.5,0,0.4-0.1,0.8C122.3,117.8,122,118.9,122.4,118.3
						c-0.1,0.2-0.1,0.3-0.2,0.5c0.1-0.1,0.2-0.3,0.3-0.4L122.4,118.3L122.4,118.3L122.4,118.3C122.5,118.5,122.4,118.5,122.4,118.3
						L122.4,118.3C122.4,118.4,122.4,118.4,122.4,118.3C122.6,118.1,122.5,118.3,122.4,118.3C122.5,118.4,122.5,118.4,122.4,118.3
						L122.4,118.3c0.1,0.1,0.1-0.1,0.2-0.3c0.1-0.2,0.1-0.4,0.1-0.4C122.7,117.7,122.6,117.9,122.4,118.3z"/>
					<path fill="#FFFFFF" d="M120,122.4C120,122.4,120,122.4,120,122.4C120,122.3,120,122.3,120,122.4z"/>
					<path fill="#FFFFFF" d="M120.2,122c0,0.1,0,0.1,0,0.3c-0.1,0.2-0.1,0-0.1,0c0,0.1,0,0.5,0.2,0.1l0-0.1c0.2-0.3,0.5-0.7,0.5-0.7
						C120.5,121.8,120.4,121.8,120.2,122z"/>
					<path fill="#FFFFFF" d="M121.2,120.1l0.2-0.7l-0.3,0.3l0.1,0C121,120.1,121.1,120,121.2,120.1z"/>
					<polygon fill="#FFFFFF" points="123.4,116.6 123.6,116.7 123.5,116.2 					"/>
					<polygon fill="#FFFFFF" points="123.9,115.7 124.1,115.8 124.1,115.5 					"/>
					<path fill="#FFFFFF" d="M170.5,93.5l0.2,0.1C170.7,93.5,170.6,93.5,170.5,93.5z"/>
					<path fill="#FFFFFF" d="M169,93L169,93C169,93,169,93,169,93z"/>
					<path fill="#FFFFFF" d="M140.5,99.3c0.4,0.1,1,0.4,0.8,0.1l-0.3-0.3C140.8,99.2,140.6,99.3,140.5,99.3z"/>
					<path fill="#FFFFFF" d="M155.5,92.4L155.5,92.4l-0.2,0c0,0-0.1,0.1-0.1,0.2C155.3,92.5,155.4,92.4,155.5,92.4z"/>
					<path fill="#FFFFFF" d="M155.7,92.2l0.4,0C156,92.2,155.9,92.2,155.7,92.2z"/>
					<path fill="#FFFFFF" d="M179,96.8l0.3,0.1C178.8,96.6,179,96.8,179,96.8z"/>
					<path fill="#FFFFFF" d="M129.6,107.6c0.3-0.1,0.5-0.3,0.6-0.4C129.8,107.3,129.5,107.4,129.6,107.6z"/>
					<path fill="#FFFFFF" d="M169.4,95.4c0.1,0,0.2-0.1,0.2-0.2C169.5,95.3,169.4,95.3,169.4,95.4z"/>
					<path fill="#FFFFFF" d="M130.7,106.6c-0.1,0-0.1,0-0.2,0.1c-0.1,0.2-0.2,0.3-0.4,0.5C130.4,107.1,130.7,107,130.7,106.6z"/>
					<path fill="#FFFFFF" d="M199.1,121.5L199.1,121.5C199.2,121.6,199.2,121.6,199.1,121.5z"/>
					<path fill="#FFFFFF" d="M200.3,130.9c0-0.1,0-0.2,0-0.4C200.3,130.6,200.3,130.7,200.3,130.9z"/>
					<path fill="#FFFFFF" d="M126,112.4C125.9,112.6,126,112.5,126,112.4L126,112.4z"/>
					<path fill="#FFFFFF" d="M124.6,112.7c0-0.1,0-0.1-0.1-0.1C124.6,112.7,124.6,112.7,124.6,112.7z"/>
					<path fill="#FFFFFF" d="M130.9,103.8L130.9,103.8C130.8,103.9,130.8,103.9,130.9,103.8z"/>
					<path fill="#FFFFFF" d="M125.8,112.6c0.1,0,0.1-0.1,0.2-0.2C125.9,112.5,125.9,112.5,125.8,112.6z"/>
					<path fill="#FFFFFF" d="M125.9,112.6c0,0.1-0.1,0.1-0.1,0.1C125.8,112.8,125.8,112.8,125.9,112.6z"/>
					<path fill="#FFFFFF" d="M126.2,112.2c-0.1,0.1-0.1,0.2-0.2,0.3c0,0,0.1,0,0.1,0C126.1,112.4,126.1,112.3,126.2,112.2z"/>
					<path fill="#FFFFFF" d="M190.7,106.3C190.7,106.3,190.7,106.3,190.7,106.3C190.9,106.5,190.8,106.4,190.7,106.3z"/>
					<polygon fill="#FFFFFF" points="144.4,94.9 144.4,94.9 144.4,94.9 					"/>
					<path fill="#FFFFFF" d="M145.1,94.6c-0.3,0.2-0.5,0.2-0.7,0.3l0.3,0L145.1,94.6z"/>
					<path fill="#FFFFFF" d="M174.3,94.7l-0.5-0.2c0.6,0.2,1.1,0.4,0.6,0.1c-0.1,0.1-2-0.8-2.1-0.6l-0.3-0.1c0.1,0,0.1,0,0.2,0.1
						c-0.7-0.2-0.5,0-1.4-0.3c-0.3-0.1-0.5-0.2-0.3-0.1l-0.7-0.2c-0.2-0.1-0.1-0.1,0.1,0l-1-0.3l0,0c-0.1,0-0.5-0.1-0.7-0.1
						c-0.3-0.1,0.1,0,0.1,0l-0.6-0.1c-0.2-0.1,0.3,0,0.7,0.1c-0.5-0.2-0.5-0.1-1.6-0.3l0.5,0.1c-0.3-0.1-0.8-0.2-1.4-0.3
						c0.1,0.1,1.2,0.3,0.6,0.3c-0.2,0-0.4-0.1-0.7-0.1c0,0-0.3-0.1-0.7-0.2l0-0.1c-0.4-0.1-0.4,0-0.7,0c-0.5,0-0.6-0.1-0.7-0.2
						c-0.8-0.1,0.6,0.1-0.4,0.1c-0.7-0.1-1.1-0.1-1.9-0.1c-0.5-0.1,0.1,0-0.1-0.1l-0.4,0c-0.1,0-0.1,0-0.1,0c-0.4,0,0,0.1-0.6,0.1
						c-0.1,0.1-1.1-0.1-1.8,0c-0.2,0,0.1,0,0-0.1c-0.9,0.1-0.8,0-1.6,0.1l-0.7,0c0.5,0-0.1,0.1-0.7,0.2c0.1,0,0.2,0.1,0.3,0.2
						c0.1,0.1,0.1,0.1,0.2,0.2l-0.8,0.4c-0.1-0.1,0-0.3,0.1-0.5c-0.1,0.1-0.1,0.1-0.1,0.2c-0.1,0-0.1-0.1-0.2-0.2c0-0.1,0-0.1,0-0.1
						c0,0,0.1,0,0.2-0.1c0.1,0,0.2,0,0.3,0c0.2-0.1,0.4-0.1,0.4-0.2c-0.1,0-0.2,0-0.3,0c0.1,0,0.1,0,0.1,0c0,0-0.1,0-0.3,0.1l-0.2,0
						l0,0l-1.1,0.1c-0.4,0.1-0.8,0.1-1.2,0.3c-0.4,0.1-0.9,0.3-1.5,0.4c0.3-0.1,0-0.1,0.1-0.2c0.4,0,1-0.2,1.6-0.4
						c-0.3,0.1-0.3,0-0.2,0l-1.1,0.3c0-0.1-0.3,0-0.6,0.1c0.2,0-0.8,0.2-1.3,0.4c0,0,0.1-0.1,0.6-0.2c-0.7,0.1-0.8,0.3-1.4,0.4
						c0.1,0,0.2-0.1,0.3-0.1c-0.3,0.1-1.1,0.3-0.9,0.3l0.1,0c-0.9,0.3-2.8,0.9-2.9,1c0,0,0.1-0.1,0.1-0.2c0,0-0.1,0-0.2,0.1
						c-0.1,0.1-0.3,0.2-0.5,0.3c-0.1,0.1-0.2,0.1-0.3,0.2c0,0.2-0.1,0.3-0.1,0.5c-0.1,0.3-0.1,0.5-0.1,0.5c0-0.2-0.1-0.4-0.2-0.6
						l-0.1-0.1l0,0c0,0,0,0,0,0c0,0,0-0.1,0.3-0.3c-0.2,0.1-0.5,0.2-0.9,0.4c0.1-0.1,0.4-0.1,0.2,0c-0.6,0.2-0.4,0.1-1.1,0.3
						c0.2-0.1,0,0.1-0.3,0.3c0,0-0.1-0.1,0-0.2l-0.8,0.5c0.2-0.1,0-0.1-0.2,0c0.1,0-0.7,0.4-0.9,0.5l0.3-0.2
						c-0.9,0.5-0.8,0.6-1.7,1.1c0.1-0.1,0.2-0.3-0.3,0c-0.1,0.1-0.3,0.3-0.6,0.5c-0.1,0.5-0.1,1.3-0.4,1.6l-0.3-0.1l-0.4,0.6
						c0-0.2,0-0.5,0-0.8c0-0.2,0-0.3,0-0.5c0-0.1,0-0.2,0-0.2l0.1-0.1c0.3-0.3,0.7-0.6,1-0.8c-0.3,0.2-0.1,0-0.6,0.3
						c-0.2,0.1,0.3-0.2,0.4-0.3c0,0-0.3,0.1-0.6,0.3c-0.3,0.2-0.6,0.4-0.6,0.4c0.1,0-0.8,0.6-0.7,0.7l1.2-0.9c0.1,0-0.6,0.6-1.4,1.2
						c-0.2,0.1,0.1-0.2,0.1-0.2c-0.1,0.1-0.7,0.6-0.8,0.6l0.3-0.3c-0.4,0.3-0.7,0.6-1.2,0.9c-0.2,0.1-0.6,0.3-0.6,0.4
						c0.2-0.1,0.3-0.1,0.4-0.1l0,0c0,0,0,0,0.1,0.1c0.1,0.1,0.2,0.2,0.2,0.3c0.1,0.2,0.2,0.4,0.2,0.5c-0.1,0-1.2,0.3-1.6,0.2
						c-0.1,0-0.1,0-0.2-0.1c0,0,0,0,0,0c0,0,0.1-0.1,0.1-0.1c0.1-0.1,0.2-0.2,0.1-0.2c0,0-0.1,0.2-0.2,0.2c-0.2,0.1,0-0.1-0.3,0.2
						c0,0.1-0.8,0.7-0.1,0.2c-0.4,0.3-0.4,0.3-0.8,0.7c0.1,0,0,0.1-0.1,0.2c-0.2,0.1-0.2,0.6-0.3,0.8c-0.1-0.1-0.3-0.2-0.3-0.1
						c-0.7,0.7-1.1,1.1-1.7,1.8c-0.1,0-0.4,0.4-0.3,0.2c-0.1,0.1-0.1,0.2-0.3,0.4c-0.4,0.4,0.4-0.5,0.1-0.2c0,0.1-0.4,0.6-0.7,0.9
						c0.1-0.1,0.6-0.7,0.9-1c-0.1-0.1,0.1,1-0.4,1.9c-0.4,0.7-0.5,0-0.5,0.2c-1,1.1,0,1.5-1,2.2c-0.5,0.2-0.6-0.4-0.8-0.4
						c0.3-0.6,0.8-0.6,1-1l-0.4,0.3c0-0.2,0.2-0.6,0.4-0.7c-0.4,0.2-1.5,1.9-2.2,2.9c-0.1,0.2-0.3,0.4-0.1,0.4l0.2-0.3
						c0.4-0.1-0.1,0.7,0.3,0.4c-0.1,0.5-0.1,1.1-0.6,1.6l-0.4-0.1c0.1,0,0.4-0.3,0.4-0.5c0,0.3-0.9,0.6-0.7,1.1l0.4-0.3
						c-0.1,0.5-0.1,1.2-0.4,1.6c0.4-0.1,0-0.1,0.6-0.3c-0.6,0.1,0.8-1.3,0-1c0.6-0.1,0.6-0.5,1.2-0.8c-0.1,0-0.3,0,0-0.3
						c0,0,0-0.1,0-0.1c0,0,0,0,0,0l0,0c0,0,0,0,0,0c-0.1,0.1-0.2,0.1-0.3,0.1c-0.1-0.3,0.3-1,0.4-1.3c0.2-0.2,0,0.2,0.2,0.1l0-0.4
						c0.2,0.1,0.8-0.4,0.6,0.3l0.4-0.5c0.3-0.2,0.7-0.5,0.8-0.8c0.2-0.2,0.2-0.7,0.2-0.4l0.5-0.8l0.1,0c0.6-0.7,0.9-1.8,2-2.2
						c0.2-0.3,0.3-0.6,0.8-0.9l0.3,0.1c0.2-0.4,1.1-0.6,1-0.9c0.9,0.3,1.6-1.1,2.2-1.4l-0.2-0.3c0.4-0.3,0.7-0.7,1.1-1.1l-0.2-0.3
						c0.3-0.5,1.3-0.6,1.9-1c0,0.1-0.2,0.2-0.3,0.2c1.3,0.1,1.4-1.7,2.5-1.6c0.1-0.2,0.3-0.3,0.5-0.2c0,0,0,0,0,0c0,0,0.1,0,0.1,0
						c0.1,0,0.2,0,0.4,0c-0.1,0-0.2-0.1-0.3-0.1c0.1-0.1,0.4-0.2,0.5-0.5l0.3,0.3c0,0,0,0,0,0c0.3,0,0.1-0.3-0.2-0.5
						c0.1-0.1,0.1-0.2,0.2-0.4c0.5,0.5,0.5-0.5,1.1,0c0-0.4,1.1-0.7,0.9-1.5c0,0.1,0.1,0.1,0,0.2c0.3,0,0.6-0.1,0.8-0.4l0.3,0.4
						l0.3-0.9c0.5,0.1,0.7,0.3,0.5,0.8c0.6-0.9,0.6-0.5,1.1-1.3l0.1,0.3c0.3-0.1,0.5-0.7,0.8-0.4c0.4,0.2,1.1,0,2-0.2
						c0.8-0.3,1.9-0.4,2.7-0.3c-0.5-1,0.8,0.3,0.7-0.5c0.1,0.2,0.4,0.3,0.2,0.6c0.7-0.4,1.2,0.2,1.7-0.6c0.1,0.2-0.1,0.4,0,0.5
						c0.1-0.1,0.2-0.2,0.3-0.1c0.1,0.1-0.1,0.2-0.2,0.3c0.8-0.1,0.8-0.9,0.8-1.6c0.5,0.3,0.7,0.2,0.9-0.3c0.2,0.2,0.4,0.4-0.1,0.6
						c0.1,0,0.6,0,1,0c0.4,0,0.8-0.1,0.8-0.4c0.1,0.1,0.4,0,0.5,0c0.7,0,0.7,0.1,1.4,0l-0.2-0.1c0.3-0.7,0.5-0.2,1.1-0.3l0,0.1
						c1.2,0.5,0.5-0.2,1.7,0.4l0-0.4c0.2-0.9,1,0.6,1.7,0.3l-0.2-0.3c0.4-0.3,0.9,1.3,1.2,1.5c0.1,0.1-0.1,0.1-0.3,0.1
						c0.9,0.7,0.2-0.5,0.9-0.5c0.1,0.3-0.3,0.7,0.2,0.9c0.2,0.3,1.5-0.7,2.1-0.1c-0.1-0.3-0.2-0.5,0.2-0.6c0.5,0,1.1,1.2,1.8,0.6
						c0,0.1,0.1,0.1,0,0.2c0.4-0.1,1.3,0,1.7-0.3c0,0.8,0.6,0.7,1.2,0.7c0.6,0,1.2,0,0.9,0.6l1.2,0.4l-0.1,0.1
						c0.7,0.4,1.1,0.1,1.4,0c0.1,0.2,0,0.2-0.1,0.3c0.9,0.7,1,0.7,2.2,0.6l-0.1,0.4c0.2-0.1,0.5,0.3,0.9,0.6
						c0.4,0.3,0.9,0.8,1.5,0.9c0,0-0.1,0.1-0.2,0.1c1.3,0.3,1.9,2.4,3.1,1.6l0.9,0.2c-0.8-0.7,0.5-0.4,0.3-0.8
						c0.4,0.2,0.6,1,0.2,0.8l0-0.1c-0.6,0.5,0.9,1,0.6,1.4c0.4,0.3,0.8,0.7,1.2,1c0.4,0.4,0.7,0.8,1.1,1.1c0.3,0.4,0.7,0.7,1,1.1
						c0.3,0.4,0.6,0.8,0.9,1.1l0.2-0.5l0.4,0.5c0,0.2-0.1,0.4-0.4,0.1c0,0.4,0.7,0.5,0.8,0.4c0.5,0.8-0.7,0.1-0.5,0.3l0.3,0.3l0-0.1
						c0.4,0.1,0.6,0,0.9,0.5c0.2,0.3-0.1,0.3,0,0.4c0,0,0,0.1,0.1,0.2l0.5,0.7l0.1-0.5c0.4,0.2,0.5,0.7,0.6,0.1
						c-0.1,0.8,1.7,2.8,1.7,3.2c0.5,0.3,0.8,0.8,1.1,1.4c0-0.2,0.2-0.4,0.5,0.1c-0.7,0.2,0.2,1.1,0,1.7c0.1-0.5,0.8,1.4,0.9,0.6
						c0.2,0.5-0.2,0.1-0.2,0.5c0.7,0.9,0.9,2.3,1.5,3.6c0.1,0,0.1-0.3,0.3,0l-0.1,0.8c0.1,0.3,0.5,0.1,0.4,0.7c0-0.1,0.1-0.2,0.2,0
						c0.3,1.4,0.7,2.7,1,4.1c0.4,1.4,0.5,2.8,0.6,4.2c0-0.4,0-0.1,0.1,0.2c0-0.2,0.1,0,0.1,0c0,0,0,0.3,0,0.6c0,0.3,0,0.6,0,0.6
						c0.1,0.2,0.1,1.3,0.2,1.4l0-0.4c0.1,0.5,0.1-0.7,0.2-0.6c-0.1-0.6,0-1.5-0.1-2.4c0-0.2,0,0.2,0,0.1c0-0.2-0.1-0.5-0.1-1l0,0.1
						c-0.2-1.5-0.2-2.1-0.5-3.7l0,0.1c-0.1-0.4-0.1-0.4-0.1-0.6c-0.1-0.4,0.2,1,0.1,0.6c0-0.2-0.2-0.9-0.3-1.5
						c-0.1-0.6-0.3-1.2-0.3-1.3c-0.1-0.5,0,0.2-0.1-0.4l0-0.1l-0.1-0.1c-0.1-0.3-0.1-0.5-0.1-0.5c0,0.1,0.1,0.2,0.1,0.3
						c-0.1-0.5-0.4-1.3-0.4-1.4c0,0,0,0.1,0.1,0.3c0,0.1,0.1,0.3,0.1,0.3c-0.5-1.4-1.1-3.2-1.8-4.5l0,0.1c-0.5-1-0.4-0.8-0.9-1.9
						l0,0c-0.1-0.3-0.3-0.5-0.4-0.8c0.2,0.3-0.2-0.5,0-0.2c-0.6-1-0.3-0.5-0.8-1.2l-0.1-0.2c-0.2-0.2-0.2-0.2-0.5-0.7
						c0.3,0.4-0.2-0.4,0.2,0.1c-0.6-1.1-1.1-1.5-1.3-2.1c-0.4-0.4,0.6,0.9,0.4,0.7c0.1,0.2-0.3-0.4-0.5-0.7
						c-0.2-0.3-0.3-0.6-0.9-1.4c0.1,0.1,0.1,0.1,0.1,0.2c-0.2-0.3-0.5-0.6-0.8-0.9c-0.2-0.2-0.4-0.5-0.5-0.5l0.6,0.7
						c-0.4-0.4-0.7-0.7-1.3-1.4c0.1,0,0.2,0.2,0.4,0.4c-0.2-0.2-0.3-0.4-0.5-0.6c0.1,0,0.8,0.9,1.2,1.3c-0.2-0.2-0.7-0.8-0.5-0.6
						c-0.3-0.3-0.6-0.8-1.2-1.3l0.1,0c-0.1-0.1-0.2-0.2-0.4-0.4c0,0,0.3,0.2,0.3,0.2c-0.4-0.4-0.7-0.8-1.1-1.2
						c0.8,0.8,0.1,0.2,0.5,0.6c-1-0.9-0.5-0.6-1.6-1.7c0.2,0.1,0.6,0.6,0.3,0.4c-0.2-0.2-0.5-0.5-0.6-0.6c-0.8-0.7,0.1,0.1-0.3-0.1
						c-0.2-0.3-0.4-0.3-0.8-0.6l0,0c-0.9-0.7-0.3-0.1-1.1-0.8l0.4,0.2l-0.4-0.3l0.1,0c-0.5-0.3-0.6-0.5-1.1-0.8
						c0.1,0.1-0.1,0-0.5-0.3c-0.3-0.2,0.2,0.1-0.4-0.3c0.2,0.1,0.3,0.1,0.6,0.4c0,0,0.1,0.1,0.2,0.1c-0.3-0.3-0.8-0.6-1-0.7
						c0.1,0.1,0.2,0.1,0.2,0.2l-0.9-0.5c-0.1-0.1,0,0,0.1,0c-0.2-0.1-0.3-0.2-0.6-0.3c0.1,0,0.1,0,0.5,0.2l-0.9-0.5
						c0-0.1-0.4-0.3-0.3-0.3c-0.2-0.2-0.5-0.3-0.9-0.5c-0.3-0.2-0.7-0.3-1-0.5c0,0-0.1,0-0.3-0.1c-0.6-0.3-1.2-0.6-1.9-1l-0.4-0.3
						c-0.6-0.2,0.6,0.3-0.5-0.1c-0.7-0.3-0.2-0.2-0.5-0.3c-0.4-0.1-1-0.3-1.7-0.6C173.9,94.5,174.1,94.6,174.3,94.7z M166.5,92.6
						c0.2,0,0.5,0,0.6,0.1C166.9,92.7,166.8,92.7,166.5,92.6z M154.3,92.4c0.1,0,0.3,0,0.5,0C154.7,92.4,154.5,92.4,154.3,92.4z
						 M127.1,110.5L127.1,110.5C127.4,110.2,127.3,110.3,127.1,110.5z M126.6,110.9C126.6,111,126.7,111,126.6,110.9
						c0,0,0.1-0.1,0.3-0.2C126.8,110.7,126.7,110.7,126.6,110.9z M191.1,108.9l0-0.2C191.3,108.9,191.2,108.9,191.1,108.9z"/>
					<path fill="#FFFFFF" d="M155.7,92.2C155.7,92.2,155.7,92.2,155.7,92.2C155.8,92.2,155.8,92.2,155.7,92.2z"/>
					<path fill="#FFFFFF" d="M178.9,96.7L178.9,96.7C178.9,96.8,179,96.8,178.9,96.7L178.9,96.7z"/>
					<path fill="#FFFFFF" d="M132.9,101.8c0.1-0.1,0.2-0.1,0.2-0.2C133.1,101.6,133.1,101.6,132.9,101.8z"/>
					<path fill="#FFFFFF" d="M125,114.3l0.2-0.4c-0.1,0.2-0.2,0.2-0.3,0.3C124.9,114.2,125,114.1,125,114.3z"/>
					<path fill="#FFFFFF" d="M121.8,117.1c0,0.1-0.1,0.1-0.1,0.2l0.1,0C121.9,117,121.9,116.8,121.8,117.1z"/>
					<path fill="#FFFFFF" d="M124,114.2c-0.2-0.1-0.3,0.2-0.4,0.5c0,0,0,0,0,0C123.8,114.9,123.9,114.5,124,114.2z"/>
					<path fill="#FFFFFF" d="M123.6,114.8c0,0.1-0.1,0.2-0.1,0.3C123.5,115.1,123.5,114.9,123.6,114.8z"/>
					<path fill="#FFFFFF" d="M126.3,111.8c-0.1,0.1,0.2,0.2,0.1,0.3C126.5,112.3,126.6,111,126.3,111.8z"/>
					<polygon fill="#FFFFFF" points="123.2,114.1 123.5,114.1 123.4,113.8 					"/>
					<path fill="#FFFFFF" d="M124.7,112l-0.3,0.4c0,0,0,0.1,0,0.2C124.5,112.3,124.8,112,124.7,112z"/>
					<path fill="#FFFFFF" d="M124.4,112.5c-0.1,0.1-0.2,0.3-0.2,0.4C124.2,112.8,124.3,112.7,124.4,112.5z"/>
					<polygon fill="#FFFFFF" points="123.5,113.4 123.6,113.3 123.8,113 					"/>
					<path fill="#FFFFFF" d="M127.9,107.5l0.3-0.5c-0.1-0.1-0.2,0-0.3,0.1C127.9,107.3,127.8,107.5,127.9,107.5z"/>
					<path fill="#FFFFFF" d="M126.6,108.6c0.1-0.1,0.1-0.1,0.2-0.2l0,0L126.6,108.6z"/>
					<path fill="#FFFFFF" d="M127.6,107.3c0-0.1,0.5-0.7,0-0.1C127.6,107.3,127.2,107.7,127.6,107.3z"/>
					<path fill="#FFFFFF" d="M133.7,101.4l-0.1,0.1c0,0,0,0,0.1,0.2c0.1,0.1,0.3,0.3,0.3,0.3s-0.1-0.2-0.2-0.3
						C133.6,101.3,133.7,101.4,133.7,101.4z"/>
					<path fill="#FFFFFF" d="M139.8,97c-0.6,0.3-0.1,0.1-0.7,0.4c-0.1,0.1,0.4-0.2,0.3-0.1C139.8,97.1,140,97,139.8,97z"/>
					<path fill="#FFFFFF" d="M139.5,97.3c-0.1,0-0.1,0.1-0.2,0.1C139.4,97.3,139.4,97.3,139.5,97.3z"/>
					<polygon fill="#FFFFFF" points="200.4,132.5 200.5,132.9 200.5,132.6 					"/>
					<path fill="#FFFFFF" d="M200.6,133.3l0,0.1l0.1,0.3C200.6,133.6,200.6,133.4,200.6,133.3z"/>
					<path fill="#FFFFFF" d="M165.4,92.3L165.4,92.3c0,0,0.1,0.1,0.3,0.1L165.4,92.3z"/>
					<polygon fill="#FFFFFF" points="171.1,93.6 171,93.5 171.2,93.6 					"/>
					<path fill="#FFFFFF" d="M175.8,95.1c-0.2-0.1-0.4-0.2-0.6-0.2C175.6,95,175.8,95.2,175.8,95.1z"/>
				</g>
			</g>
		</g>
	</g>
	<g>
		<g>
			<g>
				<g>
					<path fill="#FFFFFF" d="M144.3,125.5C144.3,125.6,144.3,125.6,144.3,125.5C144.4,125.5,144.3,125.5,144.3,125.5z"/>
					<polygon fill="#FFFFFF" points="144.7,125 144.7,125 144.8,124.9 					"/>
					<path fill="#FFFFFF" d="M145.2,124.5c-0.2,0-0.1,0.2-0.2,0.2l0,0l0.1,0.1C145,124.8,145.1,124.6,145.2,124.5z"/>
					<path fill="#FFFFFF" d="M145.7,124.5C145.7,124.5,145.7,124.4,145.7,124.5C145.7,124.5,145.7,124.5,145.7,124.5
						C145.7,124.5,145.7,124.5,145.7,124.5z"/>
					<path fill="#FFFFFF" d="M145.7,124.5C145.6,124.6,145.8,124.6,145.7,124.5L145.7,124.5z"/>
					<path fill="#FFFFFF" d="M145.9,124.3L145.9,124.3c0,0.1,0.1,0.1,0.1,0.1C146.1,124.4,146,124.3,145.9,124.3z"/>
					<path fill="#FFFFFF" d="M145.8,124.2L145.8,124.2C145.8,124.2,145.9,124.2,145.8,124.2z"/>
					<path fill="#FFFFFF" d="M145.8,124.3L145.8,124.3C145.8,124.2,145.7,124.2,145.8,124.3C145.7,124.2,145.8,124.3,145.8,124.3z"
						/>
					<path fill="#FFFFFF" d="M145.7,124.3c-0.1,0-0.1,0-0.1-0.1C145.5,124.4,145.6,124.5,145.7,124.3z"/>
					<path fill="#FFFFFF" d="M145,124.4L145,124.4l-0.1,0.1C145,124.5,145.1,124.4,145,124.4z"/>
					<path fill="#FFFFFF" d="M146.4,124.1c0,0-0.1-0.1-0.2-0.1l0,0.1C146.3,124,146.4,124,146.4,124.1z"/>
					<path fill="#FFFFFF" d="M146.2,124l0-0.1C146.1,123.9,146.2,123.9,146.2,124z"/>
					<polygon fill="#FFFFFF" points="145.6,124 145.6,124.2 145.6,124 					"/>
					<polygon fill="#FFFFFF" points="146.7,123.9 146.8,124 146.7,123.8 					"/>
					<path fill="#FFFFFF" d="M146.9,123.7c0.1,0.1,0.2,0.1,0.2,0.2c0,0,0-0.1,0-0.2C147.1,123.7,147.1,123.7,146.9,123.7z"/>
					<path fill="#FFFFFF" d="M147.1,123.5c0,0,0,0.1,0,0.1C147.1,123.6,147.1,123.6,147.1,123.5z"/>
					<path fill="#FFFFFF" d="M146.4,123.8c0,0,0.1,0.1,0.2,0.1L146.4,123.8L146.4,123.8z"/>
					<path fill="#FFFFFF" d="M146.4,123.7L146.4,123.7C146.4,123.7,146.5,123.7,146.4,123.7C146.5,123.7,146.4,123.7,146.4,123.7z"
						/>
					<path fill="#FFFFFF" d="M146.4,123.8L146.4,123.8C146.4,123.8,146.4,123.8,146.4,123.8z"/>
					<path fill="#FFFFFF" d="M145.9,123.9c0-0.1,0-0.2-0.2-0.2C145.8,123.8,145.9,123.8,145.9,123.9z"/>
					<path fill="#FFFFFF" d="M146.2,123.7l-0.1,0c0,0,0.1,0,0.1,0.1L146.2,123.7z"/>
					<polygon fill="#FFFFFF" points="146.2,123.6 146.2,123.7 146.2,123.7 					"/>
					<path fill="#FFFFFF" d="M146.8,123.5c0-0.1,0-0.1,0-0.2c-0.1,0-0.1,0-0.2,0.1C146.7,123.5,146.8,123.6,146.8,123.5z"/>
					<path fill="#FFFFFF" d="M146.6,123.6L146.6,123.6C146.6,123.6,146.6,123.6,146.6,123.6z"/>
					<polygon fill="#FFFFFF" points="147.2,123 147.2,123 147.2,123 					"/>
					<path fill="#FFFFFF" d="M146.6,123.4c-0.1,0,0,0.1,0,0.1C146.6,123.5,146.6,123.5,146.6,123.4
						C146.6,123.4,146.6,123.4,146.6,123.4z"/>
					<path fill="#FFFFFF" d="M147.1,123.4c-0.1,0-0.1,0-0.1,0C147,123.4,147.2,123.4,147.1,123.4z"/>
					<path fill="#FFFFFF" d="M146.6,123.6L146.6,123.6C146.7,123.6,146.7,123.6,146.6,123.6z"/>
					<path fill="#FFFFFF" d="M146.6,123.6c0,0,0-0.1,0-0.1C146.6,123.5,146.6,123.6,146.6,123.6
						C146.6,123.6,146.6,123.6,146.6,123.6z"/>
					<path fill="#FFFFFF" d="M146.4,122.1c0,0,0.1,0.2-0.1,0.2c0,0.2,0.6,0.5,0.9,0.7c-0.1-0.1-0.1-0.1-0.1-0.2
						c-0.1-0.1-0.4,0-0.4-0.2c0-0.2,0.1,0,0.3,0c-0.1-0.1-0.2-0.1-0.2-0.3c0-0.1-0.1-0.1-0.1-0.2c0,0,0-0.1-0.1-0.1
						C146.5,122.1,146.5,122.1,146.4,122.1C146.5,122.1,146.4,122.1,146.4,122.1C146.4,122.1,146.4,122.1,146.4,122.1z"/>
					<path fill="#FFFFFF" d="M147,123.1L147,123.1c0,0,0.1,0.1,0.3,0.1c0-0.1-0.1-0.2-0.1-0.2L147,123.1L147,123.1z"/>
					<path fill="#FFFFFF" d="M146.9,123.3c-0.1-0.1-0.1-0.3-0.3-0.4c-0.1,0.1,0.1,0.2,0.1,0.3C146.7,123,146.7,123.3,146.9,123.3
						C146.9,123.3,146.8,123.3,146.9,123.3C146.9,123.4,146.9,123.4,146.9,123.3L146.9,123.3L146.9,123.3L146.9,123.3
						C146.9,123.3,146.9,123.3,146.9,123.3L146.9,123.3C146.9,123.3,146.9,123.3,146.9,123.3C147,123.3,146.9,123.3,146.9,123.3
						L146.9,123.3L146.9,123.3l0.1-0.1C147,123.2,146.9,123.2,146.9,123.3z"/>
					<path fill="#FFFFFF" d="M145.5,123.4C145.5,123.5,145.5,123.5,145.5,123.4C145.5,123.4,145.5,123.4,145.5,123.4z"/>
					<path fill="#FFFFFF" d="M145.6,123.4C145.6,123.5,145.7,123.5,145.6,123.4C145.6,123.5,145.6,123.5,145.6,123.4
						c-0.1,0.1-0.1,0.2,0.1,0.1l0,0c0.1,0,0.3,0,0.3,0C145.9,123.5,145.8,123.5,145.6,123.4z"/>
					<path fill="#FFFFFF" d="M146.2,123.3l0-0.2l-0.2,0l0.1,0.1C146,123.2,146.1,123.2,146.2,123.3z"/>
					<polygon fill="#FFFFFF" points="147.3,123.1 147.5,123.2 147.3,123 					"/>
					<polygon fill="#FFFFFF" points="147.5,122.9 147.6,123.1 147.6,123 					"/>
					<path fill="#FFFFFF" d="M156.7,116L156.7,116C156.8,116,156.8,116,156.7,116z"/>
					<path fill="#FFFFFF" d="M156.4,116L156.4,116C156.4,116,156.4,116,156.4,116z"/>
					<path fill="#FFFFFF" d="M151.5,120.4c0.2,0.2,0.5,0.6,0.3,0.3l-0.2-0.3C151.6,120.5,151.6,120.4,151.5,120.4z"/>
					<path fill="#FFFFFF" d="M153.7,117L153.7,117L153.7,117c0,0.1,0,0.1,0,0.2C153.7,117.2,153.6,117,153.7,117z"/>
					<path fill="#FFFFFF" d="M153.6,116.9L153.6,116.9C153.7,116.8,153.7,116.8,153.6,116.9z"/>
					<path fill="#FFFFFF" d="M158.7,115.7L158.7,115.7C158.6,115.7,158.7,115.7,158.7,115.7z"/>
					<path fill="#FFFFFF" d="M149.1,121.7c0.1,0.1,0.2,0.1,0.2,0.1C149.1,121.7,148.9,121.5,149.1,121.7z"/>
					<path fill="#FFFFFF" d="M157,118.2c0-0.1,0-0.2,0-0.2C157,118,157,118.1,157,118.2z"/>
					<path fill="#FFFFFF" d="M149.5,121.7C149.4,121.7,149.4,121.7,149.5,121.7c-0.1,0-0.1,0.1-0.1,0.1
						C149.4,121.8,149.5,121.9,149.5,121.7z"/>
					<path fill="#FFFFFF" d="M165.6,116.8L165.6,116.8C165.6,116.8,165.6,116.8,165.6,116.8z"/>
					<path fill="#FFFFFF" d="M167.3,118C167.3,118,167.2,118,167.3,118C167.2,118,167.3,118,167.3,118z"/>
					<path fill="#FFFFFF" d="M148.2,122.6C148.2,122.6,148.2,122.6,148.2,122.6L148.2,122.6z"/>
					<path fill="#FFFFFF" d="M147.3,122C147.3,122,147.3,122,147.3,122C147.3,122,147.3,122,147.3,122z"/>
					<path fill="#FFFFFF" d="M148.6,120L148.6,120C148.6,120,148.6,120,148.6,120z"/>
					<path fill="#FFFFFF" d="M148.1,122.5C148.1,122.5,148.1,122.5,148.1,122.5C148.2,122.5,148.1,122.5,148.1,122.5z"/>
					<path fill="#FFFFFF" d="M148.2,122.6C148.1,122.6,148.1,122.6,148.2,122.6C148.1,122.6,148.2,122.6,148.2,122.6z"/>
					<path fill="#FFFFFF" d="M148.2,122.5C148.2,122.5,148.2,122.5,148.2,122.5C148.2,122.5,148.2,122.5,148.2,122.5
						C148.2,122.5,148.2,122.5,148.2,122.5z"/>
					<path fill="#FFFFFF" d="M161.9,116L161.9,116C162,116,162,116,161.9,116z"/>
					<polygon fill="#FFFFFF" points="151.4,117.9 151.4,117.9 151.4,117.9 					"/>
					<path fill="#FFFFFF" d="M151.5,117.8c0,0.1-0.1,0.1-0.1,0.1l0.1,0.1L151.5,117.8z"/>
					<path fill="#FFFFFF" d="M157.6,115.8l-0.1,0c0.1-0.1,0.2-0.1,0.1-0.1c0,0.1-0.4,0.1-0.4,0.2l-0.1,0c0,0,0,0,0,0
						c-0.2,0-0.1,0.1-0.3,0.1c-0.1,0-0.1,0-0.1,0l-0.1,0.1c0,0,0,0,0,0l-0.2,0l0,0c0,0-0.1,0.1-0.1,0.1c-0.1,0,0,0,0,0l-0.1,0.1
						c-0.1,0,0-0.1,0.1-0.1c-0.1-0.1-0.1,0.1-0.4,0l0.1,0c-0.1-0.1-0.2,0-0.3,0c0,0,0.3,0.1,0.2,0.1c0,0-0.1,0-0.2,0.1
						c0,0-0.1,0-0.2,0l0-0.1c-0.1,0-0.1,0.1-0.1,0.1c-0.1,0-0.1,0-0.2-0.1c-0.2,0,0.1,0-0.1,0.1c-0.1,0-0.2,0.1-0.4,0.1
						c-0.1,0,0,0,0-0.1l-0.1,0.1c0,0,0,0,0,0c-0.1,0,0,0.1-0.1,0.1c0,0.1-0.3,0-0.4,0.1c0,0,0,0,0-0.1c-0.2,0.1-0.2,0.1-0.3,0.2
						l-0.1,0c0.1,0,0,0.1-0.1,0.2c0,0,0.1,0.1,0.1,0.2c0,0.1,0.1,0.1,0.1,0.2l-0.1,0.3c-0.1-0.1-0.1-0.3-0.2-0.5c0,0,0,0.1,0,0.1
						c0,0-0.1-0.1-0.1-0.2c0-0.1-0.1-0.1,0-0.1c0,0,0,0,0-0.1l0.1,0c0-0.1,0.1-0.1,0-0.1c0,0,0,0-0.1,0c0,0,0,0,0,0c0,0,0,0,0,0
						l-0.1-0.1l0,0l-0.2,0c-0.1,0.1-0.2,0.3-0.5,0.4c0-0.1,0-0.1,0-0.1c0.1,0,0.2-0.1,0.3-0.2c-0.1,0-0.1,0-0.1,0l-0.2,0.2
						c0,0-0.1,0-0.1,0c0.1,0.1-0.1,0.1-0.2,0.2c0,0,0-0.1,0.1-0.1c-0.2,0-0.1,0.2-0.3,0.2c0,0,0,0,0,0c-0.1,0.1-0.2,0.1-0.2,0.1l0,0
						c-0.2,0.1-0.6,0.3-0.6,0.4c0,0,0-0.1,0-0.1c0,0,0,0.1-0.1,0.2l0,0.1c0,0.1,0.1,0.3,0.1,0.4c0.1,0.2,0.1,0.4,0.1,0.4
						c-0.1-0.1-0.2-0.3-0.3-0.5l-0.1-0.1l0,0l0,0c0,0,0-0.1,0-0.2c0,0-0.1,0-0.2,0.1c0,0,0.1,0,0.1,0.1c-0.1,0-0.1,0-0.3,0
						c0.1,0,0.1,0.1,0,0.1c0,0-0.1-0.1,0-0.1l-0.1,0.2c0,0,0-0.1-0.1-0.1c0,0-0.1,0.1-0.2,0.1l0.1,0c-0.2,0.1-0.1,0.2-0.3,0.3
						c0,0,0-0.1-0.1-0.1c0,0,0,0.1,0,0.2l0,0l0,0.1l0.1,0.2c0.1,0.1,0.1,0.2,0.2,0.3c0.1,0.2,0.2,0.4,0.2,0.5l-0.2-0.2l0.1,0.3
						c-0.1-0.2-0.2-0.4-0.3-0.6c-0.1-0.1-0.1-0.2-0.2-0.3c0,0-0.1-0.1-0.1-0.2l0,0c0-0.1,0.1-0.2,0.1-0.3c-0.1,0,0,0-0.1,0.1
						c-0.1,0,0-0.1,0.1-0.1c0,0-0.2,0.2-0.2,0.2c0,0-0.1,0.2-0.1,0.2l0.2-0.2c0,0,0,0.3-0.2,0.4c-0.1,0,0-0.1,0-0.1
						c0,0-0.1,0.1-0.2,0.1l0.1-0.1c-0.1,0-0.1,0.2-0.2,0.2c0,0-0.2,0-0.1,0.1c0.1,0,0.1,0,0.2,0.1l0.1,0.1c0.1,0.1,0.2,0.2,0.2,0.3
						c0.1,0.2,0.3,0.4,0.3,0.5c0,0-0.5-0.3-0.8-0.5c0,0-0.1-0.1-0.1-0.1c0,0,0,0,0,0c0,0,0,0,0-0.1c0,0,0-0.1,0-0.1c0,0,0,0.1,0,0.1
						c0,0,0-0.1-0.1,0c0,0.1-0.2,0.1,0,0.1c-0.1,0.1-0.1,0.1-0.2,0.1c0,0,0,0,0,0.1c-0.1,0,0.1,0.3,0.1,0.4
						c-0.1-0.1-0.2-0.2-0.2-0.2c-0.2,0.1-0.3,0.2-0.4,0.3c0,0-0.1,0.1-0.1,0c0,0,0,0.1-0.1,0.1c-0.1,0,0.1-0.1,0-0.1
						c0,0-0.1,0.1-0.1,0.2c0.1,0,0.2-0.1,0.2-0.2c-0.1-0.1,0.4,0.6,0.4,0.9c0,0.2-0.3-0.2-0.3-0.1c-0.3,0.1,0.5,0.8,0,0.7
						c-0.3-0.2-0.5-0.5-0.7-0.6c0-0.2,0.3,0,0.4-0.1l-0.2,0c0-0.1,0-0.2,0.1-0.2c-0.1-0.1-0.1,0-0.2,0c0,0-0.1,0.1-0.1,0.1
						c-0.1,0.1-0.2,0.2-0.3,0.3c0,0.1-0.1,0.1,0,0.2l0-0.1c0.2,0.1,0.2,0.3,0.3,0.4c0.1,0.2,0.2,0.4,0,0.4l-0.3-0.2
						c0.1,0.1,0.2,0.1,0.2,0c0.1,0.1-0.5-0.2-0.2,0.2l0.2,0.1c0.1,0.2,0.2,0.5,0,0.5c0.3,0.2,0,0,0.4,0.2c-0.4-0.3,0.3-0.2-0.2-0.4
						c0.4,0.3,0.3,0,0.7,0.2c-0.1-0.1-0.2-0.1-0.1-0.1c0,0,0-0.1-0.1-0.1l0,0c0,0,0,0,0,0c0,0,0,0,0,0c-0.1,0-0.1-0.1-0.2-0.1
						c-0.2-0.2,0-0.3-0.1-0.4c0.1,0,0.1,0.1,0.2,0.2l-0.1-0.2c0.2,0.2,0.5,0.2,0.5,0.4l0.1-0.1c0.2,0.1,0.3,0.1,0.3-0.1
						c0.1,0-0.1-0.3,0-0.1l0-0.2l0.1,0.1c0.2-0.1,0-0.6,0.5-0.3c0-0.1,0-0.2,0.1-0.2l0.2,0.2c0-0.1,0.4,0.1,0.2-0.2
						c0.6,0.5,0.4,0,0.7,0l-0.2-0.3c0.1,0,0.1-0.2,0.1-0.3l-0.2-0.3c-0.1-0.3,0.4,0.1,0.5-0.1c0.1,0.1,0,0.1-0.1,0.1
						c0.6,0.6,0-0.7,0.5-0.3c0-0.1,0-0.1,0.1,0c0,0,0,0,0,0c0,0,0,0,0,0c0.1,0,0.1,0.1,0.2,0.1c-0.1-0.1-0.1-0.1-0.2-0.1
						c0,0,0-0.1,0-0.2l0.2,0.3c0,0,0,0,0,0c0.1,0.1-0.1-0.2-0.2-0.4c0-0.1,0-0.1-0.1-0.2c0.4,0.5,0-0.3,0.4,0.3
						c-0.1-0.3,0.1-0.3-0.2-1c0,0.1,0.1,0.1,0.1,0.1c0.1,0,0.2,0.1,0.1-0.1l0.3,0.4l-0.2-0.7c0.2,0.2,0.3,0.4,0.5,0.8
						c-0.1-0.6,0-0.3-0.1-0.9l0.2,0.3c0,0-0.1-0.5,0.1-0.2c0.4,0.5,0.6-0.2,1.2,0.3c-0.5-0.9,0.3,0.4,0-0.4c0.1,0.2,0.2,0.3,0.2,0.5
						c0.1-0.3,0.4,0.3,0.2-0.4c0.1,0.2,0.1,0.3,0.2,0.5c0-0.1,0-0.2,0-0.1c0.1,0.1,0.1,0.2,0.1,0.3c0.1-0.1-0.1-0.8-0.4-1.5
						c0.2,0.3,0.2,0.2,0.1-0.2c0.1,0.2,0.2,0.4,0.2,0.5c0.1,0,0.5,0.2,0.3-0.3c0.1,0.1,0.1,0,0.1-0.1c0.1,0,0.2,0,0.3-0.1l-0.1-0.1
						c-0.2-0.7,0.1-0.2,0.1-0.3l0,0.1c0.4,0.4,0-0.3,0.4,0.2l-0.1-0.4c-0.2-0.9,0.4,0.5,0.4,0.1l-0.1-0.2c0-0.3,0.5,1.2,0.6,1.3
						c0,0.1,0,0.1,0,0.2c0.3,0.5-0.1-0.6,0-0.7c0.1,0.3,0.1,0.8,0.2,0.8c0.1,0.2,0.1-1,0.3-0.5c-0.1-0.2-0.2-0.4-0.1-0.6
						c0.1-0.1,0.4,0.8,0.4,0.1c0,0.1,0,0.1,0.1,0.2c0-0.2,0.2-0.4,0.2-0.7c0.3,1.4,0.4-0.8,0.6,0.5l0.2-0.1l0,0.1
						c0.2,0,0.2-0.3,0.2-0.6c0,0.1,0,0.2,0,0.3c0.3,0.2,0.3,0.2,0.4-0.5l0,0.4c0-0.2,0.4,0.6,0.6,0.1c0,0,0,0.1,0,0.2
						c0.3-0.5,0.6,1,0.7-0.4l0.2-0.4c-0.2-0.1,0-0.6,0-0.8c0.1-0.1,0.2,0.4,0.1,0.5l0-0.1c-0.1,0.7,0.3,0.3,0.2,0.7
						c0.4-0.1,0.8,0.3,1.2,0.3l0-0.5l0.1,0c0,0.1,0,0.4-0.1,0.4c0,0.3,0.2-0.2,0.2-0.3c0.2,0.2-0.2,0.6-0.1,0.6l0.1,0l0-0.1
						c0.1-0.2,0.1-0.4,0.2-0.4c0.1,0.1,0,0.3,0,0.3c0,0,0,0,0,0l0.2,0l0-0.4c0.1-0.2,0.2,0,0.2-0.4c0,0.6,0.6,0.3,0.7,0.5
						c0.2-0.2,0.3-0.2,0.4-0.2c0-0.1,0-0.4,0.2-0.4c-0.2,0.7,0.1,0.3,0.1,0.8c0-0.3,0.4-0.1,0.3-0.5c0.1,0.1-0.1,0.2,0,0.4
						c0.3-0.2,0.5,0.2,0.8,0.2c0-0.1,0-0.2,0.1-0.3l0,0.4c0.1,0,0.2-0.4,0.2-0.1c0-0.1,0-0.1,0.1-0.2c0.2,0.2,0.6,0.2,0.9,0.2
						c0.3,0,0.6,0.2,0.8,0.3c-0.1-0.1,0-0.1,0.1,0c0,0,0-0.1,0-0.1c0,0,0.2,0.1,0.2,0.1c0.1-0.1,0.3,0,0.3,0l-0.1,0
						c0.1,0-0.1-0.2,0-0.2c-0.1,0-0.3-0.2-0.5-0.2c0,0,0,0,0,0c-0.1,0-0.1,0-0.2-0.1l0,0c-0.3-0.1-0.4-0.2-0.7-0.4l0,0
						c-0.1,0-0.1,0-0.1-0.1c-0.1,0,0.2,0.1,0.1,0.1c-0.1-0.1-0.5-0.2-0.5-0.3c-0.1,0,0,0-0.1,0l0,0l0,0c-0.1,0-0.1-0.1-0.1-0.1
						c0,0,0.1,0,0.1,0c-0.1-0.1-0.3-0.1-0.3-0.1l0.1,0.1c-0.3-0.1-0.7-0.3-1-0.3l0,0c-0.2,0-0.2-0.1-0.4-0.1l0,0c-0.1,0-0.1,0-0.2,0
						c0.1,0-0.1-0.1,0-0.1c-0.3,0-0.1,0-0.3,0l0,0c-0.1,0-0.1,0-0.2,0c0.1,0-0.1-0.1,0.1-0.1c-0.3-0.1-0.4,0-0.5-0.1
						c-0.1,0.1,0.2,0.1,0.2,0.1c0.1,0-0.1,0-0.2,0c-0.1,0-0.1-0.1-0.3-0.2c0,0,0,0,0,0c-0.1,0-0.2,0-0.3,0c-0.1,0-0.1,0-0.2,0l0.2,0
						c-0.1,0-0.2,0.1-0.4,0c0,0,0.1,0,0.1,0c-0.1,0-0.1,0-0.2,0c0-0.1,0.2,0,0.4,0c-0.1,0-0.2,0-0.2,0c-0.1,0.1-0.2,0-0.4,0l0,0
						c0,0-0.1,0-0.1,0l0.1,0c-0.1,0-0.2-0.1-0.3-0.1c0.2,0,0.1,0.1,0.1,0.1c-0.3,0-0.2-0.1-0.5-0.1c0,0,0.2,0,0.1,0.1
						c-0.1,0-0.1,0-0.2-0.1c-0.2,0,0,0-0.1,0.1c-0.1-0.1-0.1,0-0.2,0l0,0c-0.3,0-0.1,0.1-0.3,0l0.1-0.1l-0.1,0l0,0
						c-0.1,0-0.2,0-0.3,0c0,0,0,0.1-0.1,0.1c-0.1,0,0,0-0.1,0c0,0,0.1-0.1,0.1,0c0,0,0,0,0,0c-0.1,0-0.2,0-0.3,0c0,0,0,0,0.1,0
						c0,0-0.2,0.1-0.2,0.1c0,0,0,0,0,0c0,0-0.1,0-0.1,0c0,0,0-0.1,0.1-0.1l-0.2,0.1c0,0-0.1,0-0.1-0.1c-0.1,0-0.3,0.1-0.5,0.1
						c0,0,0,0-0.1,0c-0.2,0-0.3,0-0.5,0l-0.1-0.1c-0.1,0,0.1,0.1-0.1,0.1c-0.2,0-0.1-0.1-0.1-0.1c-0.1,0-0.2,0.1-0.4,0.1
						C157.5,115.8,157.5,115.8,157.6,115.8z M155.9,116.2c0,0,0.1-0.1,0.1,0C156,116.2,155.9,116.2,155.9,116.2z M153.4,117
						c0,0,0.1,0,0.1,0C153.5,117,153.4,117,153.4,117z M148.4,122.1C148.4,122.1,148.4,122.1,148.4,122.1
						C148.5,122.1,148.5,122.1,148.4,122.1z M148.2,122.1C148.2,122.2,148.3,122.2,148.2,122.1c0,0,0.1,0,0.1,0
						C148.2,122.1,148.2,122,148.2,122.1z M162.2,117.4L162.2,117.4C162.3,117.2,162.2,117.3,162.2,117.4z"/>
					<path fill="#FFFFFF" d="M153.6,116.9C153.7,116.9,153.7,116.9,153.6,116.9C153.7,116.9,153.7,116.9,153.6,116.9z"/>
					<polygon fill="#FFFFFF" points="158.7,115.7 158.7,115.7 158.7,115.7 					"/>
					<path fill="#FFFFFF" d="M148.9,119.5C149,119.5,149,119.5,148.9,119.5C149,119.4,149,119.4,148.9,119.5z"/>
					<path fill="#FFFFFF" d="M147.9,122.9L147.9,122.9c0-0.1-0.1-0.1-0.1-0.1C147.9,122.8,148,122.9,147.9,122.9z"/>
					<path fill="#FFFFFF" d="M146.2,122.5C146.2,122.5,146.1,122.5,146.2,122.5l0.1,0.1C146.3,122.5,146.2,122.4,146.2,122.5z"/>
					<path fill="#FFFFFF" d="M147.2,122.4c-0.2-0.1-0.2-0.1-0.2,0c0,0,0,0,0,0C147.3,122.6,147.2,122.5,147.2,122.4z"/>
					<path fill="#FFFFFF" d="M147,122.4C147,122.4,147,122.4,147,122.4C147.1,122.5,147,122.4,147,122.4z"/>
					<path fill="#FFFFFF" d="M148.2,122.3c-0.1,0,0.2,0.2,0.1,0.2C148.5,122.7,148.2,122.1,148.2,122.3z"/>
					<polygon fill="#FFFFFF" points="146.6,121.9 146.8,122.1 146.7,121.9 					"/>
					<path fill="#FFFFFF" d="M147.1,121.7l-0.1,0c0,0,0,0.1,0.1,0.1C147.1,121.7,147.2,121.7,147.1,121.7z"/>
					<path fill="#FFFFFF" d="M147.1,121.8C147,121.8,147,121.8,147.1,121.8C147.1,121.8,147.1,121.8,147.1,121.8z"/>
					<polygon fill="#FFFFFF" points="146.7,121.8 146.7,121.8 146.8,121.7 					"/>
					<path fill="#FFFFFF" d="M148,120.9l0-0.1c-0.1-0.1-0.1-0.1-0.1-0.1C148,120.8,147.9,120.8,148,120.9z"/>
					<path fill="#FFFFFF" d="M147.5,120.9C147.5,120.8,147.5,120.8,147.5,120.9L147.5,120.9L147.5,120.9z"/>
					<path fill="#FFFFFF" d="M147.8,120.6C147.8,120.6,147.9,120.5,147.8,120.6C147.7,120.6,147.7,120.7,147.8,120.6z"/>
					<path fill="#FFFFFF" d="M149.2,119.5L149.2,119.5l0.3,0.5c0,0-0.1-0.2-0.2-0.3C149.2,119.4,149.2,119.5,149.2,119.5z"/>
					<path fill="#FFFFFF" d="M150.4,118.4c-0.1,0.1,0,0.1-0.1,0.1c0,0,0.1,0,0.1,0C150.4,118.4,150.5,118.4,150.4,118.4z"/>
					<path fill="#FFFFFF" d="M150.3,118.5C150.3,118.5,150.3,118.5,150.3,118.5C150.3,118.5,150.3,118.5,150.3,118.5z"/>
					<polygon fill="#FFFFFF" points="167.6,118.1 167.7,118.1 167.7,118.1 					"/>
					<path fill="#FFFFFF" d="M167.8,118L167.8,118L167.8,118C167.9,118.1,167.8,118.1,167.8,118z"/>
					<path fill="#FFFFFF" d="M155.6,116.1L155.6,116.1C155.6,116.1,155.6,116.1,155.6,116.1L155.6,116.1z"/>
					<polygon fill="#FFFFFF" points="156.9,115.9 156.8,115.9 156.9,115.9 					"/>
					<path fill="#FFFFFF" d="M157.9,115.7c0,0-0.1,0-0.1,0C157.9,115.7,157.9,115.7,157.9,115.7z"/>
				</g>
			</g>
		</g>
	</g>
</g>
</svg>
