<?xml version="1.0" encoding="utf-8"?>
<!-- Generator: Adobe Illustrator 18.0.0, SVG Export Plug-In . SVG Version: 6.00 Build 0)  -->
<!DOCTYPE svg PUBLIC "-//W3C//DTD SVG 1.1//EN" "http://www.w3.org/Graphics/SVG/1.1/DTD/svg11.dtd">
<svg version="1.1" id="trees" xmlns="http://www.w3.org/2000/svg" xmlns:xlink="http://www.w3.org/1999/xlink" x="0px" y="0px"
	 viewBox="0 0 396 306" enable-background="new 0 0 396 306" xml:space="preserve">
<g id="back-tree">
	<g>
		<linearGradient id="SVGID_1_" gradientUnits="userSpaceOnUse" x1="339.0113" y1="306" x2="339.0113" y2="145.7771">
			<stop  offset="0.5492" style="stop-color:#D56859;stop-opacity:0.4"/>
			<stop  offset="1" style="stop-color:#D46456"/>
		</linearGradient>
		<path fill="url(#SVGID_1_)" d="M350.8,156.7c-2.2-4.1-5-7.7-8.2-10.9c-0.1,0.3-0.2,0.7-0.2,1c0.1,6.4,0.2,12.8,0.2,19.2l-14-15.7
			l-3,4.4l17.1,23.2c0.2-0.6,1.1,90.4,1.5,128.1h8.3C351.9,256.2,351.3,206.4,350.8,156.7z"/>
	</g>
	<g>
		<linearGradient id="SVGID_2_" gradientUnits="userSpaceOnUse" x1="377.0113" y1="306" x2="377.0113" y2="145.7771">
			<stop  offset="0.5492" style="stop-color:#D56859;stop-opacity:0.4"/>
			<stop  offset="1" style="stop-color:#D46456"/>
		</linearGradient>
		<path fill="url(#SVGID_2_)" d="M388.8,156.7c-2.2-4.1-5-7.7-8.2-10.9c-0.1,0.3-0.2,0.7-0.2,1c0.1,6.4,0.2,12.8,0.2,19.2l-14-15.7
			l-3,4.4l17.1,23.2c0.2-0.6,1.1,90.4,1.5,128.1h8.3C389.9,256.2,389.3,206.4,388.8,156.7z"/>
	</g>
	<linearGradient id="SVGID_3_" gradientUnits="userSpaceOnUse" x1="258.045" y1="305.5" x2="258.045" y2="179.4764">
		<stop  offset="0.5492" style="stop-color:#D56859;stop-opacity:0.4"/>
		<stop  offset="1" style="stop-color:#D46456"/>
	</linearGradient>
	<path fill="url(#SVGID_3_)" d="M261.7,214.3c6.6-22.7,4.3-29.6,4.2-27.1c-0.2,3.3-2.4,17.5-4.3,23.1l-0.7-24.7
		c-0.1-2-0.6-4.1-1.6-5.4c-0.8-1.1-1.8-0.7-1.7,1l1.9,70.2c-4.5-18.7-5.3-38.7-5.9-58.4c-0.1-1.9-3.8,0.8-3.8,2.7
		c0.8,23.5,9.6,69.7,10.1,69.5c0.4,13.5,0.7,27,1.1,40.5h3.2C263.8,291.2,262.1,229.4,261.7,214.3z"/>
	<linearGradient id="SVGID_4_" gradientUnits="userSpaceOnUse" x1="290.7269" y1="307.5" x2="290.7269" y2="176.3255">
		<stop  offset="0.5492" style="stop-color:#D56859;stop-opacity:0.4"/>
		<stop  offset="1" style="stop-color:#D46456"/>
	</linearGradient>
	<path fill="url(#SVGID_4_)" d="M298.2,217.4c-2.1-13,7.8-23,9.7-35.3c0.3-2-3.2,0.7-3.4,2.2c-1.2,8.2-5.8,15.2-8.3,22.8
		c-0.4-7.9-0.7-15.9-1.1-23.8c-0.1-2.2-2.1-4.5-1.9-1.1c0.5,10.7,1,21.4,1.5,32c-0.2,2-0.1,4,0.2,6.1c0,0.1,0,0.2,0.1,0.3l2.2,49.5
		c-2.8-32-9.7-63.4-20.4-93.1c-0.4-1-3.4-0.8-3,0.4c14.9,41.1,22.3,85.5,21.8,130.2h3.1c0-1.6,0-3.2,0-4.9c0.1,1.6,0.1,3.2,0.2,4.9
		h1.9c-1.3-29.2-2.6-58.3-4-87.5C297.5,219.3,298.3,218.2,298.2,217.4z"/>
	<linearGradient id="SVGID_5_" gradientUnits="userSpaceOnUse" x1="320.1716" y1="306" x2="320.1716" y2="177.9168">
		<stop  offset="0.5492" style="stop-color:#D56859;stop-opacity:0.4"/>
		<stop  offset="1" style="stop-color:#D46456"/>
	</linearGradient>
	<path fill="url(#SVGID_5_)" d="M317.3,253.6c-0.3-22.9,0.1-45.8,1.2-68.7c-2.1,1-4.3,1.1-6.6,0.8c-2,40.1-1.9,80.3,0.3,120.3h7
		c-0.5-7.7-0.8-15.5-1.2-23.2c0.8-0.1,8.4-69,11.8-89.8c-0.1-4.9-0.1-9.8-0.2-14.6c0-0.3,0-0.4,0-0.4
		C321.6,215,317.3,254.1,317.3,253.6z"/>
	<linearGradient id="SVGID_6_" gradientUnits="userSpaceOnUse" x1="284.3925" y1="305.5" x2="284.3925" y2="182.0022">
		<stop  offset="0.5492" style="stop-color:#D56859;stop-opacity:0.4"/>
		<stop  offset="1" style="stop-color:#D46456"/>
	</linearGradient>
	<path fill="url(#SVGID_6_)" d="M283.8,182c-0.9,25.3-2.8,83.8-3.8,123.5h7.4c0.4-37.8,0.9-86.1,1.3-123
		C287.1,182.2,285.4,181.9,283.8,182z"/>
	<linearGradient id="SVGID_7_" gradientUnits="userSpaceOnUse" x1="215.039" y1="305.5" x2="215.039" y2="181.1504">
		<stop  offset="0.5492" style="stop-color:#D56859;stop-opacity:0.4"/>
		<stop  offset="1" style="stop-color:#D46456"/>
	</linearGradient>
	<path fill="url(#SVGID_7_)" d="M219.7,181.3c-0.9,0.3-1.4,0.7-2.4,0.7c0,11.6,0.1,23.2,0.1,34.7c-4.1-8.7-6.8-18.5-7.9-28.9
		c-1.4-0.1-2.8-0.7-4.2-1.3c1.1,15.1,5.3,29.2,12.2,40.6c0.1,26.1,0.2,52.2,0.3,78.3h5c0-5.9,0-11.8-0.1-17.6
		c0.1,5.9,0.1,11.8,0.1,17.6h2.1c-0.1-32.6-0.9-65.1-2.5-97.6c0-8.8-0.1-17.5-0.1-26.3C221.5,181.2,220.7,181,219.7,181.3z"/>
	<linearGradient id="SVGID_8_" gradientUnits="userSpaceOnUse" x1="135.3118" y1="305.5" x2="135.3118" y2="204.4538">
		<stop  offset="0" style="stop-color:#D46456"/>
		<stop  offset="0.4508" style="stop-color:#D56859;stop-opacity:0.4"/>
	</linearGradient>
	<path fill="url(#SVGID_8_)" d="M141.3,205.7c-0.6-0.4-1.3-0.9-2-1.3v47.9c-1.7-15.3-3.9-30.3-6.6-45.1c-0.8,0.1-1.6,0-2.4-0.2
		c-0.9-0.3-1.7-0.8-2.4-1.4c6,32.1,9.4,65.8,10.1,99.8h4.8c-0.1-5.7-0.3-11.4-0.6-17v-82.8C141.9,205.9,141.6,206,141.3,205.7z"/>
	<linearGradient id="SVGID_9_" gradientUnits="userSpaceOnUse" x1="185.8656" y1="305.5" x2="185.8656" y2="207.5458">
		<stop  offset="0" style="stop-color:#D46456"/>
		<stop  offset="0.4508" style="stop-color:#D56859;stop-opacity:0.4"/>
	</linearGradient>
	<path fill="url(#SVGID_9_)" d="M186.3,305.5h4.2c-0.8-32.4-2.5-64.8-5-97.1c-1.5-0.5-2.9-0.8-4.3-0.8
		C183.7,240.1,185.4,272.8,186.3,305.5z"/>
	<linearGradient id="SVGID_10_" gradientUnits="userSpaceOnUse" x1="29.3656" y1="305.5" x2="29.3656" y2="207.5458">
		<stop  offset="0" style="stop-color:#D46456"/>
		<stop  offset="0.4508" style="stop-color:#D56859;stop-opacity:0.4"/>
	</linearGradient>
	<path fill="url(#SVGID_10_)" d="M29.6,305.5h2c-0.4-32.4-1.2-64.8-2.3-97.1c-0.7-0.5-1.3-0.8-2-0.8
		C28.4,240.1,29.2,272.8,29.6,305.5z"/>
	<linearGradient id="SVGID_11_" gradientUnits="userSpaceOnUse" x1="195.8624" y1="305.5" x2="195.8624" y2="182.5">
		<stop  offset="0.5492" style="stop-color:#D56859;stop-opacity:0.4"/>
		<stop  offset="1" style="stop-color:#D46456"/>
	</linearGradient>
	<path fill="url(#SVGID_11_)" d="M196.3,182.5c0.4,11.8,0.9,23.5,1.3,35.3c-2.6-8-8.1-25.3-10.8-33.7c-0.4,0.3-0.8,0.7-1.3,1
		c3.7,12.5,12,45.9,12.6,45.9c0.9,24.8,1.8,49.6,2.7,74.5h5.5c-1.5-40.4-2.9-80.8-4.4-121.3c-1.5-0.3-2.9-0.8-4.3-1.5
		C197.1,182.7,196.7,182.6,196.3,182.5z"/>
	<linearGradient id="SVGID_12_" gradientUnits="userSpaceOnUse" x1="156.0005" y1="305.5" x2="156.0005" y2="209.8553">
		<stop  offset="0" style="stop-color:#D46456"/>
		<stop  offset="0.4508" style="stop-color:#D56859;stop-opacity:0.4"/>
	</linearGradient>
	<path fill="url(#SVGID_12_)" d="M159.8,210.8l-0.7,20.3c-0.1,0.4-0.2,0.8-0.3,1.1c-0.1,0.3,0,0.5,0.3,0.6l-0.1,3.5
		c-1.1-8.9-3.1-17.6-5.9-25.9c-0.9-0.1-1.7-0.3-2.6-0.6c4.7,14.3,7.6,40.1,8,40.8l-1.8,54.8h1.7c1-30.4,2.4-74,3.1-94.5
		c0,0-0.1,0-0.1,0C160.8,210.9,160.3,210.8,159.8,210.8z"/>
	<linearGradient id="SVGID_13_" gradientUnits="userSpaceOnUse" x1="6.5108" y1="305.5" x2="6.5108" y2="209.8553">
		<stop  offset="0" style="stop-color:#D46456"/>
		<stop  offset="0.4508" style="stop-color:#D56859;stop-opacity:0.4"/>
	</linearGradient>
	<path fill="url(#SVGID_13_)" d="M10.3,210.8l-0.7,20.3c-0.1,0.4-0.2,0.8-0.3,1.1c-0.1,0.3,0,0.5,0.3,0.6l-0.1,3.5
		c-1.1-8.9-3.1-17.6-5.9-25.9c-0.9-0.1-1.7-0.3-2.6-0.6c4.7,14.3,7.6,40.1,8,40.8l-1.8,54.8H9c1-30.4,2.4-74,3.1-94.5
		c0,0-0.1,0-0.1,0C11.4,210.9,10.8,210.8,10.3,210.8z"/>
	<linearGradient id="SVGID_14_" gradientUnits="userSpaceOnUse" x1="230.3664" y1="305.5" x2="230.3664" y2="179.1496">
		<stop  offset="0.5492" style="stop-color:#D56859;stop-opacity:0.4"/>
		<stop  offset="1" style="stop-color:#D46456"/>
	</linearGradient>
	<path fill="url(#SVGID_14_)" d="M238,181.6c-0.9-0.2-1.8-0.4-2.7-0.8c-0.6,21.6-1.2,43.1-1.8,64.7c-1.8-12.2-7.9-49.8-10.6-66.1
		c-0.4-0.1-0.7-0.1-1.1-0.2c-0.9,0.1-1.8,0.2-2.7,0.1c7.5,32.8,13.2,81.4,12.5,111.4c0,0.5,0.2,0.8,0.5,0.9
		c-0.1,4.6-0.3,9.3-0.4,13.9h6.3c1.2-43.8,2.7-95.1,3.5-124.1C240.4,181.7,239.2,181.8,238,181.6z"/>
</g>
<g id="leaves">
	<path opacity="0.83" fill="#FF8D6A" d="M285.1,94c0,0-5.3-7.4-8.9-1.6S285.1,94,285.1,94z"/>
	<path opacity="0.83" fill="#FF8D6A" d="M388,108.7c-2.4-0.9-3.7-1.6-4.3-5c-0.2-1.2,0-2.5,0-3.7c0-2-0.1-3.9-0.7-5.8
		c-1-3.5-3.2-6.6-5.9-8.6c-1.4-1-2.9-1.8-4.5-2.2c-1.6-0.4-9.2,0-8.9-2.3c0.3-2.4-2.6-4.2-3.8-1.7c-0.4,0.8-0.7,1.6-1,2.4
		c-7.3-6.4-14.8-10.8-24.7-9.5c-7.2,0.9-15.4,4.9-17.8,12.9c-0.1-0.1-0.3-0.1-0.4-0.2c-1.8-1-3.5,1-2.9,2.8
		c-4.7-2.7-10.1-3.5-15.4-2c-4.1,1.2-10.5,4.9-10.6,10.1c-0.5,0.2-1,0.4-1.5,0.7c-3,1.5-5.9,3.3-8.8,5.2c-2.1,1.4-5.2,2.9-6.3,5.6
		c-3.3,8.2,13.4,9.6,22.9,9.6c-0.8,1.8,1.3,4.4,2.9,3c1-0.8,1.2,6.2,1.2,6.6c0.2,1.2,0.5,2.4,1,3.4c1.1,2.4,2.9,4.3,5,5.7
		c5.1,3.3,10.9,2.4,16.2,0.5c0.4,1.9,1.2,3.6,2.9,4.5c1.7,0.9,4,0.7,5.3-1c0.4-0.5,1-3,0.9-3c0,0,3.9,2.2,4.3,2.3
		c4.1,1.9,8.4,3.3,12.8,4.2c7.9,1.6,16.3,1.8,24.1-0.1c2.4-0.6,5.2-1.7,6.1-4.6c0.1-0.5,0.2-0.9,0.2-1.4c1,0.3,1.9,0.6,2.9,1.1
		c1.3,0.6,3.3-0.1,3.1-2c0-0.5-0.1-0.9-0.2-1.3c4.5,0.9,9.4,1.8,13.6,0.7v-24C393.4,110.3,390.7,109.7,388,108.7z"/>
	<g>
		<path fill="#FDC576" d="M34.9,201.8c0,0-5.6-0.9-3.1-2.2C34.3,198.4,34.9,201.8,34.9,201.8z"/>
		<path fill="#FDC576" d="M93.4,212.6c-1.8-1-3.7-1.9-5.7-2.7c-0.1-0.1-0.2-0.1-0.3-0.2c0.7-0.3,1.5-0.5,2.2-0.8
			c1.1-0.4,1-1.6,0.1-2.1c-0.6-0.4-1.2-0.5-1.9-0.6c-1.8-0.2-2.3-0.5-2.9-2c-0.5-1.3-0.4-2.2-1.6-3.3c-2.5-2.3-6.2-2.4-9.6-2
			c0-0.1,0.1-0.3,0.1-0.4c0.2-1.3-2.6-1.8-2.9-0.5c0,0.1-0.1,0.3-0.1,0.4c-0.5,0.7-5.4-1.8-5.9-1.9c-1.6-0.6-3.3-1-5.1-1.2
			c-2.1-0.2-3.8,0.1-5.9,0.2c-2.2,0.1-4-0.9-6.1-1c-5.9-0.4-11.1,3.3-11.6,7.8c0,0.1,0,0.2,0,0.2c-1.8,0.3-3.5,0.9-5.1,1.7
			c-1.3,0.6-0.8,2.1,0.7,2.3c2.1,0.3,4.3,0.5,6.4,0.8c-0.2,0.2-0.4,0.4-0.7,0.6c-1.2,0.7,0,2.3,1.4,2.1c0.7-0.1,1.5-0.3,2.2-0.4
			c0.1,0.7,0.1,1.4,0.2,2.1c0.1,0.7,0.6,1.2,1.4,1.3c1.2,0.1,1.8-0.3,2.9-0.5c2-0.5,3.1,0.2,4.7,1.2c2.1,1.3,4,2.5,6.7,2.9
			c2.1,0.3,4.2,0.2,6.2-0.4c1.2-0.4,2.1-1,3.2-1.5c1.8-0.7,3.8,0.4,5.5,0.9c1.4,0.4,2.2-0.8,1.8-1.7c-0.1-0.2-0.2-0.4-0.3-0.5
			c1.5,0.2,3.1,0.4,4.6,0.6c3.2,1.1,6.7,1.5,10.1,1.1c1.1,0.1,2.2,0.2,3.2,0.3c0.7,0.1,1.3-0.3,1.5-0.8
			C94,214.7,94.7,213.3,93.4,212.6z"/>
	</g>
	<g>
		<path fill="#FF8D6A" d="M145.3,202.9c-1.4-3.2-4.2-5.1-7.2-6.6c1.1-0.2,2.1-0.5,3.2-0.7c1.8-0.4,1.1-2.8-0.4-3
			c-1.9-0.2-3.9-0.3-5.8-0.4c0.2-2.4,0.1-5-2-6.7c-1.5-1.2-3.5-1.5-5.1-0.7c-3.2-2.9-7.1-4.9-11.5-5.4c-3-0.4-6.4-0.2-8.6,1.8
			c-0.8-1-1.7-1.8-2.8-2.5c-1.1-0.7-2.6,0.5-2.2,1.7c0,0.1,0.1,0.3,0.1,0.4c-6.7-2.4-18.8-3.5-19.9,3.3c-2.9-0.7-6.3-0.8-8.3,1.8
			c-1.1,1.4-1.5,3.2-1,4.7c-0.7,0.1-1.5,0.1-2.2,0.2c-1.1,0.1-2.2,1.7-1,2.6c0.8,0.6,1.6,1.1,2.4,1.5c-1.7,1.8-3.2,3.9-3.3,6.5
			c-0.1,3.3,2.1,6.1,4.6,7.9c5.7,4.1,13.4,4.2,19.5,1.1c3.3,3.5,7.6,5.8,12.4,6.3c3.7,0.4,8.2-0.4,10.4-3.7c0.8,0.4,1.5,1,2.2,1.6
			c1.2,1.2,3.3-0.4,2.3-1.9c-0.4-0.6-0.7-1.2-1.1-1.8c7.5-2.6,16.1,6.4,23.3,0.2C146,209.3,146.6,205.9,145.3,202.9z"/>
		<g>
			<path fill="#FF8D6A" d="M72.4,190c0,0-7.1-0.7-4.1-2.4C71.3,185.9,72.4,190,72.4,190z"/>
			<path fill="#FF8D6A" d="M70.8,190.8c0,0-2.2-1.8-3.4,0.3C66.2,193.1,69.9,190,70.8,190.8z"/>
		</g>
	</g>
	<g>
		<path fill="#F89A51" d="M108.6,178.7c0,0-8.4-1.4-4.7-3.2S108.6,178.7,108.6,178.7z"/>
		<path fill="#F89A51" d="M195.8,194.6c-2.7-1.6-5.5-2.9-8.5-4c-0.2-0.1-0.3-0.2-0.5-0.3c1.1-0.4,2.2-0.8,3.3-1.2
			c1.6-0.6,1.5-2.3,0.2-3.1c-1-0.5-1.7-0.8-2.9-1c-2.6-0.4-3.5-0.7-4.4-2.9c-0.8-1.9-0.6-3.3-2.4-5c-3.8-3.4-9.2-3.5-14.3-3
			c0-0.2,0.1-0.4,0.1-0.6c0.2-2-3.8-2.6-4.4-0.7c-0.1,0.2-0.1,0.4-0.2,0.6c-0.8,1-8.1-2.7-8.7-2.9c-2.4-0.9-5-1.4-7.6-1.7
			c-3.1-0.3-5.7,0.2-8.7,0.3c-3.2,0.1-5.9-1.3-9.1-1.5c-8.8-0.5-16.6,4.9-17.3,11.7c0,0.1,0,0.2,0,0.3c-2.7,0.5-5.2,1.3-7.6,2.5
			c-2,0.9-1.3,3.1,1,3.4c3.2,0.4,6.4,0.8,9.6,1.2c-0.3,0.3-0.7,0.6-1.1,0.9c-1.8,1.1-0.1,3.5,2,3.1c1.1-0.2,2.2-0.4,3.3-0.6
			c0.1,1.1,0.2,2.1,0.3,3.2c0.1,1,0.8,1.8,2.2,1.9c1.8,0.1,2.7-0.4,4.3-0.8c3-0.7,4.7,0.3,7,1.8c3.2,2,6,3.7,10,4.3
			c3.1,0.5,6.3,0.3,9.2-0.6c1.8-0.5,3.1-1.5,4.8-2.2c2.7-1.1,5.6,0.5,8.2,1.4c2,0.6,3.3-1.2,2.7-2.5c-0.1-0.3-0.3-0.5-0.4-0.8
			c2.3,0.3,4.6,0.6,6.9,0.8c4.8,1.6,9.9,2.2,15,1.7c1.6,0.2,3.2,0.4,4.8,0.5c1,0.1,1.9-0.5,2.2-1.2
			C196.6,197.8,197.7,195.7,195.8,194.6z"/>
	</g>
	<g>
		<path fill="#FDC576" d="M137.9,197.9c0,0-5.6-0.9-3.1-2.2C137.3,194.5,137.9,197.9,137.9,197.9z"/>
		<path fill="#FDC576" d="M196.4,208.6c-1.8-1-3.7-1.9-5.7-2.7c-0.1-0.1-0.2-0.1-0.3-0.2c0.7-0.3,1.5-0.5,2.2-0.8
			c1.1-0.4,1-1.6,0.1-2.1c-0.6-0.4-1.2-0.5-1.9-0.6c-1.8-0.2-2.3-0.5-2.9-2c-0.5-1.3-0.4-2.2-1.6-3.3c-2.5-2.3-6.2-2.4-9.6-2
			c0-0.1,0.1-0.3,0.1-0.4c0.2-1.3-2.6-1.8-2.9-0.5c0,0.1-0.1,0.3-0.1,0.4c-0.5,0.7-5.4-1.8-5.9-1.9c-1.6-0.6-3.3-1-5.1-1.2
			c-2.1-0.2-3.8,0.1-5.9,0.2c-2.2,0.1-4-0.9-6.1-1c-5.9-0.4-11.1,3.3-11.6,7.8c0,0.1,0,0.2,0,0.2c-1.8,0.3-3.5,0.9-5.1,1.7
			c-1.3,0.6-0.8,2.1,0.7,2.3c2.1,0.3,4.3,0.5,6.4,0.8c-0.2,0.2-0.4,0.4-0.7,0.6c-1.2,0.7,0,2.3,1.4,2.1c0.7-0.1,1.5-0.3,2.2-0.4
			c0.1,0.7,0.1,1.4,0.2,2.1c0.1,0.7,0.6,1.2,1.4,1.3c1.2,0.1,1.8-0.3,2.9-0.5c2-0.5,3.1,0.2,4.7,1.2c2.1,1.3,4,2.5,6.7,2.9
			c2.1,0.3,4.2,0.2,6.2-0.4c1.2-0.4,2.1-1,3.2-1.5c1.8-0.7,3.8,0.4,5.5,0.9c1.4,0.4,2.2-0.8,1.8-1.7c-0.1-0.2-0.2-0.4-0.3-0.5
			c1.5,0.2,3.1,0.4,4.6,0.6c3.2,1.1,6.7,1.5,10.1,1.1c1.1,0.1,2.2,0.2,3.2,0.3c0.7,0.1,1.3-0.3,1.5-0.8
			C197,210.7,197.7,209.3,196.4,208.6z"/>
	</g>
	<g>
		<path fill="#F89A51" d="M261.2,120.8c0,0-8.7-3-4.2-4.7S261.2,120.8,261.2,120.8z"/>
		<g>
			<path fill="#F89A51" d="M215.7,156.8c0,0-10.8,5.6-8.1,0.4C210.3,152,215.7,156.8,215.7,156.8z"/>
			<path fill="#F89A51" d="M214,159.5c0,0-4.8-0.6-4.6,3.5C209.7,167.1,212.1,159.2,214,159.5z"/>
		</g>
		<path fill="#F89A51" d="M210.1,143.4c0,0-4-5.6-8.5-4.9C201.6,138.5,193,146.4,210.1,143.4z"/>
		<path fill="#F89A51" d="M346.8,142.4c1.1-1.9,1.2-4.1,0.3-6.4c-1.5-3.6-5.3-5.3-9.1-6.3c0.3-0.9,0.6-1.8,0.9-2.7
			c0.6-1.8-1.3-3.1-3.1-2.8c-2.1,0.3-2.7,1.5-4.4,2.5c-3.2,1.8-5.4-2.4-7.4-4.6c-4.1-4.3-8.8-8.2-14.2-11.1
			c-9.8-5.3-21.5-6.9-32.1-2.8c-4.5,1.8-8.7,4.5-11.6,8.2c-1.3,1.6-2.1,4.8-3.5,6.1c-1.5,1.3-2,0.4-3.6-0.2
			c-1.2-0.5-2.4-0.9-3.6-1.2c-4.6-1-9.6-0.5-13.9,1.2c-2.1,0.9-4.1,2.1-5.8,3.6c-2.5,2.3-3.7,4.7-7.5,5.4c-4.7,0.8-14.4,0-17.1,4.6
			c-2.4,4,2.5,7.2,6.4,9.4c-3.1,0.9-6.3,1.9-9.4,2.8c-2.3,0.7-2.5,3.9,0,4.4c3.5,0.8,7,1.3,10.6,1.6c-0.7,12.1,11.3,21.7,24.3,18.4
			c0.4,0.6,0.8,1.3,1.3,1.9c1.1,1.6,3.7,1.4,4.4-0.3c9.9,4.4,21.5,3.9,32.3,4.2c7.3,0.2,14.6,0.4,21.9,0.6
			c5.5,0.1,10.7,0.1,15.6-2.4c1.1-0.5,1.3-1.6,1.1-2.6c-0.2-1-0.4-2-0.8-2.8c5.2-0.3,10.1,0.8,14.7,3.2c2.4,1.3,5.1-1.8,3-3.6
			c-1.5-1.3-2.9-2.6-4.4-3.9c5.7-1,11.3-2.1,17-3.1c3.7-0.7,8-1.4,10.3-4.5C364.2,152.3,353.3,145.8,346.8,142.4z"/>
	</g>
	<g>
		<path fill="#FF8D6A" d="M297.6,163.6c0,0-6.4-1.7-3.6-3.9S297.6,163.6,297.6,163.6z"/>
		<path fill="#FF8D6A" d="M364.3,183c-2.1-1.9-4.2-3.5-6.5-4.9c-0.1-0.1-0.3-0.2-0.4-0.3c0.8-0.5,1.7-0.9,2.5-1.4
			c1.2-0.7,1.1-2.8,0.1-3.7c-0.7-0.6-1.3-1-2.2-1.2c-2-0.4-2.7-0.8-3.3-3.5c-0.6-2.3-0.5-4.1-1.9-6c-2.9-4.1-7-4.3-11-3.6
			c0-0.2,0.1-0.5,0.1-0.7c0.2-2.4-2.9-3.2-3.4-0.8c0,0.2-0.1,0.5-0.1,0.7c-0.6,1.2-6.2-3.2-6.7-3.5c-1.9-1.1-3.8-1.8-5.8-2.1
			c-2.4-0.4-4.4,0.3-6.7,0.3c-2.5,0.1-4.5-1.5-6.9-1.8c-6.7-0.7-12.7,5.9-13.2,14.2c0,0.1,0,0.3,0,0.4c-2,0.6-4,1.6-5.8,3
			c-1.5,1.1-1,3.8,0.7,4.1c2.4,0.5,4.9,0.9,7.3,1.4c-0.2,0.4-0.5,0.7-0.8,1.1c-1.4,1.3,0,4.2,1.6,3.7c0.8-0.2,1.7-0.5,2.5-0.7
			c0.1,1.3,0.2,2.6,0.2,3.9c0.1,1.2,0.6,2.2,1.6,2.3c1.4,0.2,2-0.5,3.3-0.9c2.3-0.8,3.6,0.4,5.3,2.1c2.4,2.4,4.6,4.5,7.6,5.3
			c2.3,0.6,4.8,0.3,7-0.7c1.4-0.7,2.4-1.8,3.7-2.6c2.1-1.3,4.3,0.6,6.3,1.6c1.6,0.8,2.5-1.4,2-3c-0.1-0.3-0.2-0.7-0.3-1
			c1.8,0.4,3.5,0.7,5.3,1c3.7,2,7.6,2.7,11.5,2.1c1.2,0.2,2.5,0.4,3.7,0.6c0.8,0.1,1.4-0.6,1.7-1.4
			C364.9,186.8,365.8,184.3,364.3,183z"/>
	</g>
	<g>
		<path fill="#E47B52" d="M257.6,177.3c-1.8-3.6-5.7-5.7-9.7-7.3c1.5-0.3,2.9-0.5,4.4-0.8c2.4-0.5,1.5-3.1-0.6-3.3
			c-2.6-0.2-5.2-0.4-7.9-0.4c0.3-2.7,0.1-5.6-2.7-7.4c-2-1.4-4.8-1.7-6.9-0.8c-4.3-3.3-9.7-5.4-15.6-5.9c-4-0.4-8.6-0.2-11.7,2
			c-1.1-1.1-2.3-2-3.8-2.7c-1.5-0.7-3.6,0.5-3,1.9c0.1,0.1,0.1,0.3,0.2,0.4c-9.1-2.6-25.5-3.9-27,3.6c-4-0.8-8.5-0.8-11.2,2
			c-1.5,1.6-2,3.5-1.4,5.2c-1,0.1-2,0.2-3,0.2c-1.5,0.1-3,1.9-1.4,2.9c1.1,0.7,2.2,1.2,3.3,1.7c-2.4,2-4.4,4.4-4.5,7.2
			c-0.1,3.6,2.8,6.7,6.3,8.7c7.8,4.5,18.2,4.6,26.5,1.3c4.4,3.9,10.4,6.4,16.9,7c5.1,0.4,11.1-0.5,14.1-4.1c1.1,0.5,2.1,1.1,3,1.8
			c1.6,1.3,4.4-0.4,3.2-2.1c-0.5-0.6-1-1.3-1.5-1.9c10.1-2.9,21.8,7.1,31.6,0.2C258.6,184.4,259.4,180.7,257.6,177.3z"/>
		<g>
			<path fill="#E47B52" d="M158.7,163.1c0,0-9.7-0.8-5.6-2.6C157.2,158.6,158.7,163.1,158.7,163.1z"/>
			<path fill="#E47B52" d="M156.5,163.9c0,0-2.9-2-4.6,0.3C150.3,166.5,155.3,163.1,156.5,163.9z"/>
		</g>
	</g>
	<g>
		<path fill="#F89A51" d="M2.4,220.8c0.1,0.7,0.6,1.3,1.6,1.4c1.4,0.1,2-0.3,3.3-0.6c2.3-0.5,3.5,0.2,5.3,1.3
			c2.4,1.5,4.5,2.8,7.6,3.3c2.3,0.4,4.7,0.2,6.9-0.4c1.4-0.4,2.3-1.1,3.6-1.6c2-0.8,4.3,0.4,6.2,1c1.5,0.5,2.5-0.9,2-1.9
			c-0.1-0.2-0.2-0.4-0.3-0.6c1.7,0.2,3.5,0.4,5.2,0.6c3.6,1.2,7.5,1.7,11.3,1.3c1.2,0.1,2.4,0.3,3.6,0.4c0.7,0.1,1.4-0.4,1.7-0.9
			c1.6-0.1,2.4-1.6,1-2.5c-2.1-1.2-4.2-2.2-6.4-3c-0.1-0.1-0.2-0.1-0.4-0.2c0.8-0.3,1.7-0.6,2.5-0.9c1.2-0.4,1.1-1.8,0.1-2.3
			c-0.7-0.4-1.3-0.6-2.2-0.7c-2-0.3-2.6-0.5-3.3-2.2c-0.6-1.4-0.5-2.5-1.9-3.8c-2.8-2.5-6.9-2.7-10.8-2.2c0-0.1,0.1-0.3,0.1-0.4
			c0.2-1.5-2.9-2-3.3-0.5c0,0.2-0.1,0.3-0.1,0.5c-0.6,0.8-6.1-2-6.6-2.2c-1.8-0.7-3.8-1.1-5.7-1.3c-2.3-0.2-4.3,0.2-6.6,0.2
			c-2.4,0.1-4.5-1-6.8-1.1c-3.8-0.2-7.4,1-9.8,3.1v14.2c0.7-0.1,1.4-0.3,2.1-0.4C2.2,219.2,2.3,220,2.4,220.8z"/>
		<path fill="#E58154" d="M385.4,80.5c-8,1.1-17.1,6.2-19.6,16.2c-0.2-0.1-0.3-0.2-0.5-0.3c-2-1.2-3.9,1.2-3.2,3.5
			c-5.2-3.4-11.2-4.5-17-2.6c-4.5,1.4-11.7,6.2-11.7,12.7c-0.5,0.3-1.1,0.6-1.6,0.9c-3.4,1.9-6.6,4.1-9.7,6.5c-2.4,1.8-5.8,3.6-7,7
			c-3.6,10.4,14.9,12.1,25.3,12.1c-0.9,2.2,1.4,5.5,3.3,3.8c1.1-1,1.3,7.8,1.4,8.3c0.2,1.5,0.6,3,1.1,4.4c1.2,3,3.2,5.4,5.5,7.1
			c5.6,4.2,12.1,3.1,18,0.7c0.5,2.4,1.4,4.6,3.2,5.7c1.9,1.2,4.5,0.9,5.9-1.2c0.4-0.7,1.1-3.8,1-3.8c0.1,0,4.4,2.7,4.8,2.9
			c3.7,1.9,7.6,3.5,11.5,4.6V81.3C392.7,80.3,389.2,80,385.4,80.5z"/>
	</g>
</g>
<g id="tree-branch">
	<g>
		<path fill="#D56859" d="M274.4,161c-2.5-3.9-5.7-7.5-9.4-10.5c-0.1,0.3-0.2,0.7-0.2,1c0.1,6.2,0.2,12.4,0.3,18.5l-16.1-15.2
			l-3.4,4.3l19.6,22.5c0.2-0.6,1.2,87.4,1.7,123.9h9.5C275.7,257.3,275,209.2,274.4,161z"/>
	</g>
	<path fill="#D56859" d="M175.3,229.7c7.5-18.9,4.9-24.6,4.8-22.5c-0.2,2.8-2.7,14.5-4.9,19.2l-0.8-20.6c-0.1-1.6-0.7-3.4-1.9-4.5
		c-0.9-0.9-2-0.6-2,0.8l2.1,58.3c-5.2-15.6-6.1-32.2-6.8-48.5c-0.1-1.6-4.4,0.7-4.3,2.2c0.9,19.5,11,57.9,11.6,57.8
		c0.4,11.2,0.8,22.4,1.2,33.6h3.7C177.7,293.6,175.8,242.3,175.3,229.7z"/>
	<path fill="#D56859" d="M210.2,218.3c-2.4-12.6,9-22.2,11-34.1c0.3-2-3.7,0.7-3.9,2.1c-1.4,7.9-6.6,14.7-9.5,22
		c-0.4-7.7-0.8-15.3-1.2-23c-0.1-2.1-2.4-4.3-2.2-1c0.6,10.3,1.1,20.7,1.7,31c-0.2,1.9-0.2,3.8,0.2,5.9c0,0.1,0.1,0.2,0.1,0.2
		l2.6,47.9c-3.2-30.9-11.1-61.3-23.4-90.1c-0.4-1-3.9-0.8-3.4,0.3c17,39.8,25.5,82.7,24.9,125.9h3.6c0-1.6,0-3.1,0-4.7
		c0.1,1.6,0.2,3.1,0.3,4.7h2.2c-1.5-28.2-3-56.4-4.5-84.6C209.5,220.2,210.3,219.1,210.2,218.3z"/>
	<path fill="#D56859" d="M396,172.6c-7.9,7.6-14.1,16.1-18.3,25.1l13,107.8h-14l-9.9-139.3c0,0,0-0.1,0-0.1
		c-0.4-1.8-0.9-3.6-1.4-5.3c1.6-3.3,3.7-6.5,6.1-9.4l5.6,40.6c3.2-5.6,7-11,11.6-16.1c0.1-3.2,0.3-6.4,0.4-9.6
		c0.1-1.6,3.6-3.3,3.5-0.9c-0.1,2.2-0.2,4.4-0.3,6.7c1.3-1.3,2.6-2.5,3.9-3.8V172.6z M371.2,150.3l-3-21.8c0.2-0.1,0.5-0.2,0.8-0.4
		c4.7-3.4,9.5-6.7,14.2-10.1c1.7-1.2,0.9-4.4-1.6-2.6c-4.6,3.3-9.2,6.6-13.9,9.8l-1.8-12.9h-3.5l3.1,39.1
		c-4.9-11.2-12.7-21.5-23.2-30.6c-1.3-1.2-3.6,1.7-2.4,2.7c9.4,8.1,16.7,17.4,21.5,27.3h0.5l0,1.1c1.2,2.5,2.2,5.1,3,7.7
		c1.7-3.2,3.7-6.3,6-9.2C371.1,150.4,371.2,150.4,371.2,150.3z"/>
	<path fill="#D56859" d="M251,254.8c-0.3-22.2,0.1-44.3,1.3-66.5c-2.4,0.9-4.9,1.1-7.5,0.8c-2.3,38.8-2.2,77.6,0.4,116.4h8
		c-0.5-7.5-1-15-1.3-22.5c0.9-0.1,9.6-66.8,13.5-86.9c-0.1-4.7-0.1-9.4-0.2-14.2c0-0.3,0-0.4,0-0.4C255.8,217.5,251,255.3,251,254.8
		z"/>
	<path fill="#D56859" d="M226.9,186c-1,24.5-3.2,81.1-4.3,119.5h8.5c0.5-36.6,1-83.3,1.5-119C230.7,186.2,228.8,186,226.9,186z"/>
	<g>
		<path fill="#D56859" d="M370,211.7l-0.2-3.5c-2.5,3.5-4.5,7.2-6,11.2l-0.8-31.7l-0.2-6.1l-0.4-13.6c0.8-2.5,1.8-4.9,2.9-7.3
			c-0.1-0.3-0.2-0.7-0.3-1c-1,2-1.9,4-2.7,6.1l-0.1-5.8l-3.8-0.1l0,11.7l0,5.5l0,1.4l0,5.6c-0.4-1-4.2-8.8-4.2-8.8l-2.7,1.5
			c3.1,4.7,1.7,2.9,5.4,11c0.4,0.9,0.9,1.9,1.3,2.8c0.1,0.1,0.1,0.2,0.2,0.3l0,21.3c-2.3-6.9-9-19.8-14.5-27.1
			c-1-0.2-1.9-0.4-2.9-0.6c0.1,0.3,0.2,0.6,0.3,1c0.1,0.4,0.2,0.8,0.1,1.2c4.4,6.7,14.9,23.1,16.8,30.3c0,0.1,0.1,0.2,0.1,0.2
			l0.1,88.1h6.8l-1.6-79.4C365.1,221,367.1,216.2,370,211.7z"/>
		<path fill="#D56859" d="M348.1,222c-5,3.9-8.9,8.2-11.5,12.8l-1.6-42.3c0.8-1.6,1.7-3.3,2.8-4.8c-0.1-0.1-0.3-0.2-0.4-0.3
			c-0.1,0-0.2-0.1-0.3-0.1c-0.8,1.1-1.5,2.3-2.1,3.4l-0.2-4.2c-0.6,0-1.1,0.1-1.6,0.4c-0.1,0.1-0.2,0.1-0.3,0.2
			c-0.7,1.1-1.6,2.6-2.6,4.1c-5.1,8.1-13.1,20.5-13.9,22.2c-0.5-4.5-1.9-8.8-4-13c-0.3-0.5-1.1,0.3-0.9,0.7
			c2.3,4.6,3.7,9.2,4.1,14.1c-4.1,9.2-7.1,18.7-9,28.2l-1.5-60.5c-0.3-0.4-0.4-0.9-0.5-1.5c-0.1-1-0.1-1.9-0.2-2.9c-0.5,0-1,0-1.6,0
			c-0.4,0-0.8,0-1.1,0l-0.4,17.9c-0.9-1.6-2.6-3.6-4.5-5.5c1.4-4.2,2.9-8.3,4.6-12.4c-0.9,0-1.8,0-2.8-0.1c-1,2.5-1.9,5-2.8,7.6
			c-0.2-2.6-0.6-5.1-1.2-7.7c-0.4,0-0.8,0-1.1,0c0.8,3.3,1.3,6.6,1.5,10c-0.1,0.2-0.1,0.4-0.2,0.6c-3.5-3.4-7-6.1-7-6.1
			c-1.1-1.1-2.1-1.8-2.9-2.2l-0.1-2.6l-0.8-33.5h-3.3l0.2,160.8h6.4l-0.8-58.3c0.8-17.4,3.8-34.5,8.8-51c0.1-0.2,0.2-0.4,0.3-0.7
			c2.7,3.1,4.8,6.5,5.9,10.4l0.2,99.6h6.4l-0.8-44.9c1.1-18.4,11.4-48.3,23.2-62.9l0.3,107.8h8.2l-1.9-65.2
			c2.1-6.1,6.3-11.7,12.6-16.5C350.6,222.9,349.9,220.6,348.1,222z M293.4,193.3C293.4,193.3,293.4,193.3,293.4,193.3
			c-3.3,10.4-5.8,21-7.5,31.8l-1-39.6c0.1,0.1,0.2,0.2,0.4,0.4C288.2,188.3,290.9,190.8,293.4,193.3
			C293.4,192.9,293.5,193,293.4,193.3z"/>
	</g>
	<path fill="#D56859" d="M148.3,208.6c-1,0.2-1.6,0.6-2.7,0.5c0.1,9,0.1,18.1,0.2,27.1c-4.7-6.8-7.7-14.5-9.1-22.6
		c-1.6-0.1-3.2-0.5-4.8-1c1.2,11.8,6.1,22.8,14,31.7c0.1,20.4,0.2,40.8,0.3,61.2h5.7c0-4.6-0.1-9.2-0.1-13.8
		c0.1,4.6,0.1,9.2,0.1,13.8h2.4c-0.1-25.4-1-50.8-2.8-76.2c0-6.8-0.1-13.7-0.1-20.5C150.5,208.4,149.6,208.3,148.3,208.6z"/>
	<path fill="#D56859" d="M36.9,225.2c-1-0.3-2-0.8-3.1-1v38.5c-2.5-12.3-5.9-24.4-10.1-36.3c-1.2,0.1-2.4,0-3.6-0.1
		c-1.4-0.2-2.6-0.6-3.7-1.1c9.1,25.9,14.4,52.9,15.5,80.3h7.3c-0.2-4.6-0.5-9.2-1-13.7v-66.6C37.8,225.3,37.4,225.4,36.9,225.2z"/>
	<path fill="#D56859" d="M129,305.5h4.8c-1-31.4-2.9-62.7-5.7-94c-1.7-0.5-3.3-0.8-4.9-0.8C126.1,242.3,128.1,273.9,129,305.5z"/>
	<path fill="#D56859" d="M76.4,213.9c0.5,8.8,1,17.5,1.5,26.3c-3-6-9.3-18.9-12.3-25.1c-0.5,0.2-1,0.5-1.5,0.7
		c4.2,9.3,13.8,34.2,14.4,34.2c1,18.5,2.1,37,3.1,55.5h6.4c-1.7-30.1-3.3-60.2-5-90.3c-1.7-0.2-3.4-0.6-5-1.1
		C77.3,214,76.8,213.9,76.4,213.9z"/>
	<path fill="#D56859" d="M56.9,224.9l-0.8,17.3c-0.1,0.3-0.3,0.6-0.4,1c-0.1,0.3,0,0.4,0.3,0.5l-0.1,3c-1.3-7.6-3.5-15-6.8-22
		c-1-0.1-2-0.3-2.9-0.5c5.3,12.2,8.7,34.1,9.2,34.7l-2,46.7h2c1.1-25.9,2.7-63,3.5-80.5c-0.1,0-0.1,0-0.2,0
		C58.1,225,57.5,224.9,56.9,224.9z"/>
	<path fill="#D56859" d="M106.4,216.9c-1.1-0.1-2.1-0.3-3.1-0.6c-0.7,15.4-1.4,30.8-2.1,46.2c-2.1-8.7-9.1-35.6-12.1-47.3
		c-0.4,0-0.9-0.1-1.3-0.1c-1,0.1-2,0.1-3.1,0.1c8.6,23.5,15.1,58.2,14.4,79.6c0,0.4,0.2,0.6,0.6,0.7c-0.2,3.3-0.3,6.6-0.5,9.9h7.2
		c1.4-31.3,3.1-68,4-88.7C109.1,217,107.7,217.1,106.4,216.9z"/>
</g>
</svg>
